<?xml version="1.0" encoding="UTF-8"?>
<svg width="125px" height="42px" viewBox="0 0 125 42" version="1.1" xmlns="http://www.w3.org/2000/svg" xmlns:xlink="http://www.w3.org/1999/xlink">
    <!-- Generator: Sketch 54.1 (76490) - https://sketchapp.com -->
    <title>Group 7</title>
    <desc>Created with Sketch.</desc>
    <g id="Page-2" stroke="none" stroke-width="1" fill="none" fill-rule="evenodd">
        <g id="Tablet/Fiat/landing-page_2" transform="translate(-218.000000, -4002.000000)">
            <g id="Group-7" transform="translate(218.000000, 4002.000000)">
                <rect id="Rectangle" stroke="#FFFFFF" x="0.5" y="0.5" width="124" height="41" rx="6"></rect>
                <path d="M40.802967,15.1711831 C41.0592585,15.1711831 41.2698711,15.1434239 41.4348111,15.0879048 C41.7291657,14.9847979 41.9702283,14.7865183 42.1580062,14.4930601 C42.307721,14.2577649 42.4155648,13.9563799 42.4815408,13.5888962 C42.5196039,13.3694635 42.5386352,13.1658965 42.5386352,12.978189 C42.5386352,12.2564405 42.4009757,11.6959703 42.1256527,11.2967614 C41.8503297,10.8975525 41.4069014,10.6979511 40.7953544,10.6979511 L39.4517341,10.6979511 L39.4517341,15.1711831 L40.802967,15.1711831 Z M38.6904762,10.0198282 L40.9552186,10.0198282 C41.724093,10.0198282 42.3204058,10.3040289 42.7441748,10.8724389 C43.1222681,11.3853297 43.311312,12.0422961 43.311312,12.8433576 C43.311312,13.4619991 43.1996619,14.0211475 42.9763585,14.5208196 C42.5830399,15.4038379 41.9067958,15.8453404 40.947606,15.8453404 L38.6904762,15.8453404 L38.6904762,10.0198282 Z M45.8120444,15.3853272 C46.2662639,15.3853272 46.5777421,15.2062146 46.7464885,14.8479841 C46.9152349,14.4897537 46.9996068,14.0912117 46.9996068,13.6523463 C46.9996068,13.2557812 46.9387067,12.9332465 46.8169049,12.6847323 C46.6240519,12.2934548 46.2916392,12.0978189 45.8196569,12.0978189 C45.400963,12.0978189 45.0964628,12.2643737 44.9061474,12.5974884 C44.715832,12.9306031 44.6206757,13.3324497 44.6206757,13.8030403 C44.6206757,14.2551245 44.715832,14.6318557 44.9061474,14.9332452 C45.0964628,15.2346347 45.3984255,15.3853272 45.8120444,15.3853272 Z M45.8386884,11.4752148 C46.363959,11.4752148 46.8080217,11.657632 47.1708898,12.0224719 C47.5337579,12.3873118 47.7151892,12.9239885 47.7151892,13.6325182 C47.7151892,14.3172539 47.5553267,14.8830116 47.2355967,15.3298083 C46.9158668,15.776605 46.4197853,16 45.7473374,16 C45.1865413,16 44.7412098,15.8023814 44.4113297,15.4071381 C44.0814496,15.0118949 43.9165121,14.4811666 43.9165121,13.8149372 C43.9165121,13.10112 44.0903309,12.5327186 44.4379738,12.1097158 C44.7856166,11.686713 45.2525168,11.4752148 45.8386884,11.4752148 Z M48.8456573,11.5981494 L49.629753,14.9451421 L50.4252676,11.5981494 L51.1941381,11.5981494 L51.993459,14.9253139 L52.8270364,11.5981494 L53.5121686,11.5981494 L52.3284125,15.8453404 L51.6166363,15.8453404 L50.7868651,12.5578321 L49.983738,15.8453404 L49.2719618,15.8453404 L48.0958182,11.5981494 L48.8456573,11.5981494 Z M54.1592378,11.5981494 L54.8101134,11.5981494 L54.8101134,12.2009253 C55.0029664,11.9524112 55.2072352,11.7739596 55.422926,11.6655651 C55.6386169,11.5571706 55.8784107,11.5029742 56.1423148,11.5029742 C56.7208738,11.5029742 57.1116489,11.7131506 57.3146521,12.1335096 C57.4263038,12.3635173 57.4821288,12.6926614 57.4821288,13.1209518 L57.4821288,15.8453404 L56.7855778,15.8453404 L56.7855778,13.1685393 C56.7855778,12.9094501 56.748784,12.7005956 56.6751954,12.5419696 C56.5533935,12.2775929 56.3326309,12.1454065 56.012901,12.1454065 C55.8504985,12.1454065 55.7172796,12.1625907 55.6132405,12.1969597 C55.4254626,12.2551226 55.2605251,12.3714466 55.1184229,12.5459352 C55.0042336,12.6860549 54.9300117,12.830799 54.8957549,12.9801718 C54.8614981,13.1295447 54.84437,13.3430257 54.84437,13.6206213 L54.84437,15.8453404 L54.1592378,15.8453404 L54.1592378,11.5981494 Z M58.5136333,10.0198282 L59.1987655,10.0198282 L59.1987655,15.8453404 L58.5136333,15.8453404 L58.5136333,10.0198282 Z M61.8441369,15.3853272 C62.2983564,15.3853272 62.6098347,15.2062146 62.778581,14.8479841 C62.9473274,14.4897537 63.0316993,14.0912117 63.0316993,13.6523463 C63.0316993,13.2557812 62.9707993,12.9332465 62.8489974,12.6847323 C62.6561444,12.2934548 62.3237318,12.0978189 61.8517495,12.0978189 C61.4330555,12.0978189 61.1285554,12.2643737 60.9382399,12.5974884 C60.7479245,12.9306031 60.6527682,13.3324497 60.6527682,13.8030403 C60.6527682,14.2551245 60.7479245,14.6318557 60.9382399,14.9332452 C61.1285554,15.2346347 61.430518,15.3853272 61.8441369,15.3853272 Z M61.8707809,11.4752148 C62.3960515,11.4752148 62.8401142,11.657632 63.2029823,12.0224719 C63.5658505,12.3873118 63.7472818,12.9239885 63.7472818,13.6325182 C63.7472818,14.3172539 63.5874192,14.8830116 63.2676893,15.3298083 C62.9479593,15.776605 62.4518779,16 61.77943,16 C61.2186338,16 60.7733024,15.8023814 60.4434223,15.4071381 C60.1135422,15.0118949 59.9486046,14.4811666 59.9486046,13.8149372 C59.9486046,13.10112 60.1224234,12.5327186 60.4700663,12.1097158 C60.8177092,11.686713 61.2846094,11.4752148 61.8707809,11.4752148 Z M65.0870958,14.7151355 C65.0870958,14.9213493 65.1594146,15.0839386 65.3040543,15.2029081 C65.448694,15.3218777 65.6199754,15.3813615 65.8179034,15.3813615 C66.0589696,15.3813615 66.2924198,15.3231995 66.5182607,15.2068738 C66.8988916,15.0138787 67.0892042,14.6979533 67.0892042,14.2590879 L67.0892042,13.6840714 C67.0054654,13.7395905 66.8976216,13.7858557 66.7656696,13.8228685 C66.6337175,13.8598812 66.504305,13.8863185 66.377428,13.9021811 L65.9625424,13.9576999 C65.7138636,13.9920689 65.5273573,14.0462653 65.4030178,14.1202908 C65.1924021,14.2445479 65.0870958,14.4428275 65.0870958,14.7151355 Z M66.7466381,13.2716457 C66.9039656,13.2504956 67.0092719,13.1817587 67.0625602,13.0654329 C67.0930106,13.0019825 67.1082357,12.9107739 67.1082357,12.7918044 C67.1082357,12.5485778 67.0251325,12.3721089 66.8589237,12.2623926 C66.6927149,12.1526763 66.4548241,12.0978189 66.1452443,12.0978189 C65.7874513,12.0978189 65.5337012,12.1982806 65.3839864,12.3992069 C65.3002476,12.5102451 65.2456913,12.6754781 65.2203159,12.8949108 L64.5808592,12.8949108 C64.5935469,12.3714448 64.7565814,12.0072713 65.0699675,11.8023794 C65.3833536,11.5974874 65.7468506,11.495043 66.1604695,11.495043 C66.6400644,11.495043 67.0295708,11.5902172 67.3290005,11.7805684 C67.6258926,11.9709197 67.7743364,12.2670172 67.7743364,12.6688698 L67.7743364,15.1156642 C67.7743364,15.1896897 67.788927,15.2491736 67.8181087,15.2941176 C67.8472904,15.3390617 67.9088248,15.3615334 68.0027138,15.3615334 C68.0331642,15.3615334 68.0674205,15.3595506 68.1054836,15.3555849 C68.1435467,15.3516193 68.1841467,15.3456709 68.2272849,15.3377396 L68.2272849,15.8651685 C68.1207082,15.8968937 68.0395082,15.9167217 67.9836823,15.924653 C67.9278564,15.9325843 67.8517314,15.9365499 67.7553049,15.9365499 C67.5193138,15.9365499 67.3480324,15.8493069 67.2414558,15.6748182 C67.1856299,15.5822864 67.1462987,15.4514219 67.1234608,15.2822208 C66.9838962,15.472572 66.7834336,15.637805 66.522067,15.7779247 C66.2607005,15.9180443 65.9726941,15.9881031 65.6580393,15.9881031 C65.2799459,15.9881031 64.9710051,15.8684744 64.7312077,15.6292135 C64.4914102,15.3899525 64.3715133,15.0905504 64.3715133,14.730998 C64.3715133,14.3370767 64.4895071,14.0317261 64.7254983,13.8149372 C64.9614894,13.5981483 65.2710645,13.46464 65.654233,13.4144085 L66.7466381,13.2716457 Z M69.3311089,13.7713153 C69.3311089,14.2260433 69.4237277,14.60674 69.608968,14.9134171 C69.7942084,15.2200941 70.091096,15.3734303 70.4996398,15.3734303 C70.8168322,15.3734303 71.0775605,15.2313299 71.2818324,14.9471249 C71.4861043,14.6629199 71.5882387,14.2551249 71.5882387,13.7237277 C71.5882387,13.1870429 71.4829324,12.7898228 71.2723167,12.5320555 C71.0617009,12.2742882 70.801607,12.1454065 70.4920273,12.1454065 C70.1469219,12.1454065 69.8671624,12.2828803 69.6527404,12.5578321 C69.4383183,12.8327839 69.3311089,13.2372743 69.3311089,13.7713153 Z M70.3626134,11.5228024 C70.6747307,11.5228024 70.9360934,11.5915393 71.1467091,11.7290152 C71.268511,11.8083282 71.4068048,11.9471239 71.5615947,12.1454065 L71.5615947,10 L72.2200828,10 L72.2200828,15.8453404 L71.6034639,15.8453404 L71.6034639,15.2544613 C71.4435989,15.5161943 71.2545551,15.7052208 71.0363267,15.8215466 C70.8180983,15.9378724 70.5681545,15.9960344 70.2864876,15.9960344 C69.8322681,15.9960344 69.4389554,15.7970939 69.1065378,15.3992069 C68.7741202,15.0013199 68.6079138,14.4719134 68.6079138,13.8109716 C68.6079138,13.19233 68.7595295,12.6563142 69.0627655,12.2029081 C69.3660014,11.749502 69.7992797,11.5228024 70.3626134,11.5228024 Z M77.0160079,15.3853272 C77.4702275,15.3853272 77.7817057,15.2062146 77.9504521,14.8479841 C78.1191984,14.4897537 78.2035704,14.0912117 78.2035704,13.6523463 C78.2035704,13.2557812 78.1426703,12.9332465 78.0208684,12.6847323 C77.8280155,12.2934548 77.4956028,12.0978189 77.0236205,12.0978189 C76.6049266,12.0978189 76.3004264,12.2643737 76.110111,12.5974884 C75.9197955,12.9306031 75.8246392,13.3324497 75.8246392,13.8030403 C75.8246392,14.2551245 75.9197955,14.6318557 76.110111,14.9332452 C76.3004264,15.2346347 76.6023891,15.3853272 77.0160079,15.3853272 Z M77.042652,11.4752148 C77.5679226,11.4752148 78.0119853,11.657632 78.3748534,12.0224719 C78.7377215,12.3873118 78.9191528,12.9239885 78.9191528,13.6325182 C78.9191528,14.3172539 78.7592903,14.8830116 78.4395603,15.3298083 C78.1198304,15.776605 77.6237489,16 76.951301,16 C76.3905049,16 75.9451734,15.8023814 75.6152933,15.4071381 C75.2854132,15.0118949 75.1204756,14.4811666 75.1204756,13.8149372 C75.1204756,13.10112 75.2942945,12.5327186 75.6419373,12.1097158 C75.9895802,11.686713 76.4564804,11.4752148 77.042652,11.4752148 Z M79.7336988,11.5981494 L80.3845744,11.5981494 L80.3845744,12.2009253 C80.5774274,11.9524112 80.7816962,11.7739596 80.997387,11.6655651 C81.2130779,11.5571706 81.4528717,11.5029742 81.7167758,11.5029742 C82.2953348,11.5029742 82.6861099,11.7131506 82.8891131,12.1335096 C83.0007648,12.3635173 83.0565898,12.6926614 83.0565898,13.1209518 L83.0565898,15.8453404 L82.3600388,15.8453404 L82.3600388,13.1685393 C82.3600388,12.9094501 82.323245,12.7005956 82.2496564,12.5419696 C82.1278545,12.2775929 81.9070919,12.1454065 81.587362,12.1454065 C81.4249595,12.1454065 81.2917406,12.1625907 81.1877015,12.1969597 C80.9999236,12.2551226 80.8349861,12.3714466 80.6928839,12.5459352 C80.5786946,12.6860549 80.5044727,12.830799 80.4702159,12.9801718 C80.4359591,13.1295447 80.418831,13.3430257 80.418831,13.6206213 L80.418831,15.8453404 L79.7336988,15.8453404 L79.7336988,11.5981494 Z M86.3718682,10.4124256 L87.064613,10.4124256 L87.064613,11.5981494 L87.7154885,11.5981494 L87.7154885,12.1810972 L87.064613,12.1810972 L87.064613,14.9530734 C87.064613,15.1011243 87.1128255,15.2002641 87.209252,15.2504957 C87.2625403,15.2795771 87.3513528,15.2941176 87.4756922,15.2941176 C87.5086803,15.2941176 87.5442053,15.2934567 87.5822684,15.2921348 C87.6203314,15.2908129 87.6647377,15.2875083 87.7154885,15.2822208 L87.7154885,15.8453404 C87.6368248,15.8691343 87.5549904,15.8863185 87.4699828,15.8968936 C87.3849752,15.9074687 87.2929908,15.9127561 87.1940268,15.9127561 C86.8742969,15.9127561 86.6573405,15.8274959 86.5431513,15.6569729 C86.428962,15.4864499 86.3718682,15.2650377 86.3718682,14.9927297 L86.3718682,12.1810972 L85.8199562,12.1810972 L85.8199562,11.5981494 L86.3718682,11.5981494 L86.3718682,10.4124256 Z M88.4006207,10 L89.0857528,10 L89.0857528,12.1731659 C89.2481553,11.9590207 89.3940616,11.8083283 89.5234761,11.7210839 C89.7442421,11.5703892 90.0195609,11.495043 90.349441,11.495043 C90.9406877,11.495043 91.3416128,11.7105068 91.5522286,12.1414408 C91.6664179,12.3767361 91.7235116,12.7032365 91.7235116,13.1209518 L91.7235116,15.8453404 L91.019348,15.8453404 L91.019348,13.1685393 C91.019348,12.8565748 90.9812855,12.6278923 90.9051593,12.4824851 C90.7808199,12.2498336 90.5473698,12.1335096 90.204802,12.1335096 C89.9205976,12.1335096 89.6630413,12.2352931 89.4321252,12.4388632 C89.2012091,12.6424333 89.0857528,13.0270957 89.0857528,13.5928619 L89.0857528,15.8453404 L88.4006207,15.8453404 L88.4006207,10 Z M94.43359,11.5029742 C94.7228694,11.5029742 95.0032633,11.5736939 95.27478,11.7151355 C95.5462967,11.856577 95.753103,12.0396552 95.8952052,12.2643754 C96.0322323,12.4785206 96.1235824,12.7283528 96.1692581,13.0138797 C96.2098587,13.2095185 96.2301587,13.5214784 96.2301587,13.9497687 L93.2422213,13.9497687 C93.254909,14.3807027 93.3526027,14.7263701 93.5353056,14.9867812 C93.7180084,15.2471923 94.0009398,15.3773959 94.3841082,15.3773959 C94.7419012,15.3773959 95.0273701,15.2544626 95.2405234,15.0085922 C95.3623253,14.8658288 95.4486003,14.7005958 95.4993511,14.5128883 L96.1730644,14.5128883 C96.1553016,14.6688706 96.0963047,14.8426957 95.9960719,15.0343688 C95.8958391,15.2260419 95.7835547,15.3826828 95.6592153,15.5042961 C95.451137,15.7157975 95.1935807,15.8585588 94.8865384,15.9325843 C94.7215984,15.9748845 94.5350921,15.9960344 94.3270138,15.9960344 C93.819506,15.9960344 93.3893996,15.8037032 93.0366816,15.419035 C92.6839637,15.0343669 92.5076073,14.4957074 92.5076073,13.8030403 C92.5076073,13.1209483 92.6852324,12.5670874 93.0404879,12.1414408 C93.3957434,11.7157943 93.8601061,11.5029742 94.43359,11.5029742 Z M95.5259951,13.3826834 C95.4980822,13.0733626 95.4333759,12.8261741 95.3318743,12.6411104 C95.1440964,12.2974206 94.8307151,12.1255783 94.3917208,12.1255783 C94.0770659,12.1255783 93.8131658,12.2438851 93.6000125,12.4805023 C93.3868592,12.7171195 93.2739404,13.0178435 93.2612527,13.3826834 L95.5259951,13.3826834 Z" id="Downloadonthe" fill="#FFFFFF" fill-rule="nonzero"></path>
                <path d="M42.8249386,28.0796689 L41.2744324,23.7149509 L39.6265851,28.0796689 L42.8249386,28.0796689 Z M40.5513264,22.248836 L42.1157385,22.248836 L45.8216568,32.128298 L44.3059153,32.128298 L43.2699269,29.1691671 L39.2302673,29.1691671 L38.1247495,32.128298 L36.7063492,32.128298 L40.5513264,22.248836 Z M50.0559988,31.314537 C50.6400489,31.314537 51.1255912,31.0780331 51.5126402,30.6050181 C51.8996893,30.1320032 52.0932109,29.4247331 52.0932109,28.4831868 C52.0932109,27.9092918 52.0074588,27.4161083 51.8359521,27.0036213 C51.5114798,26.2100322 50.918168,25.8132437 50.0559988,25.8132437 C49.1891943,25.8132437 48.5958825,26.2324497 48.2760455,27.0708743 C48.1045387,27.5192297 48.0187866,28.0886325 48.0187866,28.7790998 C48.0187866,29.3350605 48.1045387,29.8080684 48.2760455,30.1981376 C48.6005178,30.9424076 49.1938296,31.314537 50.0559988,31.314537 Z M46.8159276,24.9591309 L48.0326925,24.9591309 L48.0326925,25.9141231 C48.2829997,25.5868237 48.5564794,25.3335067 48.8531397,25.1541645 C49.2749537,24.8851513 49.7709253,24.7506467 50.3410694,24.7506467 C51.1846973,24.7506467 51.9008432,25.0633699 52.4895286,25.6888257 C53.0782141,26.3142815 53.3725523,27.2076162 53.3725523,28.3688567 C53.3725523,29.9381006 52.9484271,31.0589723 52.1001639,31.7315054 C51.562467,32.1574431 50.9367084,32.3704087 50.2228694,32.3704087 C49.6619959,32.3704087 49.1915182,32.2515963 48.8114221,32.0139679 C48.5889268,31.8794613 48.340941,31.6485617 48.0674572,31.3212623 L48.0674572,35 L46.8159276,35 L46.8159276,24.9591309 Z M57.9754003,31.314537 C58.5594504,31.314537 59.0449927,31.0780331 59.4320417,30.6050181 C59.8190908,30.1320032 60.0126124,29.4247331 60.0126124,28.4831868 C60.0126124,27.9092918 59.9268603,27.4161083 59.7553535,27.0036213 C59.4308813,26.2100322 58.8375694,25.8132437 57.9754003,25.8132437 C57.1085958,25.8132437 56.5152839,26.2324497 56.195447,27.0708743 C56.0239402,27.5192297 55.9381881,28.0886325 55.9381881,28.7790998 C55.9381881,29.3350605 56.0239402,29.8080684 56.195447,30.1981376 C56.5199193,30.9424076 57.1132311,31.314537 57.9754003,31.314537 Z M54.7353291,24.9591309 L55.952094,24.9591309 L55.952094,25.9141231 C56.2024012,25.5868237 56.4758809,25.3335067 56.7725412,25.1541645 C57.1943552,24.8851513 57.6903268,24.7506467 58.2604709,24.7506467 C59.1040988,24.7506467 59.8202447,25.0633699 60.4089301,25.6888257 C60.9976155,26.3142815 61.2919538,27.2076162 61.2919538,28.3688567 C61.2919538,29.9381006 60.8678286,31.0589723 60.0195654,31.7315054 C59.4818685,32.1574431 58.8561099,32.3704087 58.1422709,32.3704087 C57.5813974,32.3704087 57.1109197,32.2515963 56.7308236,32.0139679 C56.5083283,31.8794613 56.2603425,31.6485617 55.9868587,31.3212623 L55.9868587,35 L54.7353291,35 L54.7353291,24.9591309 Z M67.7790492,28.940507 C67.8114964,29.5009512 67.9482362,29.9560252 68.1892728,30.3057424 C68.6481693,30.9603413 69.4570202,31.2876358 70.6158497,31.2876358 C71.1350053,31.2876358 71.6078007,31.2159 72.03425,31.0724263 C72.8593366,30.7944459 73.2718737,30.2967789 73.2718737,29.5794102 C73.2718737,29.0413838 73.0980519,28.6580456 72.750403,28.4293844 C72.3981189,28.2052067 71.8465243,28.010175 71.0956027,27.8442835 L69.7119672,27.5416451 C68.8080801,27.3443687 68.1684158,27.1269196 67.7929551,26.8892913 C67.1440105,26.4768043 66.8195431,25.8603248 66.8195431,25.0398345 C66.8195431,24.1520908 67.1370576,23.4235241 67.7720962,22.8541128 C68.4071348,22.2847014 69.3063731,22 70.4698379,22 C71.5405964,22 72.450264,22.2499544 73.1988678,22.7498707 C73.9474717,23.2497869 74.3217681,24.0489685 74.3217681,25.1474392 L73.0215678,25.1474392 C72.952038,24.6183798 72.8037101,24.2126243 72.5765795,23.9301604 C72.1547655,23.4145517 71.4386196,23.1567512 70.4281203,23.1567512 C69.6123043,23.1567512 69.0259453,23.3226402 68.6690258,23.6544232 C68.3121063,23.9862062 68.1336492,24.371786 68.1336492,24.8111743 C68.1336492,25.2953982 68.3422354,25.6495936 68.7594141,25.8737713 C69.0328978,26.0172451 69.6517035,26.1965845 70.6158497,26.4117951 L72.0481559,26.7278841 C72.7388183,26.880325 73.2718719,27.0888071 73.6473326,27.3533368 C74.2962772,27.8151429 74.6207446,28.4854241 74.6207446,29.3642007 C74.6207446,30.4581879 74.2093663,31.2405564 73.3865973,31.7113295 C72.5638283,32.1821027 71.6078083,32.4174858 70.5185085,32.4174858 C69.2484313,32.4174858 68.2541705,32.1036417 67.5356962,31.4759441 C66.8172219,30.8527301 66.464943,30.0075929 66.4788489,28.940507 L67.7790492,28.940507 Z M76.4563214,22.9146405 L77.7217569,22.9146405 L77.7217569,24.9255044 L78.9107101,24.9255044 L78.9107101,25.9141231 L77.7217569,25.9141231 L77.7217569,30.6151061 C77.7217569,30.8661851 77.8098267,31.0343158 77.9859687,31.1195034 C78.0833104,31.1688225 78.2455441,31.1934816 78.4726747,31.1934816 C78.5329339,31.1934816 78.5978273,31.1923608 78.6673571,31.190119 C78.7368869,31.1878772 78.8180037,31.1822729 78.9107101,31.1733057 L78.9107101,32.128298 C78.7670152,32.16865 78.6175285,32.1977926 78.4622453,32.2157268 C78.3069621,32.2336611 78.1389344,32.242628 77.958157,32.242628 C77.3741069,32.242628 76.9777931,32.0980356 76.7692038,31.8088464 C76.5606145,31.5196571 76.4563214,31.1441651 76.4563214,30.682359 L76.4563214,25.9141231 L75.4481447,25.9141231 L75.4481447,24.9255044 L76.4563214,24.9255044 L76.4563214,22.9146405 Z M83.1172403,31.3481635 C83.9469622,31.3481635 84.515939,31.0444072 84.8241877,30.4368857 C85.1324363,29.8293641 85.2865584,29.1534785 85.2865584,28.4092085 C85.2865584,27.7366754 85.1753124,27.18969 84.9528171,26.7682359 C84.6005329,26.1046699 83.9933154,25.7728919 83.1311462,25.7728919 C82.3663187,25.7728919 81.8100888,26.0553515 81.46244,26.6202794 C81.1147911,27.1852072 80.9409693,27.8666972 80.9409693,28.6647698 C80.9409693,29.4314575 81.1147911,30.0703544 81.46244,30.5814796 C81.8100888,31.0926047 82.3616834,31.3481635 83.1172403,31.3481635 Z M83.1659109,24.7170202 C84.1254218,24.7170202 84.9365903,25.0263808 85.5994408,25.6451112 C86.2622913,26.2638417 86.5937115,27.1739895 86.5937115,28.375582 C86.5937115,29.5368225 86.3016909,30.4962887 85.7176408,31.2540093 C85.1335907,32.0117299 84.2273996,32.3905846 82.9990403,32.3905846 C81.974635,32.3905846 81.1611488,32.0554439 80.5585575,31.3851526 C79.9559661,30.7148613 79.6546749,29.8148013 79.6546749,28.6849457 C79.6546749,27.4743861 79.9721895,26.5104364 80.6072281,25.7930678 C81.2422666,25.0756991 82.0951524,24.7170202 83.1659109,24.7170202 Z M88.1164059,24.9255044 L89.3053591,24.9255044 L89.3053591,26.1696844 C89.4027008,25.9275725 89.6414161,25.6327833 90.0215122,25.2853078 C90.4016083,24.9378324 90.8396393,24.7640973 91.3356183,24.7640973 C91.3587949,24.7640973 91.3981945,24.766339 91.4538183,24.7708226 C91.5094422,24.7753061 91.6044648,24.7842731 91.738889,24.7977237 L91.738889,26.0755303 C91.6647239,26.0620796 91.596354,26.0531126 91.5337772,26.0486291 C91.4712004,26.0441455 91.4028305,26.0419038 91.3286654,26.0419038 C90.6982621,26.0419038 90.2138786,26.2380563 89.8755004,26.6303673 C89.5371222,27.0226783 89.3679356,27.4743896 89.3679356,27.9855147 L89.3679356,32.128298 L88.1164059,32.128298 L88.1164059,24.9255044 Z M95.9245604,24.7640973 C96.4529866,24.7640973 96.9651816,24.8840305 97.4611606,25.1239007 C97.9571397,25.3637708 98.3349125,25.6742523 98.5944903,26.0553544 C98.8447974,26.4185223 99.0116664,26.8422118 99.0951021,27.3264356 C99.1692672,27.6582186 99.2063492,28.18727 99.2063492,28.9136058 L93.7482894,28.9136058 C93.7714659,29.6444251 93.949923,30.230641 94.2836659,30.6722711 C94.6174088,31.1139012 95.1342391,31.3347129 95.8341721,31.3347129 C96.487752,31.3347129 97.0092174,31.1262307 97.3985842,30.7092602 C97.6210794,30.4671483 97.7786779,30.1869304 97.8713842,29.868598 L99.1020551,29.868598 C99.0696078,30.1331277 98.9618383,30.427917 98.7787432,30.7529747 C98.5956482,31.0780323 98.3905384,31.3436789 98.1634078,31.5499224 C97.7833117,31.9086067 97.312834,32.150715 96.7519605,32.2762545 C96.4506648,32.3479914 96.1099741,32.3838593 95.729878,32.3838593 C94.8028143,32.3838593 94.0171397,32.0576856 93.3728305,31.4053285 C92.7285212,30.7529714 92.4063715,29.839461 92.4063715,28.6647698 C92.4063715,27.5080128 92.7308389,26.5687224 93.3797834,25.8468702 C94.0287279,25.1250179 94.8769784,24.7640973 95.9245604,24.7640973 Z M97.9200548,27.9518883 C97.8690663,27.4273124 97.7508675,27.0081064 97.5654548,26.6942576 C97.2224412,26.1113956 96.649988,25.819969 95.848078,25.819969 C95.2732985,25.819969 94.7912327,26.020605 94.4018659,26.4218831 C94.0124992,26.8231612 93.8062307,27.3331578 93.7830541,27.9518883 L97.9200548,27.9518883 Z" id="AppStore" fill="#FFFFFF" fill-rule="nonzero"></path>
                <g id="icons8-mac_os" transform="translate(7.936508, 7.000000)" fill="#FFFFFF" fill-rule="nonzero">
                    <path d="M21.8253968,18.3411443 C21.2288589,19.6421789 20.9442353,20.225534 20.1761439,21.3730551 C19.1078342,22.9811196 17.5950445,24.9844833 15.7235522,24.9959971 C14.0626022,25.0113486 13.633719,23.9290719 11.3762311,23.9482609 C9.11874322,23.9559362 8.64697143,25.0151862 6.98212277,24.9998347 C5.1145291,24.9844833 3.68361798,23.1768509 2.61140856,21.5764615 C-0.386877915,17.0823255 -0.702693,11.8129398 1.1493049,9.01130075 C2.45934956,7.02328758 4.53358692,5.85657743 6.48305814,5.85657743 C8.46372089,5.85657743 9.71138246,6.92734126 11.352837,6.92734126 C12.9436055,6.92734126 13.9105432,5.85273981 16.207021,5.85273981 C17.9381515,5.85273981 19.7745526,6.78150299 21.0845973,8.38956657 C16.7957606,10.6999602 17.4936715,16.7292421 21.8253968,18.3411443 Z M14.4641935,4.05662024 C15.2985667,3.00504645 15.9301959,1.51595587 15.7040567,0 C14.3394274,0.092108696 12.7486589,0.947952242 11.8168114,2.05325659 C10.9746398,3.06261365 10.2767289,4.56321807 10.5496553,6.01393052 C12.0351521,6.05998487 13.571336,5.18878987 14.4641935,4.05662024 Z" id="Shape"></path>
                </g>
            </g>
        </g>
    </g>
</svg>