<?xml version="1.0" encoding="UTF-8"?>
<svg width="26px" height="26px" viewBox="0 0 26 26" version="1.1" xmlns="http://www.w3.org/2000/svg" xmlns:xlink="http://www.w3.org/1999/xlink">
    <!-- Generator: Sketch 54.1 (76490) - https://sketchapp.com -->
    <title>web/email</title>
    <desc>Created with Sketch.</desc>
    <defs>
        <radialGradient cx="121.894483%" cy="-50.0212096%" fx="121.894483%" fy="-50.0212096%" r="98.9957818%" gradientTransform="translate(1.218945,-0.500212),scale(0.582410,1.000000),rotate(130.181207),translate(-1.218945,0.500212)" id="radialGradient-1">
            <stop stop-color="#FFFFFF" offset="0%"></stop>
            <stop stop-color="#BABABA" offset="100%"></stop>
        </radialGradient>
        <radialGradient cx="106.708048%" cy="-89.592943%" fx="106.708048%" fy="-89.592943%" r="116.489931%" gradientTransform="translate(1.067080,-0.895929),scale(0.499775,1.000000),rotate(120.096610),translate(-1.067080,0.895929)" id="radialGradient-2">
            <stop stop-color="#FFFFFF" offset="0%"></stop>
            <stop stop-color="#BABABA" offset="100%"></stop>
        </radialGradient>
    </defs>
    <g id="web/email" stroke="none" stroke-width="1" fill="none" fill-rule="evenodd">
        <g id="email" transform="translate(1.000000, 5.000000)" fill-rule="nonzero">
            <g id="Group" transform="translate(0.000000, 2.000000)">
                <path d="M0.789473684,13.9700855 C0.391578947,13.9700855 0.0631578947,13.6589744 0.0631578947,13.2820513 L0.0631578947,0.478632479 L0.0631578947,0.460683761 C0.0694736842,0.245299145 0.258947368,0.11965812 0.442105263,0.11965812 C0.543157895,0.11965812 0.637894737,0.155555556 0.707368421,0.227350427 L11.4126316,10.3683761 C11.5642105,10.5119658 11.76,10.5837607 11.9684211,10.5837607 C12.1768421,10.5837607 12.3789474,10.5059829 12.5242105,10.3683761 L23.2863158,0.173504274 C23.3557895,0.107692308 23.4505263,0.0658119658 23.5515789,0.0658119658 C23.7284211,0.0658119658 23.88,0.179487179 23.9178947,0.335042735 C23.9305263,0.382905983 23.9368421,0.430769231 23.9368421,0.478632479 L23.9368421,13.2820513 C23.9368421,13.6589744 23.6084211,13.9700855 23.2105263,13.9700855 L0.789473684,13.9700855 Z" id="Path" fill="url(#radialGradient-1)"></path>
                <path d="M23.5578947,0.0957264957 C23.6905263,0.0957264957 23.8547368,0.173504274 23.8926316,0.341025641 C23.9052632,0.388888889 23.9052632,0.430769231 23.9052632,0.478632479 L23.9052632,13.2820513 C23.9052632,13.6470085 23.5957895,13.9401709 23.2105263,13.9401709 L0.789473684,13.9401709 C0.404210526,13.9401709 0.0947368421,13.6470085 0.0947368421,13.2820513 L0.0947368421,0.478632479 C0.0947368421,0.472649573 0.0947368421,0.466666667 0.0947368421,0.460683761 C0.101052632,0.263247863 0.277894737,0.143589744 0.442105263,0.143589744 C0.505263158,0.143589744 0.6,0.161538462 0.682105263,0.239316239 L11.3873684,10.3803419 C11.5389474,10.5239316 11.7473684,10.6076923 11.9684211,10.6076923 C12.1894737,10.6076923 12.3915789,10.5299145 12.5494737,10.3803419 L23.3115789,0.185470085 C23.3747368,0.125641026 23.4631579,0.0957264957 23.5578947,0.0957264957 L23.5578947,0.0957264957 Z M23.5578947,0.0358974359 C23.4568421,0.0358974359 23.3494737,0.0717948718 23.2673684,0.14957265 L12.5052632,10.3444444 C12.36,10.4820513 12.1642105,10.5538462 11.9684211,10.5538462 C11.7726316,10.5538462 11.5768421,10.4820513 11.4315789,10.3444444 L0.726315789,0.203418803 C0.644210526,0.125641026 0.543157895,0.0897435897 0.442105263,0.0897435897 C0.233684211,0.0897435897 0.0378947368,0.233333333 0.0315789474,0.460683761 C0.0315789474,0.466666667 0.0315789474,0.472649573 0.0315789474,0.478632479 L0.0315789474,13.2820513 C0.0315789474,13.6769231 0.372631579,14 0.789473684,14 L23.2105263,14 C23.6273684,14 23.9684211,13.6769231 23.9684211,13.2820513 L23.9684211,0.478632479 C23.9684211,0.424786325 23.9621053,0.376923077 23.9494737,0.329059829 C23.9115789,0.143589744 23.7347368,0.0358974359 23.5578947,0.0358974359 L23.5578947,0.0358974359 Z" id="Shape"></path>
            </g>
            <g id="Group" transform="translate(1.000000, 0.000000)">
                <path d="M11,10.9697802 C10.8146067,10.9697802 10.6477528,10.9032967 10.5179775,10.7763736 L0.179213483,0.664835165 L0.166853933,0.652747253 C0.0617977528,0.543956044 0.0370786517,0.392857143 0.0988764045,0.25989011 C0.160674157,0.120879121 0.296629213,0.0362637363 0.44494382,0.0362637363 L21.561236,0.0362637363 C21.7157303,0.0362637363 21.8516854,0.126923077 21.9134831,0.265934066 C21.9691011,0.404945055 21.944382,0.55 21.8393258,0.652747253 L11.4820225,10.7763736 C11.3522472,10.9032967 11.1792135,10.9697802 11,10.9697802 Z" id="Path" fill="url(#radialGradient-2)"></path>
                <path d="M21.5550562,0.0604395604 C21.7280899,0.0604395604 21.8331461,0.169230769 21.8764045,0.271978022 C21.9320225,0.398901099 21.9073034,0.531868132 21.808427,0.628571429 L21.8022472,0.634615385 L11.4573034,10.7521978 C11.3337079,10.8730769 11.1730337,10.9395604 10.9938202,10.9395604 C10.8146067,10.9395604 10.6539326,10.8730769 10.5303371,10.7521978 L0.197752809,0.640659341 C0.191573034,0.634615385 0.191573034,0.634615385 0.185393258,0.628571429 C0.0926966292,0.531868132 0.0679775281,0.392857143 0.123595506,0.265934066 C0.179213483,0.139010989 0.302808989,0.0604395604 0.44494382,0.0604395604 L21.5550562,0.0604395604 L21.5550562,0.0604395604 Z M21.5550562,0 L0.44494382,0 C0.0865168539,0 -0.0988764045,0.417032967 0.142134831,0.670879121 C0.148314607,0.676923077 0.148314607,0.676923077 0.154494382,0.682967033 L10.4932584,10.7945055 C10.6292135,10.9274725 10.8146067,11 11,11 C11.1853933,11 11.3646067,10.9335165 11.5067416,10.7945055 L21.8516854,0.676923077 C21.8516854,0.676923077 21.8578652,0.670879121 21.8578652,0.670879121 C22.1050562,0.423076923 21.9134831,0 21.5550562,0 L21.5550562,0 Z" id="Shape"></path>
            </g>
        </g>
    </g>
</svg>