<?xml version="1.0" encoding="UTF-8"?>
<svg width="133px" height="41px" viewBox="0 0 133 41" version="1.1" xmlns="http://www.w3.org/2000/svg" xmlns:xlink="http://www.w3.org/1999/xlink">
    <!-- Generator: Sketch 54.1 (76490) - https://sketchapp.com -->
    <title>Group 12</title>
    <desc>Created with Sketch.</desc>
    <g id="Page-2" stroke="none" stroke-width="1" fill="none" fill-rule="evenodd">
        <g id="Tablet/Fiat/landing-page_2" transform="translate(-396.000000, -2374.000000)">
            <g id="Group-12" transform="translate(396.000000, 2374.000000)">
                <rect id="Rectangle-Copy-6" stroke="#604EE3" x="0.5" y="0.5" width="132" height="40" rx="4"></rect>
                <text id="Checkout-available-Copy" font-family="ProximaNova-Semibold, Proxima Nova" font-size="10" font-weight="500" letter-spacing="-0.75" fill="#604EE3">
                    <tspan x="42" y="14">Checkout available </tspan>
                </text>
                <text id="EMYAPP-Copy" font-family="ProximaNova-Semibold, Proxima Nova" font-size="19" font-weight="500" letter-spacing="0.7340909" fill="#604EE3">
                    <tspan x="42" y="33">EMYAP</tspan>
                    <tspan x="107.724454" y="33" letter-spacing="0.6973863">P</tspan>
                </text>
                <path d="M24.5252404,23.8638824 L24.4603365,23.8638824 C23.9627404,25.2620192 23.0621997,25.9597359 21.7533055,25.9597359 C20.7716346,25.9597359 19.9819712,25.5946516 19.3816109,24.8617788 C18.7785458,24.1316109 18.4783654,23.1174882 18.4783654,21.8221154 C18.4783654,20.1481368 18.8948321,18.7851561 19.7277648,17.7331731 C20.5579926,16.6838942 21.5612981,16.1592552 22.7322715,16.1592552 C23.7923676,16.1592552 24.4576324,16.5865385 24.7280651,17.4438099 L24.7713343,17.4438099 L24.8768032,16.3566708 L27.2755407,16.3566708 C26.9564305,19.4747596 26.7941708,21.5111176 26.7941708,22.4711538 C26.7941708,23.4960939 27.0646035,24.0072115 27.6054689,24.0072115 C28.1760821,24.0072115 28.6439305,23.6177885 29.0144231,22.8443513 C29.3822115,22.0682093 29.5688099,21.0540865 29.5688099,19.8046878 C29.5688099,18.0928484 29.0387618,16.6893032 27.9786657,15.5940503 C26.9185695,14.5015022 25.4420074,13.9525244 23.5435695,13.9525244 C21.5099157,13.9525244 19.8197115,14.6826923 18.4729571,16.1430288 C17.1262019,17.6033654 16.4528247,19.3828128 16.4528247,21.4840747 C16.4528247,23.5177285 17.0477766,25.1186901 18.2376805,26.2896635 C19.4302885,27.4606368 21.0718151,28.0474763 23.1703728,28.0474763 C24.7713343,28.0474763 26.234375,27.7337744 27.5649038,27.1036657 L27.5649038,29.1995192 C26.3479571,29.7322715 24.7848558,30 22.8728965,30 C20.2469955,30 18.1132811,29.2265628 16.4690503,27.6796878 C14.8221154,26.130108 14,24.0504808 14,21.4381013 C14,18.7743388 14.8789061,16.5378609 16.6340148,14.7232574 C18.3891228,12.9086538 20.6499401,12 23.4164667,12 C25.9747596,12 28.0462744,12.703125 29.6283055,14.1120792 C31.2103365,15.521034 32,17.3789061 32,19.6829926 C32,21.5787263 31.5159253,23.0985577 30.5504808,24.2451923 C29.5823321,25.3891228 28.3843151,25.9624401 26.9564305,25.9624401 C26.2533055,25.9624401 25.6799882,25.7677285 25.2391827,25.3810096 C24.7983772,24.9915865 24.5603965,24.4858772 24.5252404,23.8638824 Z M23.1054689,18.0685096 C22.4672478,18.0685096 21.9453128,18.4444112 21.5450725,19.1935096 C21.1421272,19.9453128 20.9420074,20.8134016 20.9420074,21.8004808 C20.9420074,22.5036058 21.0799282,23.0498802 21.3530651,23.4420074 C21.6262019,23.8341346 21.9777648,24.0288462 22.4131612,24.0288462 C23.0811302,24.0288462 23.6084734,23.6610577 23.9924882,22.9200725 C24.3737981,22.1817907 24.5658055,21.1947115 24.5658055,19.9588343 C24.5658055,19.3719955 24.4332936,18.9122596 24.1655651,18.5742189 C23.9005407,18.2388824 23.5462744,18.0685096 23.1054689,18.0685096 Z" id="Shape" fill="#604EE3" fill-rule="nonzero"></path>
            </g>
        </g>
    </g>
</svg>