<?xml version="1.0" encoding="UTF-8"?>
<svg width="125px" height="42px" viewBox="0 0 125 42" version="1.1" xmlns="http://www.w3.org/2000/svg" xmlns:xlink="http://www.w3.org/1999/xlink">
    <!-- Generator: Sketch 54.1 (76490) - https://sketchapp.com -->
    <title>Group 6</title>
    <desc>Created with Sketch.</desc>
    <g id="Page-2" stroke="none" stroke-width="1" fill="none" fill-rule="evenodd">
        <g id="Tablet/Fiat/landing-page_2" transform="translate(-424.000000, -4002.000000)">
            <g id="Group-6" transform="translate(424.000000, 4002.000000)">
                <path d="M37.8290738,22 C38.792102,22 39.624853,22.1904743 40.3273518,22.5714286 C41.3462077,23.1190504 41.9696079,24.0785646 42.1975711,25.45 L40.8228204,25.45 C40.6553372,24.6833295 40.3087453,24.1250018 39.7830343,23.775 C39.2573232,23.4249983 38.594379,23.25 37.7941816,23.25 C36.8451104,23.25 36.0460881,23.6142821 35.3970908,24.3428571 C34.7480935,25.0714322 34.4235998,26.1571356 34.4235998,27.6 C34.4235998,28.8476253 34.6911036,29.8630913 35.2261193,30.6464286 C35.7611349,31.4297658 36.63343,31.8214286 37.8430306,31.8214286 C38.7688403,31.8214286 39.5352969,31.5464313 40.1424234,30.9964286 C40.7495499,30.4464258 41.0600869,29.557149 41.0740439,28.3285714 L37.8639659,28.3285714 L37.8639659,27.15 L42.3650535,27.15 L42.3650535,32.7642857 L41.4718144,32.7642857 L41.1368497,31.4142857 C40.6669664,31.9428598 40.2505909,32.3095228 39.8877107,32.5142857 C39.2782581,32.8666684 38.5036601,33.0428571 37.5638934,33.0428571 C36.3496405,33.0428571 35.3052125,32.6404802 34.4305782,31.8357143 C33.4768546,30.8261854 33,29.440485 33,27.6785714 C33,25.9214198 33.465224,24.5238147 34.3956861,23.4857143 C35.279625,22.4952331 36.4240761,22 37.8290738,22 Z M47.3127606,31.9357143 C48.1455241,31.9357143 48.7165866,31.6130985 49.0259652,30.9678571 C49.3353438,30.3226158 49.4900308,29.6047659 49.4900308,28.8142857 C49.4900308,28.0999964 49.378377,27.5190499 49.1550662,27.0714286 C48.8014906,26.3666631 48.1920471,26.0142857 47.3267174,26.0142857 C46.5590862,26.0142857 46.0008174,26.3142827 45.6518941,26.9142857 C45.3029709,27.5142887 45.1285119,28.238091 45.1285119,29.0857143 C45.1285119,29.9000041 45.3029709,30.5785687 45.6518941,31.1214286 C46.0008174,31.6642884 46.554434,31.9357143 47.3127606,31.9357143 Z M47.3616096,24.8928571 C48.3246378,24.8928571 49.1387798,25.2214253 49.8040602,25.8785714 C50.4693405,26.5357176 50.8019757,27.5023746 50.8019757,28.7785714 C50.8019757,30.0119109 50.5088846,31.0309484 49.9226935,31.8357143 C49.3365024,32.6404802 48.4269894,33.0428571 47.1941272,33.0428571 C46.1659667,33.0428571 45.3494985,32.6869083 44.7446982,31.975 C44.1398979,31.2630917 43.8375023,30.3071489 43.8375023,29.1071429 C43.8375023,27.8214221 44.1561807,26.7976229 44.7935472,26.0357143 C45.4309137,25.2738057 46.2869259,24.8928571 47.3616096,24.8928571 Z M55.2611927,31.9357143 C56.0939562,31.9357143 56.6650187,31.6130985 56.9743973,30.9678571 C57.2837759,30.3226158 57.4384629,29.6047659 57.4384629,28.8142857 C57.4384629,28.0999964 57.3268092,27.5190499 57.1034983,27.0714286 C56.7499227,26.3666631 56.1404792,26.0142857 55.2751495,26.0142857 C54.5075184,26.0142857 53.9492495,26.3142827 53.6003263,26.9142857 C53.251403,27.5142887 53.076944,28.238091 53.076944,29.0857143 C53.076944,29.9000041 53.251403,30.5785687 53.6003263,31.1214286 C53.9492495,31.6642884 54.5028661,31.9357143 55.2611927,31.9357143 Z M55.3100417,24.8928571 C56.2730699,24.8928571 57.0872119,25.2214253 57.7524923,25.8785714 C58.4177726,26.5357176 58.7504078,27.5023746 58.7504078,28.7785714 C58.7504078,30.0119109 58.4573167,31.0309484 57.8711256,31.8357143 C57.2849345,32.6404802 56.3754215,33.0428571 55.1425594,33.0428571 C54.1143988,33.0428571 53.2979306,32.6869083 52.6931303,31.975 C52.08833,31.2630917 51.7859344,30.3071489 51.7859344,29.1071429 C51.7859344,27.8214221 52.1046128,26.7976229 52.7419793,26.0357143 C53.3793458,25.2738057 54.235358,24.8928571 55.3100417,24.8928571 Z M62.8816386,24.9785714 C63.4678296,24.9785714 63.9795761,25.126189 64.4168932,25.4214286 C64.6541611,25.5880961 64.8960776,25.8309508 65.14265,26.15 L65.14265,25.1857143 L66.3010694,25.1857143 L66.3010694,32.1428571 C66.3010694,33.1142906 66.1615022,33.8809496 65.8823636,34.4428571 C65.3613049,35.4809576 64.377356,36 62.9304876,36 C62.1256379,36 61.448737,35.815478 60.8997644,35.4464286 C60.3507918,35.0773791 60.0437439,34.5000039 59.9786116,33.7142857 L61.2556643,33.7142857 C61.3161443,34.0571446 61.4371026,34.3214276 61.6185427,34.5071429 C61.9023336,34.7928586 62.3489487,34.9357143 62.9584013,34.9357143 C63.9214295,34.9357143 64.5518081,34.5880987 64.8495559,33.8928571 C65.0263437,33.4833313 65.1077579,32.7523862 65.093801,31.7 C64.8425762,32.0904781 64.5401806,32.3809514 64.186605,32.5714286 C63.8330295,32.7619057 63.3654793,32.8571429 62.7839405,32.8571429 C61.9744386,32.8571429 61.266135,32.5630982 60.6590085,31.975 C60.051882,31.3869018 59.7483234,30.4142925 59.7483234,29.0571429 C59.7483234,27.7761841 60.0542082,26.7761941 60.6659869,26.0571429 C61.2777657,25.3380916 62.0163089,24.9785714 62.8816386,24.9785714 Z M65.14265,28.9071429 C65.14265,27.9595191 64.9519081,27.2571451 64.5704187,26.8 C64.1889293,26.3428549 63.7027702,26.1142857 63.1119268,26.1142857 C62.2279878,26.1142857 61.6231966,26.538091 61.2975349,27.3857143 C61.1253994,27.8380975 61.039333,28.4309487 61.039333,29.1642857 C61.039333,30.0261948 61.2103028,30.6821406 61.5522476,31.1321429 C61.8941924,31.5821451 62.3536011,31.8071429 62.9304876,31.8071429 C63.8330357,31.8071429 64.4680666,31.3904804 64.8355991,30.5571429 C65.0403007,30.0857119 65.14265,29.5357174 65.14265,28.9071429 Z M68.2271162,22.2714286 L69.4832336,22.2714286 L69.4832336,32.7642857 L68.2271162,32.7642857 L68.2271162,22.2714286 Z M74.4797897,24.9428571 C75.0101531,24.9428571 75.5242257,25.0702368 76.0220228,25.325 C76.51982,25.5797632 76.8989776,25.9095218 77.159507,26.3142857 C77.4107317,26.7000019 77.5782124,27.1499974 77.661954,27.6642857 C77.7363909,28.0166684 77.7736088,28.5785676 77.7736088,29.35 L72.2955411,29.35 C72.3188026,30.1261944 72.4979139,30.7488072 72.8328802,31.2178571 C73.1678465,31.6869071 73.6865713,31.9214286 74.3890701,31.9214286 C75.0450459,31.9214286 75.5684229,31.7000022 75.959217,31.2571429 C76.1825279,30.9999987 76.340704,30.7023826 76.4337502,30.3642857 L77.6689324,30.3642857 C77.6363662,30.6452395 77.5282016,30.9583316 77.3444354,31.3035714 C77.1606691,31.6488112 76.9548075,31.9309513 76.7268443,32.15 C76.3453549,32.5309543 75.8731525,32.7880946 75.3102229,32.9214286 C75.0078228,32.9976194 74.6658831,33.0357143 74.2843937,33.0357143 C73.3539317,33.0357143 72.5653769,32.6892892 71.9187058,31.9964286 C71.2720347,31.303568 70.948704,30.3333396 70.948704,29.0857143 C70.948704,27.8571367 71.2743608,26.8595276 71.9256842,26.0928571 C72.5770077,25.3261866 73.4283677,24.9428571 74.4797897,24.9428571 Z M76.4825992,28.3285714 C76.4314238,27.7714258 76.3127917,27.3261921 76.1266993,26.9928571 C75.7824283,26.3738064 75.2078767,26.0642857 74.403027,26.0642857 C73.8261406,26.0642857 73.3423076,26.2773788 72.9515135,26.7035714 C72.5607195,27.129764 72.3536948,27.6714253 72.3304332,28.3285714 L76.4825992,28.3285714 Z M83.5866413,22.2714286 L88.1993837,22.2714286 C89.1112365,22.2714286 89.8462905,22.5345212 90.4045677,23.0607143 C90.9628449,23.5869074 91.2419793,24.3261857 91.2419793,25.2785714 C91.2419793,26.0976231 90.9930845,26.8107112 90.4952873,27.4178571 C89.9974901,28.025003 89.2321966,28.3285714 88.1993837,28.3285714 L84.9753489,28.3285714 L84.9753489,32.7642857 L83.5866413,32.7642857 L83.5866413,22.2714286 Z M89.8393148,25.2857143 C89.8393148,24.5142819 89.5601804,23.9904776 89.0019032,23.7142857 C88.6948507,23.5666659 88.273823,23.4928571 87.7388073,23.4928571 L84.9753489,23.4928571 L84.9753489,27.1285714 L87.7388073,27.1285714 C88.3622169,27.1285714 88.868148,26.9928585 89.2566159,26.7214286 C89.6450838,26.4499986 89.8393148,25.971432 89.8393148,25.2857143 Z M92.8539967,22.2714286 L94.1101142,22.2714286 L94.1101142,32.7642857 L92.8539967,32.7642857 L92.8539967,22.2714286 Z M96.9573138,30.7285714 C96.9573138,31.1000019 97.0899026,31.3928561 97.3550843,31.6071429 C97.620266,31.8214296 97.9342922,31.9285714 98.2971724,31.9285714 C98.7391418,31.9285714 99.167148,31.8238106 99.5812036,31.6142857 C100.27905,31.2666649 100.627968,30.697623 100.627968,29.9071429 L100.627968,28.8714286 C100.474442,28.9714291 100.276722,29.0547616 100.034802,29.1214286 C99.7928814,29.1880956 99.5556171,29.2357141 99.3230016,29.2642857 L98.5623527,29.3642857 C98.1064263,29.4261908 97.7644867,29.5238089 97.5365235,29.6571429 C97.1503817,29.8809535 96.9573138,30.2380928 96.9573138,30.7285714 Z M99.9999094,28.1285714 C100.288353,28.090476 100.481421,27.9666677 100.579119,27.7571429 C100.634947,27.6428566 100.66286,27.4785725 100.66286,27.2642857 C100.66286,26.8261883 100.510499,26.5083343 100.205773,26.3107143 C99.9010468,26.1130942 99.4648992,26.0142857 98.8973174,26.0142857 C98.2413417,26.0142857 97.7761176,26.1952363 97.5016313,26.5571429 C97.3481051,26.7571439 97.2480819,27.0547599 97.2015588,27.45 L96.0291825,27.45 C96.0524441,26.5071381 96.3513505,25.8511923 96.9259108,25.4821429 C97.5004711,25.1130934 98.1669046,24.9285714 98.9252311,24.9285714 C99.8045177,24.9285714 100.518637,25.0999983 101.067609,25.4428571 C101.611929,25.785716 101.884086,26.319044 101.884086,27.0428571 L101.884086,31.45 C101.884086,31.583334 101.910836,31.6904758 101.964338,31.7714286 C102.017839,31.8523814 102.130656,31.8928571 102.302791,31.8928571 C102.358619,31.8928571 102.421424,31.8892857 102.491209,31.8821429 C102.560994,31.875 102.635429,31.8642858 102.714519,31.85 L102.714519,32.8 C102.519122,32.8571431 102.37025,32.8928571 102.267899,32.9071429 C102.165548,32.9214286 102.025981,32.9285714 101.849193,32.9285714 C101.416529,32.9285714 101.102502,32.7714301 100.907105,32.4571429 C100.804754,32.2904754 100.732645,32.0547634 100.690774,31.75 C100.434897,32.0928589 100.06737,32.3904749 99.588182,32.6428571 C99.108994,32.8952394 98.5809648,33.0214286 98.0040783,33.0214286 C97.3108841,33.0214286 96.7444738,32.8059545 96.3048305,32.375 C95.8651872,31.9440455 95.6453689,31.4047651 95.6453689,30.7571429 C95.6453689,30.0476155 95.861698,29.497621 96.2943629,29.1071429 C96.7270277,28.7166647 97.294601,28.4761909 97.9970999,28.3857143 L99.9999094,28.1285714 Z M108.611292,25.1142857 L110,25.1142857 C109.823212,25.6047644 109.430098,26.7238008 108.820645,28.4714286 C108.364719,29.7857209 107.983235,30.8571387 107.676183,31.6857143 C106.950422,33.638105 106.438676,34.8285693 106.140928,35.2571429 C105.84318,35.6857164 105.331434,35.9 104.605673,35.9 C104.428886,35.9 104.292808,35.8928572 104.197435,35.8785714 C104.102063,35.8642856 103.984594,35.8380954 103.845024,35.8 L103.845024,34.6285714 C104.063683,34.6904765 104.221859,34.7285714 104.319558,34.7428571 C104.417256,34.7571429 104.503323,34.7642857 104.57776,34.7642857 C104.810375,34.7642857 104.981345,34.7250004 105.090674,34.6464286 C105.200004,34.5678568 105.291885,34.4714291 105.366322,34.3571429 C105.389584,34.3190474 105.473324,34.1238113 105.617546,33.7714286 C105.761767,33.4190459 105.866443,33.1571437 105.931575,32.9857143 L103.168117,25.1142857 L104.591717,25.1142857 L106.594526,31.3428571 L108.611292,25.1142857 Z" id="GooglePlay" fill="#FFFFFF" fill-rule="nonzero"></path>
                <rect id="Rectangle" stroke="#FFFFFF" x="0.5" y="0.5" width="124" height="41" rx="6"></rect>
                <path d="M35.6529459,11.007732 C36.1820043,11.007732 36.6394923,11.1108237 37.0254237,11.3170103 C37.5851521,11.6134035 37.9276292,12.1327282 38.0528652,12.875 L37.297619,12.875 C37.2056089,12.4600495 37.0152019,12.1578618 36.7263923,11.9684278 C36.4375826,11.7789939 36.0733813,11.6842784 35.6337772,11.6842784 C35.1123864,11.6842784 34.6734279,11.8814413 34.3168886,12.2757732 C33.9603493,12.6701051 33.7820823,13.2577281 33.7820823,14.0386598 C33.7820823,14.7139209 33.9290408,15.2635288 34.2229621,15.6875 C34.5168834,16.1114712 34.9960957,16.3234536 35.6606134,16.3234536 C36.169225,16.3234536 36.5902929,16.1746149 36.9238297,15.876933 C37.2573665,15.5792511 37.4279661,15.0979415 37.4356336,14.4329897 L35.6721146,14.4329897 L35.6721146,13.7951031 L38.1448749,13.7951031 L38.1448749,16.8337629 L37.6541566,16.8337629 L37.4701372,16.1030928 C37.2119976,16.3891767 36.9832536,16.5876283 36.7838983,16.6984536 C36.4490836,16.8891762 36.0235431,16.9845361 35.5072639,16.9845361 C34.8401904,16.9845361 34.2664135,16.7667548 33.7859161,16.3311856 C33.2619694,15.7847911 33,15.0347986 33,14.0811856 C33,13.1301499 33.2555799,12.3737141 33.7667474,11.8118557 C34.2523565,11.2757705 34.881083,11.007732 35.6529459,11.007732 Z M39.3985069,11.1546392 L43.5044391,11.1546392 L43.5044391,11.8505155 L40.1422518,11.8505155 L40.1422518,13.5747423 L43.2514124,13.5747423 L43.2514124,14.2319588 L40.1422518,14.2319588 L40.1422518,16.1572165 L43.5619451,16.1572165 L43.5619451,16.8337629 L39.3985069,16.8337629 L39.3985069,11.1546392 Z M48.6608152,11.1546392 L48.6608152,11.8311856 L46.7631154,11.8311856 L46.7631154,16.8337629 L45.9887006,16.8337629 L45.9887006,11.8311856 L44.0910008,11.8311856 L44.0910008,11.1546392 L48.6608152,11.1546392 Z M51.5744552,11.1546392 L52.3450363,11.1546392 L52.3450363,16.8337629 L51.5744552,16.8337629 L51.5744552,11.1546392 Z M57.6815981,11.1546392 L57.6815981,11.8311856 L55.7838983,11.8311856 L55.7838983,16.8337629 L55.0094835,16.8337629 L55.0094835,11.8311856 L53.1117837,11.8311856 L53.1117837,11.1546392 L57.6815981,11.1546392 Z M62.8533091,11 C63.8475299,11 64.5836,11.3221617 65.0615416,11.9664948 C65.4346938,12.4690747 65.6212672,13.1121095 65.6212672,13.8956186 C65.6212672,14.7435609 65.4078579,15.4484508 64.9810331,16.0103093 C64.480089,16.6701064 63.7657431,17 62.8379742,17 C61.9715453,17 61.2904249,16.7113431 60.7945924,16.1340206 C60.3524325,15.5773168 60.1313559,14.8737156 60.1313559,14.0231959 C60.1313559,13.2551508 60.3204851,12.5979409 60.698749,12.0515464 C61.1843581,11.350512 61.9025376,11 62.8533091,11 Z M62.9299839,16.3118557 C63.6021691,16.3118557 64.0884099,16.0689457 64.3887207,15.5831186 C64.6890316,15.0972914 64.8391848,14.538663 64.8391848,13.9072165 C64.8391848,13.2396874 64.6660294,12.7023216 64.3197135,12.2951031 C63.9733975,11.8878846 63.4999357,11.6842784 62.899314,11.6842784 C62.316583,11.6842784 61.8412044,11.8859516 61.4731638,12.2893041 C61.1051233,12.6926567 60.9211057,13.2873672 60.9211057,14.0734536 C60.9211057,14.7023227 61.0789263,15.2326009 61.3945722,15.6643041 C61.7102182,16.0960073 62.2220169,16.3118557 62.9299839,16.3118557 Z M66.5298628,11.1546392 L67.430791,11.1546392 L70.2754237,15.7551546 L70.2754237,11.1546392 L71,11.1546392 L71,16.8337629 L70.1450767,16.8337629 L67.2582728,12.2371134 L67.2582728,16.8337629 L66.5298628,16.8337629 L66.5298628,11.1546392 Z" id="GETITON" fill="#FFFFFF" fill-rule="nonzero"></path>
                <g id="icons8-google_play" transform="translate(8.000000, 9.000000)" fill-rule="nonzero">
                    <path d="M0.41125,0.024725 C0.170333333,0.08625 0,0.291525 0,0.644575 C0,1.680725 0,11.4517 0,11.4517 C0,11.4517 0,22.011 0,22.477325 C0,22.733775 0.114916667,22.9057 0.291666667,22.969525 L12.0639167,11.432725 L0.41125,0.024725 Z" id="Path" fill="#4DB6AC"></path>
                    <path d="M15.3049167,8.257 L10.4591667,5.4993 C10.4591667,5.4993 1.56625,0.437575 1.04358333,0.1403 C0.81725,0.0115 0.594416667,-0.022425 0.41125,0.024725 L12.0645,11.432725 L15.3049167,8.257 Z" id="Path" fill="#DCE775"></path>
                    <path d="M0.826583333,22.88615 C1.13691667,22.70905 9.74225,17.811775 15.3311667,14.630875 L12.0639167,11.432725 L0.291666667,22.969525 C0.436333333,23.02185 0.621833333,23.0023 0.826583333,22.88615 Z" id="Path" fill="#D32F2F"></path>
                    <path d="M20.0655,10.965825 C19.6011667,10.71915 15.3405,8.277125 15.3405,8.277125 L15.3049167,8.257 L12.0639167,11.432725 L15.3311667,14.630875 C17.9165,13.15945 19.8584167,12.054875 20.03225,11.9554 C20.5829167,11.6426 20.5298333,11.2125 20.0655,10.965825 Z" id="Path" fill="#FBC02D"></path>
                </g>
            </g>
        </g>
    </g>
</svg>