<?xml version="1.0" encoding="UTF-8"?>
<svg width="50px" height="50px" viewBox="0 0 50 50" version="1.1" xmlns="http://www.w3.org/2000/svg" xmlns:xlink="http://www.w3.org/1999/xlink">
    <!-- Generator: Sketch 54.1 (76490) - https://sketchapp.com -->
    <title>icons8-no_apple</title>
    <desc>Created with Sketch.</desc>
    <g id="Page-2" stroke="none" stroke-width="1" fill="none" fill-rule="evenodd">
        <g id="Tablet/Fiat/landing-page_2" transform="translate(-397.000000, -1653.000000)" fill="#000000" fill-rule="nonzero">
            <g id="icons8-no_apple" transform="translate(396.000000, 1652.000000)">
                <path d="M1.90625,0.96875 C1.863281,0.9765625 1.820313,0.9882812 1.78125,1 C1.40625,1.0664063 1.105469,1.339844 1,1.703125 C0.894531,2.070313 1.00390625,2.460938 1.28125,2.71875 L49.28125,50.71875 C49.679688,51.117188 50.320313,51.117188 50.71875,50.71875 C51.117188,50.320313 51.117188,49.679688 50.71875,49.28125 L44.15625,42.71875 C47.984375,38.167969 51,31.769531 51,24 C51,16.300781 44.933594,9.855469 37.15625,9.09375 C39.339844,5.917969 39.5,2.0625 39.5,2.0625 C39.515625,1.792969 39.421875,1.527344 39.242188,1.324219 C39.058594,1.125 38.800781,1.0078125 38.53125,1 C38.53125,1 33.003906,0.816406 29.3125,4.28125 C28.300781,5.230469 27.566406,6.304688 27,7.375 L27,1 L25,1 L25,11.59375 C22.484375,9.941406 19.484375,9 16.40625,9 C14.636719,9 12.910156,9.308594 11.3125,9.875 L2.71875,1.28125 C2.511719,1.0585938 2.210938,0.9453125 1.90625,0.96875 Z M37.25,3.15625 C37.046875,4.5 36.519531,7.09375 34.625,9.03125 C32.15625,9.1875 29.785156,9.957031 27.6875,11.1875 C28.113281,9.597656 28.957031,7.347656 30.6875,5.71875 C32.960938,3.585938 35.835938,3.257813 37.25,3.15625 Z M16.40625,11 C19.707031,11 22.914063,12.207031 25.3125,14.40625 L26,15 L26.6875,14.40625 C28.980469,12.390625 31.789063,11.214844 34.78125,11.03125 C34.996094,11.09375 35.226563,11.085938 35.4375,11 C35.488281,11 35.539063,11 35.59375,11 C42.992188,11 49,16.894531 49,24.09375 C49,31.34375 46.175781,37.128906 42.71875,41.28125 L33.28125,31.84375 C33.691406,31.039063 34,30.089844 34,29 C34,27 32.886719,25.394531 32.1875,24.59375 C31.585938,23.894531 30.414063,23.894531 29.8125,24.59375 C29.375,25.09375 28.757813,25.910156 28.375,26.9375 L12.9375,11.5 C14.03125,11.195313 15.1875,11 16.40625,11 Z M7.6875,11.6875 C3.585938,14.488281 1,18.992188 1,24.09375 C1,39.09375 15.488281,51 21.1875,51 C22.886719,51 24.5,50.613281 26,49.8125 C27.5,50.613281 29.113281,51 30.8125,51 C33.511719,51 37.601563,49.09375 41.5,45.59375 L40,44.09375 C36.398438,47.292969 32.8125,49 30.8125,49 C29.3125,49 27.898438,48.613281 26.5,47.8125 L26,47.5 L25.5,47.8125 C24.101563,48.613281 22.6875,49 21.1875,49 C16.6875,49 3,37.792969 3,24.09375 C3,19.492188 5.394531,15.492188 9.09375,13.09375 L7.6875,11.6875 Z M20.6875,24.8125 C19.988281,25.613281 19,27.199219 19,29 C19,31 20.113281,32.605469 20.8125,33.40625 C21.113281,33.804688 21.5,34 22,34 C22.5,34 22.886719,33.804688 23.1875,33.40625 C23.886719,32.605469 24.898438,30.992188 25,29.09375 L20.6875,24.8125 Z M22,26.3125 C22.5,27.011719 23,27.898438 23,29 C23,30.101563 22.5,31.085938 22,31.6875 C21.5,30.988281 21,30.101563 21,29 C21,27.898438 21.5,26.914063 22,26.3125 Z M31,26.3125 C31.5,27.011719 32,27.898438 32,29 C32,29.464844 31.890625,29.90625 31.75,30.3125 L30.03125,28.59375 C30.132813,27.65625 30.5625,26.835938 31,26.3125 Z" id="Shape"></path>
            </g>
        </g>
    </g>
</svg>