<?xml version="1.0" encoding="UTF-8"?>
<svg width="51px" height="64px" viewBox="0 0 51 64" version="1.1" xmlns="http://www.w3.org/2000/svg" xmlns:xlink="http://www.w3.org/1999/xlink">
    <!-- Generator: Sketch 54.1 (76490) - https://sketchapp.com -->
    <title>icons8-geography_filled</title>
    <desc>Created with Sketch.</desc>
    <g id="Page-2" stroke="none" stroke-width="1" fill="none" fill-rule="evenodd">
        <g id="Tablet/Fiat/landing-page_2" transform="translate(-396.000000, -1871.000000)" fill="#000000" fill-rule="nonzero">
            <g id="icons8-geography_filled" transform="translate(396.000000, 1871.000000)">
                <path d="M15.738281,0.125 C15.609375,0.125 15.480469,0.152344 15.351563,0.207031 C14.84375,0.425781 14.613281,1.015625 14.832031,1.523438 L15.328125,2.660156 C2.308594,8.898438 -3.5625,24.421875 2.238281,37.765625 C5.113281,44.382813 10.390625,49.476563 17.105469,52.121094 C19.988281,53.257813 22.988281,53.878906 26,53.988281 L26,58 L16.1875,58 C14,58 11.90625,59.046875 10.589844,60.800781 L9.390625,62.402344 C9.160156,62.703125 9.125,63.109375 9.296875,63.449219 C9.464844,63.785156 9.8125,64 10.1875,64 L48.1875,64 C48.570313,64 48.914063,63.785156 49.082031,63.449219 C49.253906,63.109375 49.214844,62.703125 48.988281,62.402344 L47.789063,60.800781 C46.476563,59.046875 44.382813,58 42.1875,58 L32,58 L32,53.535156 C33.636719,53.222656 35.257813,52.757813 36.839844,52.136719 L37.332031,53.273438 C37.496094,53.648438 37.863281,53.875 38.25,53.875 C38.386719,53.875 38.519531,53.847656 38.648438,53.792969 C39.15625,53.574219 39.386719,52.984375 39.167969,52.476563 L38.667969,51.328125 C43.621094,48.957031 47.675781,45.226563 50.410156,40.453125 C50.6875,39.972656 50.523438,39.359375 50.042969,39.085938 C49.566406,38.8125 48.953125,38.976563 48.675781,39.453125 C46.15625,43.851563 42.425781,47.296875 37.871094,49.492188 L36.269531,45.8125 C40.972656,43.503906 44.605469,39.601563 46.539063,34.699219 C46.921875,33.722656 47.207031,32.730469 47.4375,31.730469 C47.449219,31.683594 47.46875,31.648438 47.472656,31.597656 C47.472656,31.59375 47.472656,31.585938 47.472656,31.578125 C48.351563,27.6875 48.101563,23.652344 46.726563,19.863281 C46.71875,19.753906 46.703125,19.648438 46.65625,19.542969 L45.859375,17.707031 C45.8125,17.601563 45.742188,17.519531 45.671875,17.4375 C43.839844,13.851563 41.0625,10.917969 37.621094,8.90625 C37.613281,8.898438 37.609375,8.890625 37.605469,8.882813 C37.550781,8.84375 37.488281,8.828125 37.433594,8.796875 C36.554688,8.296875 35.652344,7.835938 34.695313,7.460938 C29.789063,5.527344 24.457031,5.523438 19.5625,7.386719 L16.667969,0.726563 C16.503906,0.347656 16.128906,0.121094 15.738281,0.125 Z M16.125,4.492188 L17.730469,8.1875 C13.03125,10.496094 9.394531,14.398438 7.464844,19.300781 C7.089844,20.25 6.808594,21.21875 6.578125,22.195313 C6.558594,22.261719 6.527344,22.324219 6.519531,22.398438 C6.519531,22.410156 6.523438,22.421875 6.523438,22.433594 C5.550781,26.746094 5.945313,31.242188 7.742188,35.375 C9.539063,39.507813 12.558594,42.859375 16.375,45.089844 C16.382813,45.097656 16.386719,45.105469 16.394531,45.113281 C16.492188,45.1875 16.59375,45.242188 16.703125,45.277344 C17.539063,45.746094 18.398438,46.179688 19.300781,46.535156 C21.796875,47.519531 24.402344,48.011719 27.003906,48.011719 C29.519531,48.011719 32.027344,47.523438 34.4375,46.609375 L36.042969,50.300781 C33.332031,51.359375 30.507813,51.925781 27.667969,52 L27,52 C26.988281,52 26.980469,52.003906 26.96875,52.003906 C23.882813,52 20.792969,51.425781 17.839844,50.261719 C11.625,47.8125 6.734375,43.09375 4.070313,36.96875 C-1.289062,24.636719 4.117188,10.289063 16.125,4.492188 Z M26.996094,7.992188 C29.347656,7.992188 31.707031,8.433594 33.964844,9.320313 C34.457031,9.515625 34.929688,9.742188 35.402344,9.972656 C34.410156,11.082031 33.25,12.164063 31.941406,13.199219 C29.972656,10.789063 27.8125,9.039063 25.640625,8.0625 C26.089844,8.027344 26.542969,7.992188 26.996094,7.992188 Z M21.574219,9.164063 C24.375,9.117188 27.539063,11.027344 30.328125,14.398438 C28.457031,15.707031 26.371094,16.902344 24.148438,17.933594 L20.394531,9.300781 C20.78125,9.214844 21.171875,9.167969 21.574219,9.164063 Z M18.5625,10.097656 L22.3125,18.730469 C20.042969,19.652344 17.746094,20.363281 15.515625,20.839844 C14.867188,15.878906 15.957031,11.863281 18.5625,10.097656 Z M37.1875,10.964844 C40.375,12.976563 42.886719,15.890625 44.421875,19.421875 C45.960938,22.957031 46.378906,26.78125 45.675781,30.484375 C43.921875,30.410156 42.058594,30.519531 40.125,30.816406 C39.902344,29.785156 39.621094,28.726563 39.269531,27.644531 C39.097656,27.121094 38.535156,26.832031 38.011719,27 C37.484375,27.171875 37.195313,27.738281 37.367188,28.261719 C37.6875,29.253906 37.949219,30.226563 38.152344,31.171875 C35.773438,31.675781 33.328125,32.4375 30.890625,33.4375 L29.882813,31.121094 C29.660156,30.613281 29.074219,30.382813 28.566406,30.605469 C28.058594,30.824219 27.828125,31.414063 28.046875,31.921875 L29.054688,34.234375 C26.660156,35.335938 24.433594,36.609375 22.449219,38.003906 C21.894531,37.207031 21.359375,36.355469 20.851563,35.441406 C20.582031,34.960938 19.976563,34.789063 19.492188,35.054688 C19.011719,35.324219 18.835938,35.929688 19.105469,36.410156 C19.65625,37.40625 20.242188,38.332031 20.847656,39.199219 C19.3125,40.410156 17.957031,41.699219 16.8125,43.035156 C13.625,41.023438 11.113281,38.109375 9.578125,34.578125 C8.039063,31.042969 7.621094,27.214844 8.324219,23.511719 C8.667969,23.527344 9.007813,23.550781 9.363281,23.550781 C10.808594,23.550781 12.324219,23.417969 13.875,23.183594 C14.097656,24.214844 14.378906,25.273438 14.730469,26.355469 C14.867188,26.777344 15.257813,27.046875 15.683594,27.046875 C15.785156,27.046875 15.886719,27.03125 15.988281,27 C16.515625,26.828125 16.804688,26.261719 16.636719,25.738281 C16.3125,24.746094 16.054688,23.773438 15.851563,22.824219 C18.230469,22.324219 20.671875,21.566406 23.113281,20.566406 L24.121094,22.878906 C24.28125,23.253906 24.648438,23.480469 25.035156,23.480469 C25.171875,23.480469 25.304688,23.453125 25.4375,23.398438 C25.941406,23.179688 26.171875,22.589844 25.953125,22.082031 L24.949219,19.765625 C27.34375,18.664063 29.566406,17.394531 31.550781,16 C32.109375,16.792969 32.644531,17.644531 33.152344,18.558594 C33.417969,19.039063 34.023438,19.214844 34.511719,18.949219 C34.992188,18.679688 35.167969,18.070313 34.898438,17.589844 C34.347656,16.59375 33.761719,15.664063 33.15625,14.800781 C34.691406,13.585938 36.042969,12.296875 37.1875,10.964844 Z M14.074219,13.09375 C13.308594,15.351563 13.113281,18.117188 13.535156,21.203125 C11.886719,21.453125 10.304688,21.5625 8.816406,21.53125 C8.96875,21.027344 9.128906,20.527344 9.324219,20.035156 C10.382813,17.347656 12.015625,15.003906 14.074219,13.09375 Z M40.347656,19.101563 C40.21875,19.101563 40.085938,19.128906 39.957031,19.1875 C39.453125,19.40625 39.21875,19.992188 39.4375,20.5 L40.234375,22.332031 C40.398438,22.710938 40.765625,22.9375 41.15625,22.9375 C41.289063,22.9375 41.421875,22.910156 41.550781,22.855469 C42.058594,22.632813 42.289063,22.042969 42.070313,21.535156 L41.273438,19.703125 C41.109375,19.324219 40.738281,19.097656 40.347656,19.101563 Z M35.761719,21.09375 C35.632813,21.097656 35.5,21.125 35.375,21.179688 C34.867188,21.398438 34.632813,21.988281 34.855469,22.496094 L35.652344,24.328125 C35.816406,24.703125 36.183594,24.929688 36.570313,24.929688 C36.703125,24.929688 36.835938,24.902344 36.96875,24.847656 C37.472656,24.628906 37.707031,24.039063 37.484375,23.53125 L36.6875,21.699219 C36.523438,21.316406 36.152344,21.089844 35.761719,21.09375 Z M31.175781,23.089844 C31.046875,23.089844 30.914063,23.117188 30.785156,23.171875 C30.28125,23.390625 30.050781,23.980469 30.269531,24.488281 L31.066406,26.324219 C31.230469,26.699219 31.597656,26.921875 31.984375,26.921875 C32.121094,26.921875 32.253906,26.898438 32.382813,26.84375 C32.890625,26.621094 33.121094,26.03125 32.902344,25.527344 L32.105469,23.6875 C31.9375,23.308594 31.566406,23.082031 31.175781,23.089844 Z M26.59375,25.082031 C26.460938,25.082031 26.328125,25.109375 26.203125,25.167969 C25.695313,25.386719 25.464844,25.972656 25.6875,26.480469 L26.484375,28.3125 C26.644531,28.691406 27.011719,28.917969 27.402344,28.917969 C27.535156,28.917969 27.667969,28.890625 27.796875,28.832031 C28.304688,28.613281 28.535156,28.027344 28.316406,27.519531 L27.519531,25.6875 C27.355469,25.304688 26.980469,25.078125 26.59375,25.082031 Z M22.003906,27.078125 C21.875,27.078125 21.742188,27.105469 21.617188,27.160156 C21.109375,27.378906 20.878906,27.96875 21.097656,28.476563 L21.894531,30.3125 C22.058594,30.6875 22.425781,30.910156 22.8125,30.910156 C22.949219,30.910156 23.082031,30.882813 23.214844,30.828125 C23.71875,30.609375 23.949219,30.019531 23.730469,29.515625 L22.933594,27.675781 C22.769531,27.300781 22.394531,27.074219 22.003906,27.078125 Z M17.421875,29.066406 C17.292969,29.070313 17.160156,29.097656 17.03125,29.152344 C16.527344,29.371094 16.292969,29.960938 16.515625,30.46875 L17.3125,32.300781 C17.476563,32.679688 17.84375,32.90625 18.230469,32.90625 C18.363281,32.90625 18.496094,32.878906 18.625,32.824219 C19.132813,32.601563 19.367188,32.011719 19.144531,31.503906 L18.347656,29.671875 C18.183594,29.292969 17.8125,29.0625 17.421875,29.066406 Z M12.835938,31.0625 C12.707031,31.066406 12.574219,31.089844 12.449219,31.144531 C11.941406,31.367188 11.710938,31.957031 11.929688,32.464844 L12.726563,34.296875 C12.890625,34.675781 13.257813,34.898438 13.644531,34.898438 C13.777344,34.898438 13.910156,34.871094 14.042969,34.8125 C14.546875,34.59375 14.78125,34.007813 14.5625,33.5 L13.765625,31.667969 C13.597656,31.285156 13.226563,31.0625 12.835938,31.0625 Z M45.1875,32.46875 C45.03125,32.972656 44.871094,33.472656 44.675781,33.964844 C43.617188,36.652344 41.984375,38.996094 39.925781,40.90625 C40.691406,38.648438 40.886719,35.882813 40.464844,32.796875 C42.113281,32.546875 43.699219,32.4375 45.1875,32.46875 Z M38.484375,33.160156 C39.132813,38.121094 38.042969,42.136719 35.4375,43.902344 L31.6875,35.269531 C33.953125,34.347656 36.25,33.636719 38.484375,33.160156 Z M29.855469,36.066406 L33.605469,44.699219 C30.539063,45.398438 26.859375,43.457031 23.671875,39.601563 C25.542969,38.292969 27.632813,37.097656 29.855469,36.066406 Z M22.050781,40.804688 C24.019531,43.214844 26.175781,44.957031 28.347656,45.9375 C25.550781,46.140625 22.722656,45.738281 20.035156,44.675781 C19.542969,44.484375 19.070313,44.257813 18.597656,44.027344 C19.585938,42.917969 20.746094,41.835938 22.050781,40.804688 Z M28,54 L30,54 L30,58 L28,58 L28,54 Z M16.1875,60 L42.1875,60 C43.753906,60 45.25,60.746094 46.1875,62 L12.1875,62 C13.128906,60.746094 14.625,60 16.1875,60 Z" id="Shape"></path>
            </g>
        </g>
    </g>
</svg>