<?xml version="1.0" encoding="UTF-8"?>
<svg width="46px" height="46px" viewBox="0 0 46 46" version="1.1" xmlns="http://www.w3.org/2000/svg" xmlns:xlink="http://www.w3.org/1999/xlink">
    <!-- Generator: Sketch 54.1 (76490) - https://sketchapp.com -->
    <title>icons8-checked</title>
    <desc>Created with Sketch.</desc>
    <g id="Page-2" stroke="none" stroke-width="1" fill="none" fill-rule="evenodd">
        <g id="Tablet/Fiat/landing-page_2" transform="translate(-396.000000, -1439.000000)" fill="#000000" fill-rule="nonzero">
            <g id="icons8-checked" transform="translate(396.000000, 1439.000000)">
                <path d="M23,0 C10.317,0 0,10.317 0,23 C0,35.683 10.317,46 23,46 C35.683,46 46,35.683 46,23 C46,18.44 44.660281,14.189328 42.363281,10.611328 L40.994141,12.228516 C42.889141,15.382516 44,19.06 44,23 C44,34.579 34.579,44 23,44 C11.421,44 2,34.579 2,23 C2,11.421 11.421,2 23,2 C28.443,2 33.393906,4.0997656 37.128906,7.5097656 L38.4375,5.9648438 C34.3525,2.2598437 28.935,0 23,0 Z M41.236328,5.7539062 L21.914062,28.554688 L13.78125,20.96875 L12.417969,22.431641 L22.083984,31.447266 L42.763672,7.046875 L41.236328,5.7539062 Z" id="Shape"></path>
            </g>
        </g>
    </g>
</svg>