<?xml version="1.0" encoding="UTF-8"?>
<svg width="19px" height="19px" viewBox="0 0 19 19" version="1.1" xmlns="http://www.w3.org/2000/svg" xmlns:xlink="http://www.w3.org/1999/xlink">
    <!-- Generator: Sketch 54.1 (76490) - https://sketchapp.com -->
    <title>icons8-instagram_new</title>
    <desc>Created with Sketch.</desc>
    <g id="Page-2" stroke="none" stroke-width="1" fill="none" fill-rule="evenodd">
        <g id="Tablet/Fiat/landing-page_2" transform="translate(-442.000000, -4114.000000)" fill="#FFFFFF" fill-rule="nonzero">
            <g id="Group-8" transform="translate(307.000000, 4114.000000)">
                <g id="icons8-instagram_new" transform="translate(135.000000, 0.000000)">
                    <path d="M5.51502404,0 C2.47776442,0 0,2.47776442 0,5.51502404 L0,13.484976 C0,16.5222356 2.47776442,19 5.51502404,19 L13.484976,19 C16.5222356,19 19,16.5222356 19,13.484976 L19,5.51502404 C19,2.47776442 16.5222356,0 13.484976,0 L5.51502404,0 Z M5.51502404,1.46153846 L13.484976,1.46153846 C15.7315206,1.46153846 17.5384615,3.265625 17.5384615,5.51502404 L17.5384615,13.484976 C17.5384615,15.7315206 15.734375,17.5384615 13.484976,17.5384615 L5.51502404,17.5384615 C3.26847938,17.5384615 1.46153846,15.734375 1.46153846,13.484976 L1.46153846,5.51502404 C1.46153846,3.26847938 3.265625,1.46153846 5.51502404,1.46153846 Z M14.9807692,2.92307692 C14.375601,2.92307692 13.8846154,3.4140625 13.8846154,4.01923077 C13.8846154,4.62439904 14.375601,5.11538462 14.9807692,5.11538462 C15.5859375,5.11538462 16.0769231,4.62439904 16.0769231,4.01923077 C16.0769231,3.4140625 15.5859375,2.92307692 14.9807692,2.92307692 Z M9.5,4.38461538 C6.68254188,4.38461538 4.38461538,6.68254188 4.38461538,9.5 C4.38461538,12.3174581 6.68254188,14.6153846 9.5,14.6153846 C12.3174581,14.6153846 14.6153846,12.3174581 14.6153846,9.5 C14.6153846,6.68254188 12.3174581,4.38461538 9.5,4.38461538 Z M9.5,5.84615385 C11.5267432,5.84615385 13.1538462,7.47325758 13.1538462,9.5 C13.1538462,11.5267432 11.5267432,13.1538462 9.5,13.1538462 C7.47325758,13.1538462 5.84615385,11.5267432 5.84615385,9.5 C5.84615385,7.47325758 7.47325758,5.84615385 9.5,5.84615385 Z" id="Shape"></path>
                </g>
            </g>
        </g>
    </g>
</svg>