<?xml version="1.0" encoding="UTF-8"?>
<svg width="19px" height="19px" viewBox="0 0 19 19" version="1.1" xmlns="http://www.w3.org/2000/svg" xmlns:xlink="http://www.w3.org/1999/xlink">
    <!-- Generator: Sketch 54.1 (76490) - https://sketchapp.com -->
    <title>icons8-linkedin</title>
    <desc>Created with Sketch.</desc>
    <g id="Page-2" stroke="none" stroke-width="1" fill="none" fill-rule="evenodd">
        <g id="Tablet/Fiat/landing-page_2" transform="translate(-395.000000, -4114.000000)" fill-rule="nonzero">
            <g id="Group-8" transform="translate(307.000000, 4114.000000)">
                <g id="icons8-linkedin" transform="translate(88.000000, 0.000000)">
                    <g id="Group">
                        <path d="M18.4722222,15.9066358 C18.4722222,17.3238657 17.3238657,18.4722222 15.9066358,18.4722222 L2.56558642,18.4722222 C1.1488696,18.4722222 0,17.3238657 0,15.9066358 L0,2.56558642 C0,1.14835648 1.1488696,0 2.56558642,0 L15.9066358,0 C17.3238657,0 18.4722222,1.14835648 18.4722222,2.56558642 L18.4722222,15.9066358 Z" id="Path" fill="#FFFFFF"></path>
                        <rect id="Rectangle" fill="#604EE3" x="3.45454545" y="5.18181818" width="2.56558642" height="8.72299383"></rect>
                        <path d="M4.44176312,4.00498036 L4.42739583,4.00498036 C3.66182485,4.00498036 3.16666667,3.43439394 3.16666667,2.72167403 C3.16666667,1.99356061 3.67721836,1.43939394 4.45664352,1.43939394 C5.23709491,1.43939394 5.7178858,1.99356061 5.73225309,2.72167403 C5.73225309,3.43388082 5.23709491,4.00498036 4.44176312,4.00498036 Z" id="Path" fill="#604EE3"></path>
                        <path d="M15.1189675,13.904812 L12.553381,13.904812 L12.553381,9.23595784 C12.553381,8.10812605 11.9248124,7.33845013 10.9155107,7.33845013 C10.1453216,7.33845013 9.72867038,7.85772482 9.52650217,8.35955352 C9.45261329,8.53914457 9.47467733,9.0358421 9.47467733,9.28675645 L9.47467733,13.904812 L6.90909091,13.904812 L6.90909091,5.18181818 L9.47467733,5.18181818 L9.47467733,6.524133 C9.84463489,5.95149411 10.4239443,5.18181818 11.905827,5.18181818 C13.7417607,5.18181818 15.1184543,6.33633207 15.1184543,8.91423331 L15.1189675,13.904812 L15.1189675,13.904812 Z" id="Path" fill="#604EE3"></path>
                    </g>
                </g>
            </g>
        </g>
    </g>
</svg>