<?xml version="1.0" encoding="UTF-8"?>
<svg width="96px" height="96px" viewBox="0 0 96 96" version="1.1" xmlns="http://www.w3.org/2000/svg" xmlns:xlink="http://www.w3.org/1999/xlink">
    <!-- Generator: Sketch 54.1 (76490) - https://sketchapp.com -->
    <title>icons8-checked</title>
    <desc>Created with Sketch.</desc>
    <g id="Page-2" stroke="none" stroke-width="1" fill="none" fill-rule="evenodd">
        <g id="Tablet/Fiat/Signup4-" transform="translate(-396.000000, -457.000000)" fill="#5B4AE2" fill-rule="nonzero">
            <g id="icons8-checked" transform="translate(396.000000, 457.000000)">
                <path d="M48,0 C21.5311304,0 0,21.5311304 0,48 C0,74.4688696 21.5311304,96 48,96 C74.4688696,96 96,74.4688696 96,48 C96,38.4834783 93.2040647,29.6125106 88.4103256,22.1453802 L85.5529899,25.5203812 C89.5077725,32.1026421 91.826087,39.7773913 91.826087,48 C91.826087,72.1648696 72.1648696,91.826087 48,91.826087 C23.8351304,91.826087 4.17391304,72.1648696 4.17391304,48 C4.17391304,23.8351304 23.8351304,4.17391304 48,4.17391304 C59.3593043,4.17391304 69.6916299,8.55603256 77.4864125,15.6725543 L80.2173913,12.4483697 C71.6921739,4.71619555 60.386087,0 48,0 Z M86.0584237,12.0081521 L45.7336946,59.5923923 L28.7608696,43.7608696 L25.9157614,46.8138595 L46.0883144,65.6290769 L89.2459242,14.7065217 L86.0584237,12.0081521 Z" id="Shape"></path>
            </g>
        </g>
    </g>
</svg>