<?xml version="1.0" encoding="UTF-8"?>
<svg width="24px" height="19px" viewBox="0 0 24 19" version="1.1" xmlns="http://www.w3.org/2000/svg" xmlns:xlink="http://www.w3.org/1999/xlink">
    <!-- Generator: Sketch 54.1 (76490) - https://sketchapp.com -->
    <title>icons8-twitter</title>
    <desc>Created with Sketch.</desc>
    <g id="Page-2" stroke="none" stroke-width="1" fill="none" fill-rule="evenodd">
        <g id="Tablet/Fiat/landing-page_2" transform="translate(-307.000000, -4114.000000)" fill="#FFFFFF" fill-rule="nonzero">
            <g id="Group-8" transform="translate(307.000000, 4114.000000)">
                <g id="icons8-twitter">
                    <path d="M24,2.24658621 C23.1180735,2.63051724 22.1694859,2.88668966 21.1689026,3.00789655 C22.1861512,2.41431034 22.9687526,1.46758621 23.3360553,0.349206897 C22.3841347,0.897586207 21.3295559,1.30051724 20.2076494,1.5127931 C19.311724,0.579172414 18.0338305,0 16.6179485,0 C13.8981752,0 11.6936922,2.14765517 11.6936922,4.79586207 C11.6936922,5.17062069 11.7383551,5.53555172 11.8223481,5.89 C7.73068911,5.6882069 4.1016582,3.77641379 1.67386051,0.875310345 C1.2472294,1.5842069 1.0072494,2.41431034 1.0072494,3.29027586 C1.0072494,4.95506897 1.87451046,6.42068966 3.19706691,7.2842069 C2.38980085,7.25996552 1.62986418,7.03917241 0.964586284,6.68537931 C0.964586284,6.6997931 0.964586284,6.72141379 0.964586284,6.74172414 C0.964586284,9.06824138 2.6624448,11.0055862 4.91292392,11.4465172 C4.50162486,11.5572414 4.06699442,11.6188276 3.61903175,11.6188276 C3.30105825,11.6188276 2.99108408,11.5834483 2.69110907,11.5303793 C3.31772352,13.4316897 5.13557204,14.8213103 7.28939255,14.8625862 C5.60419965,16.1467241 3.48170986,16.9158966 1.17390217,16.9158966 C0.775268728,16.9158966 0.385301225,16.8936207 0,16.8477586 C2.18048496,18.2046207 4.76960253,19 7.54870427,19 C16.6046163,19 21.5588701,11.6908966 21.5588701,5.35013793 C21.5588701,5.14244828 21.552204,4.93541379 21.5422048,4.731 C22.5087909,4.06010345 23.3420548,3.21362069 24,2.24658621" id="Path"></path>
                </g>
            </g>
        </g>
    </g>
</svg>