<?xml version="1.0" encoding="UTF-8"?>
<svg width="110px" height="40px" viewBox="0 0 110 40" version="1.1" xmlns="http://www.w3.org/2000/svg" xmlns:xlink="http://www.w3.org/1999/xlink">
    <!-- Generator: Sketch 54.1 (76490) - https://sketchapp.com -->
    <title>Group 7</title>
    <desc>Created with Sketch.</desc>
    <g id="Page-2" stroke="none" stroke-width="1" fill="none" fill-rule="evenodd">
        <g id="Mobile/Fiat/Landing-page2" transform="translate(-21.000000, -3724.000000)">
            <g id="Group-7" transform="translate(21.000000, 3724.000000)">
                <rect id="Rectangle" stroke="#FFFFFF" x="0.5" y="0.5" width="109" height="39" rx="6"></rect>
                <path d="M39.0192499,14.1711831 C39.2642291,14.1711831 39.4655457,14.1434239 39.6232057,14.0879048 C39.904568,13.9847979 40.1349906,13.7865183 40.3144804,13.4930601 C40.4575871,13.2577649 40.5606709,12.9563799 40.6237349,12.5888962 C40.6601179,12.3694635 40.6783092,12.1658965 40.6783092,11.978189 C40.6783092,11.2564405 40.5467258,10.6959703 40.2835549,10.2967614 C40.0203841,9.89755253 39.5965278,9.69795109 39.0119733,9.69795109 L37.7276576,9.69795109 L37.7276576,14.1711831 L39.0192499,14.1711831 Z M37,9.01982816 L39.1647814,9.01982816 C39.8997192,9.01982816 40.469712,9.30402888 40.8747767,9.87243886 C41.2361818,10.3853297 41.4168817,11.0422961 41.4168817,11.8433576 C41.4168817,12.4619991 41.3101596,13.0211475 41.0967123,13.5208196 C40.720754,14.4038379 40.074358,14.8453404 39.1575048,14.8453404 L37,14.8453404 L37,9.01982816 Z M43.8072369,14.3853272 C44.2414081,14.3853272 44.5391384,14.2062146 44.7004366,13.8479841 C44.8617348,13.4897537 44.9423827,13.0912117 44.9423827,12.6523463 C44.9423827,12.2557812 44.8841707,11.9332465 44.7677449,11.6847323 C44.5834041,11.2934548 44.2656634,11.0978189 43.8145135,11.0978189 C43.4142998,11.0978189 43.1232396,11.2643737 42.9413243,11.5974884 C42.759409,11.9306031 42.6684527,12.3324497 42.6684527,12.8030403 C42.6684527,13.2551245 42.759409,13.6318557 42.9413243,13.9332452 C43.1232396,14.2346347 43.4118743,14.3853272 43.8072369,14.3853272 Z M43.8327049,10.4752148 C44.3347912,10.4752148 44.7592538,10.657632 45.1061057,11.0224719 C45.4529576,11.3873118 45.6263809,11.9239885 45.6263809,12.6325182 C45.6263809,13.3172539 45.4735743,13.8830116 45.1679566,14.3298083 C44.8623389,14.776605 44.3881534,15 43.745386,15 C43.2093422,15 42.7836668,14.8023814 42.4683469,14.4071381 C42.153027,14.0118949 41.9953695,13.4811666 41.9953695,12.8149372 C41.9953695,12.10112 42.1615163,11.5327186 42.4938149,11.1097158 C42.8261135,10.686713 43.2724057,10.4752148 43.8327049,10.4752148 Z M46.7069524,10.5981494 L47.4564398,13.9451421 L48.216842,10.5981494 L48.9517761,10.5981494 L49.7158166,13.9253139 L50.5126017,10.5981494 L51.1674936,10.5981494 L50.035986,14.8453404 L49.3556261,14.8453404 L48.5624793,11.5578321 L47.7948006,14.8453404 L47.1144407,14.8453404 L45.9902097,10.5981494 L46.7069524,10.5981494 Z M51.7860025,10.5981494 L52.4081498,10.5981494 L52.4081498,11.2009253 C52.5924906,10.9524112 52.7877435,10.7739596 52.9939141,10.6655651 C53.2000848,10.5571706 53.4292947,10.5029742 53.6815506,10.5029742 C54.2345731,10.5029742 54.6081003,10.7131506 54.8021433,11.1335096 C54.9088669,11.3635173 54.962228,11.6926614 54.962228,12.1209518 L54.962228,14.8453404 L54.2964212,14.8453404 L54.2964212,12.1685393 C54.2964212,11.9094501 54.2612515,11.7005956 54.1909109,11.5419696 C54.0744851,11.2775929 53.8634665,11.1454065 53.5578488,11.1454065 C53.4026144,11.1454065 53.2752756,11.1625907 53.1758285,11.1969597 C52.9963388,11.2551226 52.8386812,11.3714466 52.7028511,11.5459352 C52.5937019,11.6860549 52.522756,11.830799 52.4900112,11.9801718 C52.4572665,12.1295447 52.4408944,12.3430257 52.4408944,12.6206213 L52.4408944,14.8453404 L51.7860025,14.8453404 L51.7860025,10.5981494 Z M55.948204,9.01982816 L56.6030959,9.01982816 L56.6030959,14.8453404 L55.948204,14.8453404 L55.948204,9.01982816 Z M59.131706,14.3853272 C59.5658772,14.3853272 59.8636075,14.2062146 60.0249057,13.8479841 C60.186204,13.4897537 60.2668519,13.0912117 60.2668519,12.6523463 C60.2668519,12.2557812 60.2086399,11.9332465 60.0922141,11.6847323 C59.9078732,11.2934548 59.5901326,11.0978189 59.1389826,11.0978189 C58.7387689,11.0978189 58.4477088,11.2643737 58.2657935,11.5974884 C58.0838782,11.9306031 57.9929219,12.3324497 57.9929219,12.8030403 C57.9929219,13.2551245 58.0838782,13.6318557 58.2657935,13.9332452 C58.4477088,14.2346347 58.7363434,14.3853272 59.131706,14.3853272 Z M59.157174,10.4752148 C59.6592603,10.4752148 60.083723,10.657632 60.4305748,11.0224719 C60.7774267,11.3873118 60.95085,11.9239885 60.95085,12.6325182 C60.95085,13.3172539 60.7980435,13.8830116 60.4924257,14.3298083 C60.186808,14.776605 59.7126226,15 59.0698551,15 C58.5338113,15 58.1081359,14.8023814 57.792816,14.4071381 C57.4774962,14.0118949 57.3198386,13.4811666 57.3198386,12.8149372 C57.3198386,12.10112 57.4859854,11.5327186 57.8182841,11.1097158 C58.1505827,10.686713 58.5968749,10.4752148 59.157174,10.4752148 Z M62.2315274,13.7151355 C62.2315274,13.9213493 62.3006542,14.0839386 62.4389098,14.2029081 C62.5771655,14.3218777 62.7408868,14.3813615 62.9300787,14.3813615 C63.1605048,14.3813615 63.3836509,14.3231995 63.5995237,14.2068738 C63.9633543,14.0138787 64.1452669,13.6979533 64.1452669,13.2590879 L64.1452669,12.6840714 C64.0652242,12.7395905 63.9621404,12.7858557 63.8360124,12.8228685 C63.7098845,12.8598812 63.5861839,12.8863185 63.4649071,12.9021811 L63.0683337,12.9576999 C62.830631,12.9920689 62.6523567,13.0462653 62.5335053,13.1202908 C62.3321857,13.2445479 62.2315274,13.4428275 62.2315274,13.7151355 Z M63.817821,12.2716457 C63.9682043,12.2504956 64.0688626,12.1817587 64.1197989,12.0654329 C64.1489054,12.0019825 64.1634584,11.9107739 64.1634584,11.7918044 C64.1634584,11.5485778 64.0840232,11.3721089 63.9251505,11.2623926 C63.7662778,11.1526763 63.5388871,11.0978189 63.2429715,11.0978189 C62.9009707,11.0978189 62.6584206,11.1982806 62.5153139,11.3992069 C62.4352711,11.5102451 62.3831229,11.6754781 62.3588675,11.8949108 L61.7476351,11.8949108 C61.7597628,11.3714448 61.9156012,11.0072713 62.2151551,10.8023794 C62.514709,10.5974874 62.862162,10.495043 63.2575246,10.495043 C63.7159512,10.495043 64.0882656,10.5902172 64.3744791,10.7805684 C64.6582669,10.9709197 64.8001588,11.2670172 64.8001588,11.6688698 L64.8001588,14.1156642 C64.8001588,14.1896897 64.8141054,14.2491736 64.8419991,14.2941176 C64.8698928,14.3390617 64.9287112,14.3615334 65.018456,14.3615334 C65.0475625,14.3615334 65.0803068,14.3595506 65.1166898,14.3555849 C65.1530729,14.3516193 65.1918809,14.3456709 65.233115,14.3377396 L65.233115,14.8651685 C65.1312425,14.8968937 65.0536264,14.9167217 65.0002646,14.924653 C64.9469028,14.9325843 64.8741377,14.9365499 64.7819673,14.9365499 C64.5563923,14.9365499 64.392671,14.8493069 64.2907984,14.6748182 C64.2374366,14.5822864 64.1998413,14.4514219 64.1780115,14.2822208 C64.0446069,14.472572 63.8529924,14.637805 63.603162,14.7779247 C63.3533316,14.9180443 63.0780373,14.9881031 62.7772706,14.9881031 C62.4158655,14.9881031 62.1205608,14.8684744 61.8913475,14.6292135 C61.6621342,14.3899525 61.5475293,14.0905504 61.5475293,13.730998 C61.5475293,13.3370767 61.6603151,13.0317261 61.8858901,12.8149372 C62.111465,12.5981483 62.4073762,12.46464 62.7736323,12.4144085 L63.817821,12.2716457 Z M66.2882186,12.7713153 C66.2882186,13.2260433 66.3767494,13.60674 66.5538136,13.9134171 C66.7308778,14.2200941 67.0146615,14.3734303 67.405173,14.3734303 C67.7083652,14.3734303 67.9575854,14.2313299 68.1528412,13.9471249 C68.3480969,13.6629199 68.4457234,13.2551249 68.4457234,12.7237277 C68.4457234,12.1870429 68.3450651,11.7898228 68.1437455,11.5320555 C67.9424258,11.2742882 67.693812,11.1454065 67.3978964,11.1454065 C67.0680233,11.1454065 66.8006118,11.2828803 66.5956539,11.5578321 C66.390696,11.8327839 66.2882186,12.2372743 66.2882186,12.7713153 Z M67.2741946,10.5228024 C67.5725357,10.5228024 67.8223623,10.5915393 68.0236819,10.7290152 C68.1401077,10.8083282 68.2722976,10.9471239 68.4202553,11.1454065 L68.4202553,9 L69.0496792,9 L69.0496792,14.8453404 L68.4602765,14.8453404 L68.4602765,14.2544613 C68.3074676,14.5161943 68.1267678,14.7052208 67.9181716,14.8215466 C67.7095754,14.9378724 67.4706635,14.9960344 67.2014289,14.9960344 C66.7672576,14.9960344 66.391305,14.7970939 66.0735596,14.3992069 C65.7558142,14.0013199 65.5969438,13.4719134 65.5969438,12.8109716 C65.5969438,12.19233 65.7418675,11.6563142 66.0317193,11.2029081 C66.321571,10.749502 66.7357253,10.5228024 67.2741946,10.5228024 Z M73.6339221,14.3853272 C74.0680933,14.3853272 74.3658235,14.2062146 74.5271218,13.8479841 C74.68842,13.4897537 74.7690679,13.0912117 74.7690679,12.6523463 C74.7690679,12.2557812 74.7108559,11.9332465 74.5944301,11.6847323 C74.4100893,11.2934548 74.0923486,11.0978189 73.6411987,11.0978189 C73.240985,11.0978189 72.9499248,11.2643737 72.7680095,11.5974884 C72.5860942,11.9306031 72.4951379,12.3324497 72.4951379,12.8030403 C72.4951379,13.2551245 72.5860942,13.6318557 72.7680095,13.9332452 C72.9499248,14.2346347 73.2385595,14.3853272 73.6339221,14.3853272 Z M73.6593901,10.4752148 C74.1614763,10.4752148 74.585939,10.657632 74.9327909,11.0224719 C75.2796428,11.3873118 75.4530661,11.9239885 75.4530661,12.6325182 C75.4530661,13.3172539 75.3002595,13.8830116 74.9946418,14.3298083 C74.6890241,14.776605 74.2148386,15 73.5720712,15 C73.0360274,15 72.610352,14.8023814 72.2950321,14.4071381 C71.9797122,14.0118949 71.8220546,13.4811666 71.8220546,12.8149372 C71.8220546,12.10112 71.9882015,11.5327186 72.3205001,11.1097158 C72.6527987,10.686713 73.0990909,10.4752148 73.6593901,10.4752148 Z M76.2316597,10.5981494 L76.853807,10.5981494 L76.853807,11.2009253 C77.0381478,10.9524112 77.2334007,10.7739596 77.4395713,10.6655651 C77.645742,10.5571706 77.8749519,10.5029742 78.1272078,10.5029742 C78.6802303,10.5029742 79.0537575,10.7131506 79.2478005,11.1335096 C79.3545241,11.3635173 79.4078852,11.6926614 79.4078852,12.1209518 L79.4078852,14.8453404 L78.7420785,14.8453404 L78.7420785,12.1685393 C78.7420785,11.9094501 78.7069087,11.7005956 78.6365681,11.5419696 C78.5201423,11.2775929 78.3091237,11.1454065 78.003506,11.1454065 C77.8482716,11.1454065 77.7209328,11.1625907 77.6214857,11.1969597 C77.441996,11.2551226 77.2843384,11.3714466 77.1485083,11.5459352 C77.0393591,11.6860549 76.9684132,11.830799 76.9356685,11.9801718 C76.9029237,12.1295447 76.8865516,12.3430257 76.8865516,12.6206213 L76.8865516,14.8453404 L76.2316597,14.8453404 L76.2316597,10.5981494 Z M82.576834,9.41242564 L83.2390024,9.41242564 L83.2390024,10.5981494 L83.8611497,10.5981494 L83.8611497,11.1810972 L83.2390024,11.1810972 L83.2390024,13.9530734 C83.2390024,14.1011243 83.285087,14.2002641 83.3772574,14.2504957 C83.4281937,14.2795771 83.5130862,14.2941176 83.6319376,14.2941176 C83.6634695,14.2941176 83.6974266,14.2934567 83.7338096,14.2921348 C83.7701927,14.2908129 83.8126389,14.2875083 83.8611497,14.2822208 L83.8611497,14.8453404 C83.785958,14.8691343 83.7077356,14.8863185 83.6264801,14.8968936 C83.5452246,14.9074687 83.4573002,14.9127561 83.3627042,14.9127561 C83.0570865,14.9127561 82.8497062,14.8274959 82.740557,14.6569729 C82.6314078,14.4864499 82.576834,14.2650377 82.576834,13.9927297 L82.576834,11.1810972 L82.0492823,11.1810972 L82.0492823,10.5981494 L82.576834,10.5981494 L82.576834,9.41242564 Z M84.5160415,9 L85.1709334,9 L85.1709334,11.1731659 C85.3261678,10.9590207 85.4656341,10.8083283 85.5893365,10.7210839 C85.8003583,10.5703892 86.0635251,10.495043 86.378845,10.495043 C86.9439952,10.495043 87.3272244,10.7105068 87.528544,11.1414408 C87.6376932,11.3767361 87.692267,11.7032365 87.692267,12.1209518 L87.692267,14.8453404 L87.0191837,14.8453404 L87.0191837,12.1685393 C87.0191837,11.8565748 86.9828012,11.6278923 86.9100351,11.4824851 C86.7911837,11.2498336 86.5680376,11.1335096 86.2405901,11.1335096 C85.9689299,11.1335096 85.7227415,11.2352931 85.5020176,11.4388632 C85.2812937,11.6424333 85.1709334,12.0270957 85.1709334,12.5928619 L85.1709334,14.8453404 L84.5160415,14.8453404 L84.5160415,9 Z M90.2827281,10.5029742 C90.5592393,10.5029742 90.8272572,10.5736939 91.0867897,10.7151355 C91.3463222,10.856577 91.5440006,11.0396552 91.6798307,11.2643754 C91.8108097,11.4785206 91.8981277,11.7283528 91.9417874,12.0138797 C91.980596,12.2095185 92,12.5214784 92,12.9497687 L89.1439439,12.9497687 C89.1560716,13.3807027 89.2494534,13.7263701 89.4240921,13.9867812 C89.5987308,14.2471923 89.8691742,14.3773959 90.2354303,14.3773959 C90.5774311,14.3773959 90.8503,14.2544626 91.0540451,14.0085922 C91.1704709,13.8658288 91.252938,13.7005958 91.3014487,13.5128883 L91.9454257,13.5128883 C91.9284469,13.6688706 91.872054,13.8426957 91.7762453,14.0343688 C91.6804366,14.2260419 91.5731081,14.3826828 91.4542568,14.5042961 C91.2553627,14.7157975 91.0091744,14.8585588 90.7156843,14.9325843 C90.5580244,14.9748845 90.3797501,14.9960344 90.180856,14.9960344 C89.6957485,14.9960344 89.2846261,14.8037032 88.9474764,14.419035 C88.6103266,14.0343669 88.4417543,13.4957074 88.4417543,12.8030403 C88.4417543,12.1209483 88.6115394,11.5670874 88.9511146,11.1414408 C89.2906899,10.7157943 89.7345566,10.5029742 90.2827281,10.5029742 Z M91.3269167,12.3826834 C91.3002358,12.0733626 91.2383855,11.8261741 91.141364,11.6411104 C90.9618743,11.2974206 90.6623249,11.1255783 90.2427069,11.1255783 C89.9419402,11.1255783 89.6896881,11.2438851 89.485943,11.4805023 C89.2821978,11.7171195 89.174263,12.0178435 89.1621353,12.3826834 L91.3269167,12.3826834 Z" id="Downloadonthe" fill="#FFFFFF" fill-rule="nonzero"></path>
                <path d="M40.5801535,25.331402 L39.1660919,21.50388 L37.6632551,25.331402 L40.5801535,25.331402 Z M38.5066192,20.21821 L39.933363,20.21821 L43.3131605,28.8817382 L41.9308043,28.8817382 L40.9859829,26.2868081 L37.3018133,26.2868081 L36.293581,28.8817382 L35,28.8817382 L38.5066192,20.21821 Z M47.1748804,28.1681324 C47.7075341,28.1681324 48.1503487,27.9607367 48.5033374,27.545939 C48.8563262,27.1311412 49.0328179,26.5109198 49.0328179,25.6852561 C49.0328179,25.1819944 48.954612,24.7495103 48.7981978,24.387791 C48.5022791,23.6918744 47.9611787,23.3439214 47.1748804,23.3439214 C46.3843547,23.3439214 45.8432543,23.7115328 45.551563,24.4467667 C45.3951488,24.8399399 45.3169429,25.3392624 45.3169429,25.9447491 C45.3169429,26.4322839 45.3951488,26.8470754 45.551563,27.1891361 C45.8474817,27.8418036 46.3885821,28.1681324 47.1748804,28.1681324 Z M44.2199355,22.5949302 L45.3296251,22.5949302 L45.3296251,23.4323849 C45.5579052,23.1453685 45.8073187,22.9232289 46.077873,22.7659596 C46.4625673,22.5300557 46.9148934,22.4121055 47.4348648,22.4121055 C48.2042535,22.4121055 48.8573786,22.6863397 49.3942597,23.2348163 C49.9311407,23.783293 50.1995773,24.5666788 50.1995773,25.5849974 C50.1995773,26.9611036 49.812775,27.9440219 49.039159,28.5337817 C48.5487794,28.9072962 47.9780876,29.0940507 47.3270664,29.0940507 C46.8155498,29.0940507 46.3864741,28.9898614 46.0398265,28.7814796 C45.8369108,28.6635276 45.6107477,28.4610464 45.3613305,28.17403 L45.3613305,31.4 L44.2199355,31.4 L44.2199355,22.5949302 Z M54.3973746,28.1681324 C54.9300283,28.1681324 55.3728428,27.9607367 55.7258316,27.545939 C56.0788203,27.1311412 56.255312,26.5109198 56.255312,25.6852561 C56.255312,25.1819944 56.1771061,24.7495103 56.020692,24.387791 C55.7247732,23.6918744 55.1836729,23.3439214 54.3973746,23.3439214 C53.6068489,23.3439214 53.0657485,23.7115328 52.7740572,24.4467667 C52.617643,24.8399399 52.5394371,25.3392624 52.5394371,25.9447491 C52.5394371,26.4322839 52.617643,26.8470754 52.7740572,27.1891361 C53.0699759,27.8418036 53.6110763,28.1681324 54.3973746,28.1681324 Z M51.4424296,22.5949302 L52.5521193,22.5949302 L52.5521193,23.4323849 C52.7803994,23.1453685 53.0298129,22.9232289 53.3003671,22.7659596 C53.6850614,22.5300557 54.1373875,22.4121055 54.657359,22.4121055 C55.4267476,22.4121055 56.0798727,22.6863397 56.6167538,23.2348163 C57.1536349,23.783293 57.4220714,24.5666788 57.4220714,25.5849974 C57.4220714,26.9611036 57.0352692,27.9440219 56.2616531,28.5337817 C55.7712736,28.9072962 55.2005817,29.0940507 54.5495606,29.0940507 C54.0380439,29.0940507 53.6089682,28.9898614 53.2623206,28.7814796 C53.0594049,28.6635276 52.8332419,28.4610464 52.5838247,28.17403 L52.5838247,31.4 L51.4424296,31.4 L51.4424296,22.5949302 Z M63.3383024,26.0862907 C63.3678942,26.5777572 63.492601,26.9768221 63.7124263,27.2834972 C64.1309399,27.85753 64.8686119,28.1445422 65.9254645,28.1445422 C66.3989344,28.1445422 66.8301238,28.0816354 67.2190455,27.95582 C67.9715245,27.7120526 68.3477584,27.2756369 68.3477584,26.6465598 C68.3477584,26.1747519 68.1892329,25.8385939 67.8721771,25.6380755 C67.5508939,25.4414889 67.0478397,25.2704612 66.3629992,25.1249871 L65.1011236,24.8595965 C64.2767786,24.6866003 63.6934048,24.4959141 63.3509845,24.2875323 C62.7591471,23.925813 62.4632328,23.3852079 62.4632328,22.665701 C62.4632328,21.887218 62.7528061,21.2483212 63.3319613,20.7489912 C63.9111165,20.2496612 64.7312217,20 65.7923017,20 C66.7688335,20 67.5984503,20.2191908 68.281177,20.6575789 C68.9639037,21.095967 69.305262,21.7967877 69.305262,22.7600621 L68.1194794,22.7600621 C68.0560682,22.2961177 67.9207931,21.9403013 67.71365,21.6926022 C67.3289557,21.240453 66.6758306,21.0143818 65.7542552,21.0143818 C65.010231,21.0143818 64.4754716,21.1598537 64.1499611,21.4508019 C63.8244505,21.74175 63.6616976,22.0798739 63.6616976,22.4651837 C63.6616976,22.8898107 63.8519282,23.2004129 64.2323951,23.3969995 C64.4818123,23.5228149 65.0461631,23.6800818 65.9254645,23.868805 L67.2317277,24.1459907 C67.8616118,24.2796696 68.3477567,24.4624924 68.6901769,24.6944646 C69.2820143,25.099433 69.5779286,25.6872181 69.5779286,26.4578376 C69.5779286,27.4171802 69.2027516,28.1032571 68.4523862,28.516089 C67.7020209,28.9289208 66.8301307,29.1353337 65.8366893,29.1353337 C64.6783789,29.1353337 63.771613,28.8601166 63.1163644,28.3096741 C62.4611159,27.7631633 62.1398375,27.022043 62.1525197,26.0862907 L63.3383024,26.0862907 Z M71.2519746,20.8020693 L72.4060518,20.8020693 L72.4060518,22.5654423 L73.4903771,22.5654423 L73.4903771,23.4323849 L72.4060518,23.4323849 L72.4060518,27.5547853 C72.4060518,27.7749623 72.4863714,27.9224 72.647013,27.9971029 C72.7357886,28.040352 72.8837458,28.0619762 73.0908889,28.0619762 C73.1458452,28.0619762 73.2050281,28.0609933 73.2684392,28.0590274 C73.3318504,28.0570616 73.4058289,28.052147 73.4903771,28.0442835 L73.4903771,28.8817382 C73.3593274,28.9171238 73.2229955,28.9426797 73.0813772,28.9584066 C72.939759,28.9741335 72.7865177,28.9819969 72.6216487,28.9819969 C72.088995,28.9819969 71.7275569,28.8552004 71.5373234,28.6016037 C71.3470899,28.348007 71.2519746,28.0187294 71.2519746,27.613761 L71.2519746,23.4323849 L70.3325175,23.4323849 L70.3325175,22.5654423 L71.2519746,22.5654423 L71.2519746,20.8020693 Z M77.3267327,28.1976203 C78.0834391,28.1976203 78.6023459,27.9312494 78.8834687,27.3984997 C79.1645915,26.8657501 79.3051507,26.2730503 79.3051507,25.6203828 C79.3051507,25.030623 79.2036944,24.5509589 79.0007787,24.1813761 C78.6794956,23.5994798 78.1257131,23.308536 77.3394148,23.308536 C76.6418922,23.308536 76.1346106,23.5562314 75.8175548,24.0516296 C75.500499,24.5470278 75.3419735,25.1446421 75.3419735,25.8444904 C75.3419735,26.5168166 75.500499,27.07708 75.8175548,27.5252975 C76.1346106,27.9735149 76.6376648,28.1976203 77.3267327,28.1976203 Z M77.3711203,22.3826177 C78.2461942,22.3826177 78.9859798,22.6539031 79.5904995,23.1964822 C80.1950192,23.7390612 80.4972744,24.5371908 80.4972744,25.590895 C80.4972744,26.6092136 80.2309516,27.4505916 79.6982979,28.1150543 C79.1656442,28.779517 78.3391979,29.1117434 77.2189343,29.1117434 C76.2846766,29.1117434 75.5427772,28.8178508 74.9932139,28.2300569 C74.4436506,27.642263 74.1688731,26.8529796 74.1688731,25.8621831 C74.1688731,24.8006155 74.4584463,23.9553058 75.0376015,23.3262287 C75.6167567,22.6971515 76.3945885,22.3826177 77.3711203,22.3826177 Z M81.8859717,22.5654423 L82.970297,22.5654423 L82.970297,23.6564925 C83.0590726,23.444179 83.276781,23.1856715 83.6234286,22.8809622 C83.9700763,22.576253 84.3695605,22.4239007 84.8218934,22.4239007 C84.8430305,22.4239007 84.8789629,22.4258665 84.9296918,22.4297982 C84.9804208,22.43373 85.0670814,22.4415933 85.1896763,22.4533885 L85.1896763,23.5739265 C85.1220377,23.5621313 85.0596843,23.554268 85.0026143,23.5503363 C84.9455443,23.5464045 84.8831909,23.5444387 84.8155523,23.5444387 C84.2406246,23.5444387 83.7988668,23.7164494 83.4902659,24.0604759 C83.1816649,24.4045025 83.0273668,24.8006186 83.0273668,25.248836 L83.0273668,28.8817382 L81.8859717,28.8817382 L81.8859717,22.5654423 Z M89.0070086,22.4239007 C89.4889333,22.4239007 89.9560551,22.5290729 90.408388,22.7394206 C90.8607209,22.9497683 91.2052497,23.2220366 91.4419846,23.5562338 C91.6702648,23.8747041 91.8224493,24.2462472 91.8985427,24.6708743 C91.9661812,24.9618225 92,25.4257599 92,26.0627005 L87.0222494,26.0627005 C87.0433865,26.7035728 87.2061393,27.217639 87.5105128,27.6049146 C87.8148864,27.9921902 88.2862355,28.1858251 88.9245745,28.1858251 C89.5206393,28.1858251 89.9962158,28.0030023 90.3513183,27.6373513 C90.554234,27.4250377 90.6979638,27.1793082 90.782512,26.9001552 L91.9048837,26.9001552 C91.8752919,27.1321274 91.7770061,27.3906349 91.6100234,27.6756855 C91.4430407,27.960736 91.2559806,28.1936877 91.0488375,28.3745473 C90.7021898,28.6890859 90.2731141,28.9013962 89.7615975,29.0114847 C89.4868158,29.0743925 89.1761059,29.1058458 88.8294582,29.1058458 C87.9839762,29.1058458 87.2674409,28.8198166 86.6798309,28.2477496 C86.0922209,27.6756826 85.7984203,26.8746042 85.7984203,25.8444904 C85.7984203,24.8301036 86.0943346,24.0064181 86.686172,23.3734092 C87.2780094,22.7404004 88.0516139,22.4239007 89.0070086,22.4239007 Z M90.8268995,25.2193482 C90.780398,24.7593355 90.6726007,24.3917241 90.5035043,24.1165028 C90.1906759,23.6053777 89.6685986,23.3498189 88.9372566,23.3498189 C88.4130578,23.3498189 87.9734137,23.5257613 87.6183113,23.8776513 C87.2632088,24.2295413 87.0750919,24.6767691 87.0539548,25.2193482 L90.8268995,25.2193482 Z" id="AppStore" fill="#FFFFFF" fill-rule="nonzero"></path>
                <g id="icons8-mac_os" transform="translate(8.000000, 6.000000)" fill="#FFFFFF" fill-rule="nonzero">
                    <path d="M21,17.6074986 C20.426022,18.8564918 20.1521624,19.4165126 19.4131189,20.5181329 C18.3852107,22.0618749 16.929632,23.985104 15.128916,23.9961572 C13.5307802,24.0108946 13.1181166,22.971909 10.9460028,22.9903305 C8.77388893,22.9976987 8.31995869,24.0145787 6.71807158,23.9998413 C4.92110691,23.985104 3.54431024,22.2497768 2.51264984,20.7134031 C-0.372246896,16.3990325 -0.676118429,11.3404222 1.10584028,8.65084872 C2.36634143,6.74235607 4.36213491,5.62231433 6.23788067,5.62231433 C8.14363835,5.62231433 9.34411564,6.65024761 10.9234933,6.65024761 C12.4541019,6.65024761 13.3844718,5.61863022 15.594101,5.61863022 C17.2597632,5.61863022 19.026715,6.51024287 20.2872161,8.0539839 C16.1605755,10.2719618 16.8320927,16.0600725 21,17.6074986 Z M13.917184,3.89435543 C14.7200027,2.88484459 15.3277448,1.45531763 15.1101578,0 C13.7971363,0.0884243481 12.2665278,0.910034152 11.3699211,1.97112633 C10.5595989,2.9401091 9.88808167,4.38068934 10.1506866,5.7733733 C11.5800046,5.81758547 13.0580927,4.98123828 13.917184,3.89435543 Z" id="Shape"></path>
                </g>
            </g>
        </g>
    </g>
</svg>