<?xml version="1.0" encoding="UTF-8"?>
<svg width="39px" height="18px" viewBox="0 0 39 18" version="1.1" xmlns="http://www.w3.org/2000/svg" xmlns:xlink="http://www.w3.org/1999/xlink">
    <!-- Generator: Sketch 54.1 (76490) - https://sketchapp.com -->
    <title>icons8-arrows_long_right</title>
    <desc>Created with Sketch.</desc>
    <g id="Page-2" stroke="none" stroke-width="1" fill="none" fill-rule="evenodd">
        <g id="Mobile-/Fiat/Signup5" transform="translate(-175.000000, -642.000000)" fill="#FFFFFF" fill-rule="nonzero">
            <g id="icons8-arrows_long_right" transform="translate(175.000000, 642.000000)">
                <path d="M30.081724,0.000150082329 C29.7516526,-0.0062376088 29.4501457,0.191793081 29.3168472,0.495228034 C29.1867231,0.801856833 29.2533719,1.15639659 29.4850564,1.39275588 L35.965882,8.1865004 L0.822798355,8.1865004 C0.530812108,8.18330655 0.257868035,8.33662095 0.111875318,8.59214495 C-0.0372917726,8.84766895 -0.0372917726,9.16068544 0.111875318,9.41620944 C0.257868035,9.67173344 0.530812108,9.82504784 0.822798355,9.82185399 L35.965882,9.82185399 L29.4850564,16.6155985 C29.174028,16.9413912 29.1867231,17.4588277 29.5104466,17.7718442 C29.8341708,18.0848615 30.3483201,18.0752792 30.6593494,17.7462918 L39,9.00417719 L30.6593494,0.26206259 C30.5101823,0.0991658363 30.3007143,0.00653859114 30.081724,0.000150082329 Z" id="Path"></path>
            </g>
        </g>
    </g>
</svg>