<?xml version="1.0" encoding="UTF-8"?>
<svg width="22px" height="22px" viewBox="0 0 22 22" version="1.1" xmlns="http://www.w3.org/2000/svg" xmlns:xlink="http://www.w3.org/1999/xlink">
    <!-- Generator: Sketch 54.1 (76490) - https://sketchapp.com -->
    <title>icon/email/second</title>
    <desc>Created with Sketch.</desc>
    <g id="icon/email/second" stroke="none" stroke-width="1" fill="none" fill-rule="evenodd">
        <g id="email" transform="translate(0.000000, 4.000000)" fill-rule="nonzero">
            <g id="Group" transform="translate(0.000000, 1.764706)">
                <path d="M0.723684211,13.2070136 C0.358947368,13.2070136 0.0578947368,12.9128959 0.0578947368,12.5565611 L0.0578947368,0.452488688 L0.0578947368,0.435520362 C0.0636842105,0.231900452 0.237368421,0.113122172 0.405263158,0.113122172 C0.497894737,0.113122172 0.584736842,0.147058824 0.648421053,0.214932127 L10.4615789,9.8020362 C10.6005263,9.93778281 10.78,10.0056561 10.9710526,10.0056561 C11.1621053,10.0056561 11.3473684,9.9321267 11.4805263,9.8020362 L21.3457895,0.164027149 C21.4094737,0.101809955 21.4963158,0.0622171946 21.5889474,0.0622171946 C21.7510526,0.0622171946 21.89,0.169683258 21.9247368,0.316742081 C21.9363158,0.36199095 21.9421053,0.407239819 21.9421053,0.452488688 L21.9421053,12.5565611 C21.9421053,12.9128959 21.6410526,13.2070136 21.2763158,13.2070136 L0.723684211,13.2070136 Z" id="Path" fill="#5B4AE2"></path>
                <path d="M21.5947368,0.0904977376 C21.7163158,0.0904977376 21.8668421,0.164027149 21.9015789,0.32239819 C21.9131579,0.367647059 21.9131579,0.407239819 21.9131579,0.452488688 L21.9131579,12.5565611 C21.9131579,12.9015837 21.6294737,13.178733 21.2763158,13.178733 L0.723684211,13.178733 C0.370526316,13.178733 0.0868421053,12.9015837 0.0868421053,12.5565611 L0.0868421053,0.452488688 C0.0868421053,0.446832579 0.0868421053,0.441176471 0.0868421053,0.435520362 C0.0926315789,0.248868778 0.254736842,0.135746606 0.405263158,0.135746606 C0.463157895,0.135746606 0.55,0.152714932 0.625263158,0.226244344 L10.4384211,9.81334842 C10.5773684,9.94909502 10.7684211,10.0282805 10.9710526,10.0282805 C11.1736842,10.0282805 11.3589474,9.95475113 11.5036842,9.81334842 L21.3689474,0.175339367 C21.4268421,0.118778281 21.5078947,0.0904977376 21.5947368,0.0904977376 L21.5947368,0.0904977376 Z M21.5947368,0.0339366516 C21.5021053,0.0339366516 21.4036842,0.0678733032 21.3284211,0.141402715 L11.4631579,9.77941176 C11.33,9.90950226 11.1505263,9.97737557 10.9710526,9.97737557 C10.7915789,9.97737557 10.6121053,9.90950226 10.4789474,9.77941176 L0.665789474,0.192307692 C0.590526316,0.118778281 0.497894737,0.084841629 0.405263158,0.084841629 C0.214210526,0.084841629 0.0347368421,0.220588235 0.0289473684,0.435520362 C0.0289473684,0.441176471 0.0289473684,0.446832579 0.0289473684,0.452488688 L0.0289473684,12.5565611 C0.0289473684,12.9298643 0.341578947,13.2352941 0.723684211,13.2352941 L21.2763158,13.2352941 C21.6584211,13.2352941 21.9710526,12.9298643 21.9710526,12.5565611 L21.9710526,0.452488688 C21.9710526,0.40158371 21.9652632,0.356334842 21.9536842,0.311085973 C21.9189474,0.135746606 21.7568421,0.0339366516 21.5947368,0.0339366516 L21.5947368,0.0339366516 Z" id="Shape"></path>
            </g>
            <g id="Group" transform="translate(0.880000, 0.000000)">
                <path d="M10.12,10.5591467 C9.9494382,10.5591467 9.79593258,10.4951519 9.67653933,10.37298 L0.164876404,0.639948287 L0.153505618,0.628312864 C0.0568539326,0.523594053 0.0341123596,0.378151261 0.0909662921,0.250161603 C0.147820225,0.116354234 0.272898876,0.0349062702 0.409348315,0.0349062702 L19.8363371,0.0349062702 C19.9784719,0.0349062702 20.1035506,0.122171946 20.1604045,0.255979315 C20.211573,0.389786684 20.1888315,0.529411765 20.0921798,0.628312864 L10.5634607,10.37298 C10.4440674,10.4951519 10.2848764,10.5591467 10.12,10.5591467 Z" id="Path" fill="#5B4AE2"></path>
                <path d="M19.8306517,0.058177117 C19.9898427,0.058177117 20.0864944,0.162895928 20.1262921,0.261797027 C20.1774607,0.383968972 20.1547191,0.51195863 20.0637528,0.605042017 L20.0580674,0.610859729 L10.5407191,10.3497091 C10.4270112,10.4660633 10.279191,10.5300582 10.1143146,10.5300582 C9.9494382,10.5300582 9.80161798,10.4660633 9.68791011,10.3497091 L0.181932584,0.61667744 C0.176247191,0.610859729 0.176247191,0.610859729 0.170561798,0.605042017 C0.0852808989,0.51195863 0.0625393258,0.378151261 0.113707865,0.255979315 C0.164876404,0.133807369 0.27858427,0.058177117 0.409348315,0.058177117 L19.8306517,0.058177117 L19.8306517,0.058177117 Z M19.8306517,0 L0.409348315,0 C0.0795955056,0 -0.0909662921,0.401422107 0.130764045,0.645765999 C0.136449438,0.65158371 0.136449438,0.65158371 0.142134831,0.657401422 L9.65379775,10.3904331 C9.7788764,10.5184228 9.9494382,10.5882353 10.12,10.5882353 C10.2905618,10.5882353 10.4554382,10.5242405 10.5862022,10.3904331 L20.1035506,0.65158371 C20.1035506,0.65158371 20.109236,0.645765999 20.109236,0.645765999 C20.3366517,0.407239819 20.1604045,0 19.8306517,0 L19.8306517,0 Z" id="Shape"></path>
            </g>
        </g>
    </g>
</svg>