<?xml version="1.0" encoding="UTF-8"?>
<svg width="133px" height="41px" viewBox="0 0 133 41" version="1.1" xmlns="http://www.w3.org/2000/svg" xmlns:xlink="http://www.w3.org/1999/xlink">
    <!-- Generator: Sketch 54.1 (76490) - https://sketchapp.com -->
    <title>Group 13</title>
    <desc>Created with Sketch.</desc>
    <g id="Page-2" stroke="none" stroke-width="1" fill="none" fill-rule="evenodd">
        <g id="Mobile/Fiat/Landing-page2" transform="translate(-21.000000, -2405.000000)">
            <g id="Group-13" transform="translate(21.000000, 2405.000000)">
                <rect id="Rectangle-Copy-6" stroke="#604EE3" x="0.5" y="0.5" width="132" height="40" rx="4"></rect>
                <g id="Group-6" transform="translate(14.000000, 4.000000)" fill="#604EE3">
                    <g id="Group-4" transform="translate(28.000000, 0.000000)" font-family="ProximaNova-Semibold, Proxima Nova" font-weight="500">
                        <text id="Checkout-available-Copy" font-size="10" letter-spacing="-0.75">
                            <tspan x="0" y="10">Checkout available </tspan>
                        </text>
                        <text id="EMYAPP-Copy" font-size="18" letter-spacing="0.6954545">
                            <tspan x="0" y="29">EMYAP</tspan>
                            <tspan x="62.2652725" y="29" letter-spacing="0.6588517">P</tspan>
                        </text>
                    </g>
                    <g id="icons8-email-copy-2" transform="translate(0.000000, 8.000000)" fill-rule="nonzero">
                        <path d="M10.5252404,11.8638824 L10.4603365,11.8638824 C9.96274038,13.2620192 9.06219969,13.9597359 7.75330546,13.9597359 C6.77163462,13.9597359 5.98197115,13.5946516 5.38161092,12.8617788 C4.77854585,12.1316109 4.47836538,11.1174882 4.47836538,9.82211538 C4.47836538,8.14813685 4.89483208,6.78515608 5.72776477,5.73317308 C6.55799262,4.68389423 7.56129808,4.15925515 8.73227146,4.15925515 C9.79236762,4.15925515 10.4576324,4.58653846 10.7280651,5.44380992 L10.7713343,5.44380992 L10.8768032,4.35667085 L13.2755407,4.35667085 C12.9564305,7.47475962 12.7941708,9.51111762 12.7941708,10.4711538 C12.7941708,11.4960939 13.0646035,12.0072115 13.6054689,12.0072115 C14.1760821,12.0072115 14.6439305,11.6177885 15.0144231,10.8443513 C15.3822115,10.0682093 15.5688099,9.05408654 15.5688099,7.80468785 C15.5688099,6.09284838 15.0387618,4.68930323 13.9786657,3.59405031 C12.9185695,2.50150223 11.4420074,1.95252438 9.54356954,1.95252438 C7.50991569,1.95252438 5.81971154,2.68269231 4.47295708,4.14302885 C3.12620192,5.60336538 2.45282469,7.38281285 2.45282469,9.48407469 C2.45282469,11.5177285 3.04777662,13.1186901 4.23768046,14.2896635 C5.43028846,15.4606368 7.07181508,16.0474763 9.17037277,16.0474763 C10.7713343,16.0474763 12.234375,15.7337744 13.5649038,15.1036657 L13.5649038,17.1995192 C12.3479571,17.7322715 10.7848558,18 8.87289646,18 C6.24699554,18 4.11328108,17.2265628 2.46905031,15.6796878 C0.822115385,14.130108 0,12.0504808 0,9.43810131 C0,6.77433877 0.878906077,4.53786092 2.63401477,2.72325738 C4.38912277,0.908653846 6.64994008,0 9.41646669,0 C11.9747596,0 14.0462744,0.703125 15.6283055,2.11207915 C17.2103365,3.521034 18,5.37890608 18,7.68299262 C18,9.57872631 17.5159253,11.0985577 16.5504808,12.2451923 C15.5823321,13.3891228 14.3843151,13.9624401 12.9564305,13.9624401 C12.2533055,13.9624401 11.6799882,13.7677285 11.2391827,13.3810096 C10.7983772,12.9915865 10.5603965,12.4858772 10.5252404,11.8638824 Z M9.10546892,6.06850962 C8.46724777,6.06850962 7.94531285,6.44441123 7.54507246,7.19350962 C7.14212723,7.94531285 6.94200738,8.81340162 6.94200738,9.80048077 C6.94200738,10.5036058 7.07992823,11.0498802 7.35306508,11.4420074 C7.62620192,11.8341346 7.97776477,12.0288462 8.41316123,12.0288462 C9.08113015,12.0288462 9.60847338,11.6610577 9.99248815,10.9200725 C10.3737981,10.1817907 10.5658055,9.19471154 10.5658055,7.95883431 C10.5658055,7.37199554 10.4332936,6.91225962 10.1655651,6.57421892 C9.90054069,6.23888238 9.54627438,6.06850962 9.10546892,6.06850962 Z" id="Shape"></path>
                    </g>
                </g>
            </g>
        </g>
    </g>
</svg>