<?xml version="1.0" encoding="UTF-8"?>
<svg width="110px" height="40px" viewBox="0 0 110 40" version="1.1" xmlns="http://www.w3.org/2000/svg" xmlns:xlink="http://www.w3.org/1999/xlink">
    <!-- Generator: Sketch 54.1 (76490) - https://sketchapp.com -->
    <title>Group 6</title>
    <desc>Created with Sketch.</desc>
    <g id="Page-2" stroke="none" stroke-width="1" fill="none" fill-rule="evenodd">
        <g id="Mobile/Fiat/Landing-page2" transform="translate(-189.000000, -3724.000000)">
            <g id="Group-6" transform="translate(189.000000, 3724.000000)">
                <path d="M35.5782128,19.047619 C36.4912136,19.047619 37.2807048,19.2195995 37.9467102,19.5635657 C38.9126385,20.058017 39.5036543,20.9243688 39.7197752,22.1626469 L38.4164401,22.1626469 C38.2576574,21.470415 37.9290702,20.9662972 37.4306688,20.6502783 C36.9322675,20.3342594 36.3037619,20.1762523 35.5451332,20.1762523 C34.6453644,20.1762523 33.8878497,20.505165 33.2725666,21.1630003 C32.6572835,21.8208355 32.3496465,22.8011243 32.3496465,24.1038961 C32.3496465,25.2303852 32.6032541,26.1472562 33.1104767,26.8545366 C33.6176994,27.561817 34.4446804,27.9154519 35.5914446,27.9154519 C36.4691603,27.9154519 37.195801,27.6671551 37.7713884,27.1705539 C38.3469759,26.6739528 38.6413811,25.8710189 38.654613,24.7617281 L35.6112924,24.7617281 L35.6112924,23.6975881 L39.8785572,23.6975881 L39.8785572,28.7667638 L39.0317201,28.7667638 L38.7141562,27.5478399 C38.2686824,28.0250929 37.8739368,28.3561554 37.5299076,28.5410372 C36.9521148,28.8592059 36.2177556,29.0182878 35.326808,29.0182878 C34.1756332,29.0182878 33.1854612,28.654979 32.3562625,27.9283506 C31.452083,27.0168403 31,25.7656822 31,24.1748388 C31,22.5882949 31.4410566,21.3263881 32.3231829,20.3890803 C33.1612029,19.4947683 34.246202,19.047619 35.5782128,19.047619 Z M44.5692405,28.0186412 C45.3587436,28.0186412 45.9001405,27.7273493 46.1934475,27.1447566 C46.4867545,26.5621639 46.6334058,25.9140125 46.6334058,25.2002827 C46.6334058,24.5553462 46.5275523,24.0308057 46.3158419,23.6266455 C45.9806339,22.9903081 45.4028499,22.6721442 44.5824724,22.6721442 C43.8547181,22.6721442 43.3254503,22.9430135 42.9946529,23.4847601 C42.6638555,24.0265068 42.4984593,24.6800327 42.4984593,25.4453574 C42.4984593,26.180585 42.6638555,26.7932655 42.9946529,27.2834173 C43.3254503,27.773569 43.8503076,28.0186412 44.5692405,28.0186412 Z M44.6155519,21.6595989 C45.5285527,21.6595989 46.3004017,21.9562653 46.931122,22.5496069 C47.5618423,23.1429485 47.8771978,24.0157495 47.8771978,25.168036 C47.8771978,26.2816264 47.5993321,27.2017221 47.0435925,27.9283506 C46.4878529,28.654979 45.6255874,29.0182878 44.45677,29.0182878 C43.4820204,29.0182878 42.7079661,28.6968993 42.134584,28.0541126 C41.5612019,27.4113258 41.2745151,26.5481987 41.2745151,25.4647054 C41.2745151,24.3038196 41.5766389,23.3794245 42.1808954,22.6914922 C42.785152,22.0035599 43.596696,21.6595989 44.6155519,21.6595989 Z M52.1047671,28.0186412 C52.8942702,28.0186412 53.4356671,27.7273493 53.7289741,27.1447566 C54.0222811,26.5621639 54.1689324,25.9140125 54.1689324,25.2002827 C54.1689324,24.5553462 54.0630788,24.0308057 53.8513685,23.6266455 C53.5161605,22.9903081 52.9383764,22.6721442 52.1179989,22.6721442 C51.3902447,22.6721442 50.8609768,22.9430135 50.5301794,23.4847601 C50.1993821,24.0265068 50.0339859,24.6800327 50.0339859,25.4453574 C50.0339859,26.180585 50.1993821,26.7932655 50.5301794,27.2834173 C50.8609768,27.773569 51.3858341,28.0186412 52.1047671,28.0186412 Z M52.1510785,21.6595989 C53.0640792,21.6595989 53.8359282,21.9562653 54.4666485,22.5496069 C55.0973689,23.1429485 55.4127243,24.0157495 55.4127243,25.168036 C55.4127243,26.2816264 55.1348587,27.2017221 54.5791191,27.9283506 C54.0233795,28.654979 53.1611139,29.0182878 51.9922965,29.0182878 C51.0175469,29.0182878 50.2434927,28.6968993 49.6701106,28.0541126 C49.0967284,27.4113258 48.8100417,26.5481987 48.8100417,25.4647054 C48.8100417,24.3038196 49.1121654,23.3794245 49.716422,22.6914922 C50.3206785,22.0035599 51.1322226,21.6595989 52.1510785,21.6595989 Z M59.3293457,21.7369909 C59.8850853,21.7369909 60.3702475,21.8702758 60.7848468,22.1368495 C61.0097891,22.2873347 61.2391385,22.5066099 61.4729019,22.7946815 L61.4729019,21.9240216 L62.5711437,21.9240216 L62.5711437,28.2056719 C62.5711437,29.0827855 62.4388268,29.775007 62.1741889,30.2823571 C61.6801981,31.2196648 60.7473635,31.6883117 59.3756571,31.6883117 C58.6126178,31.6883117 57.9708805,31.5217056 57.450426,31.1884884 C56.9299714,30.8552712 56.6388741,30.3339553 56.5771252,29.6245251 L57.7878376,29.6245251 C57.8451758,29.9340947 57.9598505,30.1727176 58.1318651,30.3404011 C58.4009137,30.5983757 58.824328,30.7273611 59.4021207,30.7273611 C60.3151215,30.7273611 60.9127531,30.4134967 61.1950335,29.7857585 C61.3626375,29.4159949 61.4398224,28.7560197 61.4265905,27.8058132 C61.1884164,28.1583785 60.9017297,28.4206488 60.5665217,28.5926319 C60.2313137,28.7646149 59.7880518,28.8506052 59.2367229,28.8506052 C58.4692729,28.8506052 57.7977643,28.5851103 57.2221769,28.0541126 C56.6465895,27.5231148 56.3588001,26.6449394 56.3588001,25.41956 C56.3588001,24.2629739 56.6487948,23.3600763 57.2287928,22.7108402 C57.8087909,22.0616041 58.5089682,21.7369909 59.3293457,21.7369909 Z M61.4729019,25.284124 C61.4729019,24.4285083 61.2920688,23.7943302 60.930397,23.3815708 C60.5687252,22.9688114 60.1078211,22.7624348 59.5476708,22.7624348 C58.7096508,22.7624348 58.1362773,23.1450914 57.8275331,23.9104161 C57.6643397,24.3188759 57.5827442,24.8541652 57.5827442,25.5163 C57.5827442,26.2945234 57.7448325,26.8867813 58.069014,27.2930913 C58.3931954,27.6994013 58.8287387,27.9025532 59.3756571,27.9025532 C60.2313196,27.9025532 60.8333618,27.5263459 61.1818017,26.77392 C61.3758695,26.3482619 61.4729019,25.8516682 61.4729019,25.284124 Z M64.3971361,19.2926937 L65.5880007,19.2926937 L65.5880007,28.7667638 L64.3971361,28.7667638 L64.3971361,19.2926937 Z M70.3249955,21.7047442 C70.8278075,21.7047442 71.315175,21.8197562 71.7871126,22.0497835 C72.2590502,22.2798109 72.6185112,22.5775521 72.8655066,22.9430162 C73.1036807,23.2912819 73.2624611,23.6975858 73.3418525,24.1619401 C73.4124226,24.4801088 73.4477071,24.9874512 73.4477071,25.6839827 L68.2542142,25.6839827 C68.2762674,26.3848137 68.4460742,26.9469749 68.7636397,27.3704833 C69.0812051,27.7939916 69.5729832,28.0057426 70.2389886,28.0057426 C70.8608876,28.0057426 71.3570763,27.8058152 71.7275693,27.4059546 C71.9392797,27.1737774 72.0892389,26.9050579 72.1774515,26.599788 L73.3484684,26.599788 C73.3175939,26.853463 73.2150483,27.1361559 73.0408283,27.4478753 C72.8666084,27.7595946 72.6714409,28.0143407 72.4553199,28.2121212 C72.0936481,28.5560874 71.6459757,28.788261 71.1122893,28.9086492 C70.8255982,28.9774424 70.5014217,29.0118385 70.1397499,29.0118385 C69.2576235,29.0118385 68.5100327,28.699049 67.8969549,28.0734606 C67.2838771,27.4478721 66.9773428,26.5718465 66.9773428,25.4453574 C66.9773428,24.3360665 67.2860823,23.4353187 67.9035708,22.7430868 C68.5210592,22.050855 69.3281927,21.7047442 70.3249955,21.7047442 Z M72.2237629,24.7617281 C72.175246,24.2586776 72.0627765,23.8566732 71.8863513,23.5557028 C71.5599645,22.9967578 71.0152597,22.7172895 70.2522204,22.7172895 C69.7053021,22.7172895 69.2466033,22.9096927 68.8761102,23.2945048 C68.5056171,23.6793169 68.309347,24.1683865 68.2872938,24.7617281 L72.2237629,24.7617281 Z M78.9587638,19.2926937 L83.3318833,19.2926937 C84.1963671,19.2926937 84.8932364,19.5302418 85.4225122,20.005345 C85.951788,20.4804482 86.216422,21.1479475 86.216422,22.0078629 C86.216422,22.7473901 85.9804567,23.3912421 85.5085191,23.9394381 C85.0365815,24.4876342 84.3110435,24.7617281 83.3318833,24.7617281 L80.2753308,24.7617281 L80.2753308,28.7667638 L78.9587638,28.7667638 L78.9587638,19.2926937 Z M84.8866232,22.0143122 C84.8866232,21.3177808 84.6219892,20.8448344 84.0927134,20.595459 C83.8016117,20.4621721 83.4024556,20.3955296 82.8952329,20.3955296 L80.2753308,20.3955296 L80.2753308,23.6782401 L82.8952329,23.6782401 C83.4862576,23.6782401 83.9659066,23.555704 84.3341943,23.3106281 C84.7024821,23.0655523 84.8866232,22.6334513 84.8866232,22.0143122 Z M87.7446982,19.2926937 L88.9355628,19.2926937 L88.9355628,28.7667638 L87.7446982,28.7667638 L87.7446982,19.2926937 Z M91.6348559,26.9287039 C91.6348559,27.2640709 91.760557,27.5284909 92.011963,27.7219719 C92.263369,27.9154529 92.5610822,28.0121919 92.9051115,28.0121919 C93.3241215,28.0121919 93.7298935,27.9176026 94.1224397,27.7284212 C94.7840345,27.4145521 95.1148269,26.9007604 95.1148269,26.1870307 L95.1148269,25.2518774 C94.9692761,25.3421685 94.781827,25.41741 94.5524742,25.477604 C94.3231213,25.5377981 94.0981825,25.5807932 93.8776509,25.6065907 L93.1565162,25.6968813 C92.7242743,25.7527758 92.4000978,25.8409159 92.1839768,25.961304 C91.8178944,26.1633841 91.6348559,26.4858475 91.6348559,26.9287039 Z M94.5193946,24.5811467 C94.7928538,24.5467501 94.9758922,24.4349628 95.0685155,24.2457814 C95.1214431,24.1425916 95.1479065,23.9942584 95.1479065,23.8007775 C95.1479065,23.4052164 95.0034604,23.1182239 94.7145641,22.9397915 C94.4256677,22.7613591 94.0121772,22.6721442 93.4740801,22.6721442 C92.852181,22.6721442 92.4111245,22.8355257 92.1508972,23.1622935 C92.0053464,23.3428757 91.9105192,23.6115952 91.8664129,23.9684601 L90.7549393,23.9684601 C90.7769924,23.1171439 91.0603713,22.5248861 91.6050843,22.1916689 C92.1497973,21.8584517 92.7816108,21.6918456 93.5005438,21.6918456 C94.3341532,21.6918456 95.011175,21.846628 95.5316295,22.1561975 C96.0476734,22.4657671 96.3056915,22.9473125 96.3056915,23.6008481 L96.3056915,27.5800866 C96.3056915,27.7004747 96.3310523,27.7972138 96.3817745,27.8703066 C96.4324968,27.9433994 96.539453,27.9799452 96.7026464,27.9799452 C96.7555739,27.9799452 96.8151166,27.9767206 96.8812761,27.9702712 C96.9474355,27.9638219 97.0180046,27.954148 97.0929853,27.9412492 L97.0929853,28.7990105 C96.9077388,28.8506054 96.7666007,28.8828518 96.6695668,28.8957505 C96.5725329,28.9086492 96.4402159,28.9150985 96.2726119,28.9150985 C95.8624232,28.9150985 95.56471,28.7732146 95.3794635,28.4894425 C95.2824296,28.3389573 95.2140658,28.1261315 95.1743701,27.8509586 C94.9317854,28.1605281 94.5833507,28.4292476 94.1290556,28.6571252 C93.6747606,28.8850028 93.1741614,28.9989398 92.6272431,28.9989398 C91.9700589,28.9989398 91.4330726,28.8043869 91.0162679,28.4152752 C90.5994632,28.0261635 90.391064,27.5392437 90.391064,26.9545013 C90.391064,26.3138643 90.5961553,25.8172707 91.006344,25.4647054 C91.4165328,25.1121401 91.9546218,24.8950147 92.6206272,24.8133227 L94.5193946,24.5811467 Z M102.683433,21.8595282 L104,21.8595282 C103.832396,22.3023846 103.459703,23.31277 102.88191,24.8907147 C102.449669,26.0773979 102.088002,27.0447882 101.7969,27.7929146 C101.108842,29.5557411 100.62368,30.6306191 100.341399,31.0175811 C100.059119,31.404543 99.5739567,31.598021 98.8858981,31.598021 C98.7182941,31.598021 98.5892851,31.5915718 98.4988671,31.578673 C98.4084492,31.5657743 98.2970824,31.542127 98.1647635,31.5077304 L98.1647635,30.4500398 C98.3720631,30.5059343 98.5220224,30.5403304 98.6146456,30.5532291 C98.7072689,30.5661278 98.7888644,30.5725771 98.8594345,30.5725771 C99.0799661,30.5725771 99.2420543,30.5371061 99.3457042,30.4661631 C99.449354,30.3952201 99.5364627,30.3081549 99.6070328,30.2049651 C99.629086,30.1705685 99.7084761,29.9942885 99.8452057,29.6761198 C99.9819353,29.3579511 100.081173,29.1214779 100.142922,28.9666932 L97.5230198,21.8595282 L98.8726663,21.8595282 L100.771434,27.4833466 L102.683433,21.8595282 Z" id="GooglePlay" fill="#FFFFFF" fill-rule="nonzero"></path>
                <rect id="Rectangle" stroke="#FFFFFF" x="0.5" y="0.5" width="109" height="39" rx="6"></rect>
                <path d="M33.5133172,8.57840477 C34.0145304,8.57840477 34.4479401,8.67141989 34.8135593,8.85745291 C35.3438283,9.12487538 35.6682803,9.59343902 35.7869249,10.2631579 L35.0714286,10.2631579 C34.9842611,9.88876644 34.8038755,9.61611588 34.5302663,9.44519805 C34.2566572,9.27428021 33.9116244,9.18882257 33.4951574,9.18882257 C33.0012082,9.18882257 32.5853528,9.36671398 32.2475787,9.72250213 C31.9098046,10.0782903 31.7409201,10.6084764 31.7409201,11.3130765 C31.7409201,11.9223346 31.8801439,12.4182215 32.1585956,12.8007519 C32.4370474,13.1832823 32.891038,13.3745446 33.5205811,13.3745446 C34.0024237,13.3745446 34.4013301,13.240254 34.7173123,12.9716689 C35.0332946,12.7030837 35.1949152,12.2688194 35.2021792,11.6688629 L33.531477,11.6688629 L33.531477,11.0933261 L35.874092,11.0933261 L35.874092,13.834974 L35.409201,13.834974 L35.2348668,13.1757228 C34.9903135,13.4338436 34.7736087,13.6128977 34.5847458,13.7128905 C34.2675529,13.884971 33.8644092,13.97101 33.3753027,13.97101 C32.7433382,13.97101 32.1997601,13.7745156 31.7445521,13.3815208 C31.2481815,12.8885333 31,12.2118483 31,11.3514456 C31,10.4933683 31.2421283,9.81086991 31.7263923,9.30392993 C32.186443,8.82024407 32.7820787,8.57840477 33.5133172,8.57840477 Z M37.0617433,8.71095264 L40.9515738,8.71095264 L40.9515738,9.33881094 L37.7663438,9.33881094 L37.7663438,10.8945043 L40.7118644,10.8945043 L40.7118644,11.4874816 L37.7663438,11.4874816 L37.7663438,13.2245562 L41.0060533,13.2245562 L41.0060533,13.834974 L37.0617433,13.834974 L37.0617433,8.71095264 Z M45.8365617,8.71095264 L45.8365617,9.32137044 L44.0387409,9.32137044 L44.0387409,13.834974 L43.3050847,13.834974 L43.3050847,9.32137044 L41.5072639,9.32137044 L41.5072639,8.71095264 L45.8365617,8.71095264 Z M48.5968523,8.71095264 L49.3268765,8.71095264 L49.3268765,13.834974 L48.5968523,13.834974 L48.5968523,8.71095264 Z M54.3825666,8.71095264 L54.3825666,9.32137044 L52.5847458,9.32137044 L52.5847458,13.834974 L51.8510896,13.834974 L51.8510896,9.32137044 L50.0532688,9.32137044 L50.0532688,8.71095264 L54.3825666,8.71095264 Z M59.2820823,8.57142857 C60.2239757,8.57142857 60.9213052,8.86210081 61.374092,9.443454 C61.7276047,9.89690948 61.9043584,10.4770913 61.9043584,11.1840167 C61.9043584,11.9490775 61.7021812,12.5850684 61.2978208,13.0920084 C60.8232422,13.687314 60.1464935,13.9849624 59.2675545,13.9849624 C58.4467271,13.9849624 57.8014551,13.7245201 57.3317191,13.2036276 C56.9128308,12.7013385 56.7033898,12.0665103 56.7033898,11.2991241 C56.7033898,10.6061511 56.8825648,10.0131797 57.2409201,9.52019223 C57.7009708,8.88767996 58.3813514,8.57142857 59.2820823,8.57142857 Z M59.3547215,13.3640803 C59.9915286,13.3640803 60.4521778,13.1449134 60.7366828,12.7065731 C61.0211879,12.2682328 61.1634383,11.7642072 61.1634383,11.194481 C61.1634383,10.5921991 60.9993963,10.1073579 60.6713075,9.73994264 C60.3432187,9.37252742 59.894676,9.18882257 59.3256659,9.18882257 C58.773605,9.18882257 58.3232463,9.37078339 57.9745763,9.73471049 C57.6259062,10.0986376 57.4515738,10.6352185 57.4515738,11.3444694 C57.4515738,11.9118701 57.6010881,12.3903166 57.9001211,12.7798233 C58.199154,13.1693299 58.684016,13.3640803 59.3547215,13.3640803 Z M62.7651332,8.71095264 L63.6186441,8.71095264 L66.3135593,12.8617937 L66.3135593,8.71095264 L67,8.71095264 L67,13.834974 L66.1900726,13.834974 L63.4552058,9.68762111 L63.4552058,13.834974 L62.7651332,13.834974 L62.7651332,8.71095264 Z" id="GETITON" fill="#FFFFFF" fill-rule="nonzero"></path>
                <g id="icons8-google_play" transform="translate(6.000000, 8.571429)" fill-rule="nonzero">
                    <path d="M0.41125,0.023547619 C0.170333333,0.0821428571 0,0.277642857 0,0.613880952 C0,1.60069048 0,10.906381 0,10.906381 C0,10.906381 0,20.9628571 0,21.4069762 C0,21.6512143 0.114916667,21.8149524 0.291666667,21.8757381 L12.0639167,10.8883095 L0.41125,0.023547619 Z" id="Path" fill="#4DB6AC"></path>
                    <path d="M15.3049167,7.86380952 L10.4591667,5.23742857 C10.4591667,5.23742857 1.56625,0.416738095 1.04358333,0.133619048 C0.81725,0.010952381 0.594416667,-0.0213571429 0.41125,0.023547619 L12.0645,10.8883095 L15.3049167,7.86380952 Z" id="Path" fill="#DCE775"></path>
                    <path d="M0.826583333,21.7963333 C1.13691667,21.6276667 9.74225,16.9635952 15.3311667,13.9341667 L12.0639167,10.8883095 L0.291666667,21.8757381 C0.436333333,21.9255714 0.621833333,21.9069524 0.826583333,21.7963333 Z" id="Path" fill="#D32F2F"></path>
                    <path d="M20.0655,10.4436429 C19.6011667,10.2087143 15.3405,7.88297619 15.3405,7.88297619 L15.3049167,7.86380952 L12.0639167,10.8883095 L15.3311667,13.9341667 C17.9165,12.5328095 19.8584167,11.4808333 20.03225,11.3860952 C20.5829167,11.0881905 20.5298333,10.6785714 20.0655,10.4436429 Z" id="Path" fill="#FBC02D"></path>
                </g>
            </g>
        </g>
    </g>
</svg>