<?xml version="1.0" encoding="UTF-8"?>
<svg width="22px" height="22px" viewBox="0 0 22 22" version="1.1" xmlns="http://www.w3.org/2000/svg" xmlns:xlink="http://www.w3.org/1999/xlink">
    <!-- Generator: Sketch 54.1 (76490) - https://sketchapp.com -->
    <title>icon/handle/second</title>
    <desc>Created with Sketch.</desc>
    <g id="icon/handle/second" stroke="none" stroke-width="1" fill="none" fill-rule="evenodd">
        <g id="handle" transform="translate(1.000000, 1.000000)" fill-rule="nonzero">
            <g id="Group" fill="#5B4AE2">
                <path d="M9.97093023,19.9418605 C4.47093023,19.9418605 0,15.4709302 0,9.97093023 C0,4.47093023 4.47093023,0 9.97093023,0 C15.4709302,0 19.9418605,4.47093023 19.9418605,9.97093023 C19.9418605,15.4709302 15.4709302,19.9418605 9.97093023,19.9418605 Z M10.627907,3.75581395 C8.76162791,3.75581395 7.0755814,4.48255814 5.88372093,5.80232558 C4.74418605,7.06395349 4.11046512,8.77325581 4.11046512,10.6046512 C4.11046512,12.2383721 4.66860465,13.6511628 5.72093023,14.6744186 C6.70930233,15.6395349 8.06395349,16.1744186 9.52906977,16.1744186 C10.7906977,16.1744186 11.7674419,15.9534884 12.7034884,15.4593023 L12.7267442,15.4476744 L12.4244186,14.627907 L12.3953488,14.6453488 C11.6744186,15.0523256 10.75,15.2616279 9.72674419,15.2616279 C7.01162791,15.2616279 5.18604651,13.3430233 5.18604651,10.494186 C5.18604651,8.77906977 5.72674419,7.29651163 6.75581395,6.20930233 C7.72674419,5.18604651 9.05232558,4.62209302 10.4883721,4.62209302 C11.8023256,4.62209302 12.8953488,5.05232558 13.6511628,5.86046512 C14.377907,6.63953488 14.7616279,7.73255814 14.7616279,9.01744186 C14.7616279,9.94767442 14.5465116,10.7906977 14.1569767,11.3953488 C13.8081395,11.9302326 13.3488372,12.2383721 12.8953488,12.2383721 L12.877907,12.2383721 C12.6976744,12.2325581 12.5523256,12.1686047 12.4534884,12.0406977 C12.2267442,11.755814 12.1976744,11.1627907 12.372093,10.2848837 L12.9825581,7.04651163 L12.9593023,7.03488372 C12.4418605,6.79651163 11.744186,6.65697674 11.0465116,6.65697674 C9.87209302,6.65697674 8.79069767,7.11627907 7.99418605,7.94767442 C7.23837209,8.73837209 6.80813953,9.81395349 6.80813953,10.9011628 C6.80813953,12.0290698 7.47674419,13.1686047 8.75581395,13.1686047 C9.8255814,13.1686047 10.6511628,12.6569767 11.2790698,11.6046512 L11.3023256,11.6046512 C11.2848837,12.0930233 11.4127907,12.5 11.6802326,12.7790698 C11.9186047,13.0290698 12.2616279,13.1686047 12.6511628,13.1686047 C14.2383721,13.1686047 15.8430233,11.7034884 15.8430233,8.9127907 C15.8313953,5.88372093 13.6918605,3.75581395 10.627907,3.75581395 Z" id="Shape"></path>
            </g>
            <g id="Group" transform="translate(7.692308, 7.692308)">
                <path d="M1.21394231,4.53943525 C0.474759615,4.53943525 0.0300480769,4.04284323 0.0300480769,3.21324245 C0.0300480769,2.37779942 0.330528846,1.58325219 0.877403846,0.975657254 C1.42427885,0.362220058 2.15144231,0.029211295 2.92067308,0.029211295 C3.23317308,0.029211295 3.53365385,0.0701071081 3.80408654,0.146056475 L3.42548077,2.1382668 C3.22115385,3.27166504 2.22956731,4.53943525 1.21394231,4.53943525 Z" id="Path" fill="#5B4AE2"></path>
                <path d="M2.92668269,0.0584225901 C3.22716346,0.0584225901 3.50961538,0.0934761441 3.77403846,0.163583252 L3.39543269,2.13242454 C3.19110577,3.25413827 2.21153846,4.51022395 1.21394231,4.51022395 C0.492788462,4.51022395 0.0600961538,4.02531646 0.0600961538,3.21324245 C0.0600961538,2.38364167 0.360576923,1.59493671 0.901442308,0.993184031 C1.44831731,0.391431353 2.16346154,0.0584225901 2.92668269,0.0584225901 L2.92668269,0.0584225901 Z M2.92668269,0 C1.31009615,0 0.00600961538,1.48393379 0.00600961538,3.21324245 C0.00600961538,4.00194742 0.408653846,4.56864654 1.21995192,4.56864654 C2.28365385,4.56864654 3.25721154,3.24829601 3.46153846,2.1382668 L3.84615385,0.122687439 C3.65985577,0.0701071081 3.34735577,0 2.92668269,0 L2.92668269,0 Z" id="Shape"></path>
            </g>
        </g>
    </g>
</svg>