<?xml version="1.0" encoding="UTF-8"?>
<svg width="32px" height="32px" viewBox="0 0 32 32" version="1.1" xmlns="http://www.w3.org/2000/svg" xmlns:xlink="http://www.w3.org/1999/xlink">
    <!-- Generator: Sketch 54.1 (76490) - https://sketchapp.com -->
    <title>icons8-receive_change</title>
    <desc>Created with Sketch.</desc>
    <g id="Page-2" stroke="none" stroke-width="1" fill="none" fill-rule="evenodd">
        <g id="Mobile/Fiat/Landing-page2" transform="translate(-21.000000, -1461.000000)" fill="#000000" fill-rule="nonzero">
            <g id="icons8-receive_change" transform="translate(21.000000, 1461.000000)">
                <path d="M21.3392654,0 C21.0716399,0 20.8546865,0.217074061 20.8546865,0.484848485 C20.8546865,0.752622909 21.0716399,0.96969697 21.3392654,0.96969697 C21.6068909,0.96969697 21.8238442,0.752622909 21.8238442,0.484848485 C21.8238442,0.217074061 21.6068909,0 21.3392654,0 Z M26.1850539,0 C25.9174283,0 25.700475,0.217074061 25.700475,0.484848485 C25.700475,0.752622909 25.9174283,0.96969697 26.1850539,0.96969697 C26.4526794,0.96969697 26.6696327,0.752622909 26.6696327,0.484848485 C26.6696327,0.217074061 26.4526794,0 26.1850539,0 Z M31.0308423,0 C30.7632168,0 30.5462635,0.217074061 30.5462635,0.484848485 C30.5462635,0.752622909 30.7632168,0.96969697 31.0308423,0.96969697 C31.2984678,0.96969697 31.5154212,0.752622909 31.5154212,0.484848485 C31.5154212,0.217074061 31.2984678,0 31.0308423,0 Z M16.4934769,1.93939394 C16.2258514,1.93939394 16.0088981,2.156468 16.0088981,2.42424242 C16.0088981,2.69201685 16.2258514,2.90909091 16.4934769,2.90909091 C16.7611024,2.90909091 16.9780558,2.69201685 16.9780558,2.42424242 C16.9780558,2.156468 16.7611024,1.93939394 16.4934769,1.93939394 Z M21.3392654,1.93939394 C21.0716399,1.93939394 20.8546865,2.156468 20.8546865,2.42424242 C20.8546865,2.69201685 21.0716399,2.90909091 21.3392654,2.90909091 C21.6068909,2.90909091 21.8238442,2.69201685 21.8238442,2.42424242 C21.8238442,2.156468 21.6068909,1.93939394 21.3392654,1.93939394 Z M23.7621596,1.93939394 C23.4945341,1.93939394 23.2775808,2.156468 23.2775808,2.42424242 C23.2775808,2.69201685 23.4945341,2.90909091 23.7621596,2.90909091 C24.0297851,2.90909091 24.2467385,2.69201685 24.2467385,2.42424242 C24.2467385,2.156468 24.0297851,1.93939394 23.7621596,1.93939394 Z M26.1850539,1.93939394 C25.9174283,1.93939394 25.700475,2.156468 25.700475,2.42424242 C25.700475,2.69201685 25.9174283,2.90909091 26.1850539,2.90909091 C26.4526794,2.90909091 26.6696327,2.69201685 26.6696327,2.42424242 C26.6696327,2.156468 26.4526794,1.93939394 26.1850539,1.93939394 Z M31.0308423,1.93939394 C30.7632168,1.93939394 30.5462635,2.156468 30.5462635,2.42424242 C30.5462635,2.69201685 30.7632168,2.90909091 31.0308423,2.90909091 C31.2984678,2.90909091 31.5154212,2.69201685 31.5154212,2.42424242 C31.5154212,2.156468 31.2984678,1.93939394 31.0308423,1.93939394 Z M28.6079481,2.90909091 C28.3403226,2.90909091 28.1233692,3.12616497 28.1233692,3.39393939 C28.1233692,3.66171382 28.3403226,3.87878788 28.6079481,3.87878788 C28.8755736,3.87878788 29.0925269,3.66171382 29.0925269,3.39393939 C29.0925269,3.12616497 28.8755736,2.90909091 28.6079481,2.90909091 Z M18.9163712,3.39393939 C18.6487457,3.39393939 18.4317923,3.61101345 18.4317923,3.87878788 C18.4317923,4.1465623 18.6487457,4.36363636 18.9163712,4.36363636 C19.1839967,4.36363636 19.40095,4.1465623 19.40095,3.87878788 C19.40095,3.61101345 19.1839967,3.39393939 18.9163712,3.39393939 Z M21.3392654,3.87878788 C21.0716399,3.87878788 20.8546865,4.09586194 20.8546865,4.36363636 C20.8546865,4.63141079 21.0716399,4.84848485 21.3392654,4.84848485 C21.6068909,4.84848485 21.8238442,4.63141079 21.8238442,4.36363636 C21.8238442,4.09586194 21.6068909,3.87878788 21.3392654,3.87878788 Z M23.7621596,3.87878788 C23.4945341,3.87878788 23.2775808,4.09586194 23.2775808,4.36363636 C23.2775808,4.63141079 23.4945341,4.84848485 23.7621596,4.84848485 C24.0297851,4.84848485 24.2467385,4.63141079 24.2467385,4.36363636 C24.2467385,4.09586194 24.0297851,3.87878788 23.7621596,3.87878788 Z M26.1850539,3.87878788 C25.9174283,3.87878788 25.700475,4.09586194 25.700475,4.36363636 C25.700475,4.63141079 25.9174283,4.84848485 26.1850539,4.84848485 C26.4526794,4.84848485 26.6696327,4.63141079 26.6696327,4.36363636 C26.6696327,4.09586194 26.4526794,3.87878788 26.1850539,3.87878788 Z M28.6079481,4.84848485 C28.3403226,4.84848485 28.1233692,5.06555891 28.1233692,5.33333333 C28.1233692,5.60110776 28.3403226,5.81818182 28.6079481,5.81818182 C28.8755736,5.81818182 29.0925269,5.60110776 29.0925269,5.33333333 C29.0925269,5.06555891 28.8755736,4.84848485 28.6079481,4.84848485 Z M18.9163712,5.33333333 C18.6487457,5.33333333 18.4317923,5.55040739 18.4317923,5.81818182 C18.4317923,6.08595624 18.6487457,6.3030303 18.9163712,6.3030303 C19.1839967,6.3030303 19.40095,6.08595624 19.40095,5.81818182 C19.40095,5.55040739 19.1839967,5.33333333 18.9163712,5.33333333 Z M16.4934769,5.81818182 C16.2258514,5.81818182 16.0088981,6.03525588 16.0088981,6.3030303 C16.0088981,6.57080473 16.2258514,6.78787879 16.4934769,6.78787879 C16.7611024,6.78787879 16.9780558,6.57080473 16.9780558,6.3030303 C16.9780558,6.03525588 16.7611024,5.81818182 16.4934769,5.81818182 Z M23.7621596,5.81818182 C19.5022948,5.81818182 16.0380925,9.27133479 16.0117372,13.5274623 C16.0099883,13.5435034 16.0090408,13.5596219 16.0088981,13.5757576 C16.0088407,13.5937888 16.0097886,13.6118092 16.0117372,13.6297348 C16.0411657,17.883232 19.504206,21.3333333 23.7621596,21.3333333 C28.0213872,21.3333333 31.4852018,17.8811976 31.512582,13.6259472 C31.5143951,13.6092777 31.5153427,13.5925253 31.5154212,13.5757576 C31.5154212,13.5594851 31.5136287,13.543712 31.5135284,13.5274623 C31.513218,13.5261983 31.5129025,13.5249356 31.512582,13.5236742 C31.4994969,11.5602143 30.7576358,9.76420752 29.5411408,8.40435588 C28.1218137,6.81777455 26.0550942,5.81818182 23.7621596,5.81818182 Z M31.0308423,5.81818182 C30.7632168,5.81818182 30.5462635,6.03525588 30.5462635,6.3030303 C30.5462635,6.57080473 30.7632168,6.78787879 31.0308423,6.78787879 C31.2984678,6.78787879 31.5154212,6.57080473 31.5154212,6.3030303 C31.5154212,6.03525588 31.2984678,5.81818182 31.0308423,5.81818182 Z M23.7621596,6.78787879 C25.7742235,6.78787879 27.5760558,7.66077091 28.8190049,9.05018958 C28.8190046,9.05050521 28.8190046,9.05082085 28.8190049,9.05113648 C29.8940644,10.2526269 30.5462635,11.8344553 30.5462635,13.5757576 C30.5462635,17.3301915 27.5145056,20.3636364 23.7621596,20.3636364 C20.0098136,20.3636364 16.9780558,17.3301915 16.9780558,13.5757576 C16.9780558,9.82132364 20.0098136,6.78787879 23.7621596,6.78787879 Z M16.4934769,7.75757576 C16.2258514,7.75757576 16.0088981,7.97464982 16.0088981,8.24242424 C16.0088981,8.51019867 16.2258514,8.72727273 16.4934769,8.72727273 C16.7611024,8.72727273 16.9780558,8.51019867 16.9780558,8.24242424 C16.9780558,7.97464982 16.7611024,7.75757576 16.4934769,7.75757576 Z M31.0308423,7.75757576 C30.7632168,7.75757576 30.5462635,7.97464982 30.5462635,8.24242424 C30.5462635,8.51019867 30.7632168,8.72727273 31.0308423,8.72727273 C31.2984678,8.72727273 31.5154212,8.51019867 31.5154212,8.24242424 C31.5154212,7.97464982 31.2984678,7.75757576 31.0308423,7.75757576 Z M23.4668694,9.60984824 L23.4668694,10.2433712 C22.174013,10.3534318 21.394159,11.0641135 21.394159,12.1467801 C21.394159,13.0641135 21.9679686,13.6884771 23.0267734,13.9498104 L23.4668694,14.0549241 L23.4668694,16.0094696 C22.8296482,15.9406211 22.4120774,15.5735985 22.3708882,15.0596592 L21.2521924,15.0596592 C21.2565541,16.141841 22.0998952,16.8664393 23.465923,16.9488635 L23.465923,17.5416669 L24.0990931,17.5416669 L24.0990931,16.9450759 C25.4791737,16.8306516 26.2721269,16.1194623 26.2721269,14.9820078 C26.2726109,14.0137653 25.7178287,13.4220606 24.5533858,13.1515152 L24.0990931,13.0549241 L24.0990931,11.1979166 C24.6490901,11.2711287 25.0338612,11.6470759 25.0474294,12.1193183 L26.1434101,12.1193183 C26.1206354,11.0870759 25.3231398,10.3529469 24.0990931,10.2433712 L24.0990931,9.60984824 L23.4668694,9.60984824 Z M23.4668694,11.1922347 L23.4668694,12.9214017 C22.8524234,12.7929168 22.5270515,12.490432 22.5270515,12.0501896 C22.5270515,11.5818259 22.9217182,11.2247195 23.4668694,11.1922347 Z M24.0990931,14.1742424 C24.8235385,14.316303 25.153431,14.6092272 25.153431,15.1003787 C25.153431,15.6419544 24.7687811,15.9767801 24.0990931,16.0179922 L24.0990931,14.1742424 Z M7.77105771,16.969697 C7.2951475,16.969697 6.84142712,17.0610133 6.4233228,17.2168562 C6.40886781,17.2189712 6.42742088,17.2098075 6.37221475,17.2282196 L6.38451869,17.2234851 C5.33757253,17.5424616 0.372712341,18.9270832 0.372712341,18.9270832 C0.19997878,18.9681084 0.0634905322,19.1003511 0.0169567512,19.2717727 C-0.0295770297,19.4431943 0.0212928302,19.6263535 0.149548657,19.7491758 C0.277804484,19.871998 0.462914959,19.9148218 0.632037714,19.8607956 C0.632037714,19.8607956 5.48396283,18.509775 6.63343328,18.1609847 C6.66772624,18.1557642 6.70135993,18.146875 6.73375612,18.1344698 C7.05877914,18.0097469 7.40592561,17.9393939 7.77105771,17.9393939 C8.30323625,17.9393939 8.79786236,18.0838575 9.2276334,18.3342802 C9.24445924,18.343835 9.26184183,18.3523732 9.27968783,18.3598487 C9.28341908,18.3615937 9.2872899,18.363775 9.29104539,18.3655302 C12.3447803,19.8080242 18.5465774,22.9148912 18.5633477,22.9232955 L18.565241,22.9251893 C18.5366944,22.9099408 18.53949,22.9117692 18.5983663,22.9498104 C18.6091395,22.9568771 18.6201901,22.9635113 18.6314916,22.969697 C19.0896992,23.2168732 19.40095,23.6867336 19.40095,24.2424242 C19.40095,24.5331535 19.3152106,24.7992766 19.1681249,25.0274623 C18.7417643,25.6913745 17.9176139,25.8316422 17.1465225,25.4602274 C17.1375032,25.4558406 17.1283499,25.4517351 17.119076,25.4479166 L16.7887672,25.3134468 C16.6271955,25.2414762 16.4392696,25.263286 16.2984527,25.3703503 C16.1576359,25.4774146 16.0862919,25.65273 16.1123103,25.8277629 C16.1383288,26.0027958 16.2575775,26.1497483 16.4234403,26.2111743 L16.7537486,26.3456441 L16.7263021,26.3333333 C17.7013096,26.8029697 18.8911387,26.697552 19.6536501,25.9554924 L20.1808191,26.316288 C20.3160166,26.4086225 20.4886629,26.4264309 20.6398442,26.3636364 L28.5909122,23.0748107 L28.3893197,22.6723486 C28.5038989,22.901245 28.7765787,23.0015873 29.0120791,22.9015152 C29.1854551,22.8282051 29.3751653,22.7878788 29.5771058,22.7878788 C30.3856178,22.7878788 31.0308423,23.4334623 31.0308423,24.2424242 C31.0308423,24.7945867 30.7232312,25.2630531 30.2689555,25.5123108 C30.0478585,25.6334599 29.9565041,25.9039704 30.0588455,26.1344698 L29.8771284,25.7253789 L20.3237321,30.7992427 C20.3398443,30.7913445 20.3257208,30.798175 20.3038566,30.8049241 C20.2811517,30.8121217 20.2590079,30.8209842 20.2376054,30.8314395 C19.9763341,30.9573653 19.6972244,31.030303 19.40095,31.030303 C19.1155418,31.030303 18.8471481,30.9645532 18.5964735,30.8494318 C18.5853005,30.8442657 18.5739349,30.8395274 18.5624013,30.8352272 C18.5260104,30.8217425 18.5198563,30.8190623 18.5453655,30.8304926 L6.50566341,25.7348485 C6.39716713,25.6890422 6.27571349,25.6843295 6.16399752,25.7215908 L0.349051276,27.6609847 C0.0950160605,27.7457102 -0.0422747895,28.0204446 0.04240358,28.2746212 C0.12708195,28.5287978 0.401663563,28.666165 0.655698779,28.5814395 L6.29744569,26.6998104 L18.1554312,31.7178032 C18.2285362,31.7510492 18.2440267,31.751791 18.2264142,31.745265 C18.5817666,31.9033508 18.978579,32 19.40095,32 C19.8577111,32 20.2833337,31.8859888 20.6578264,31.7054924 C20.6870465,31.6951263 20.7129022,31.6884572 20.7496313,31.6704543 C20.7544051,31.668008 20.759138,31.6654826 20.763828,31.662879 L30.7308197,26.3702652 C30.8107507,26.3272224 30.8769931,26.2625837 30.9220015,26.183712 C31.5476582,25.7474172 32,25.0643103 32,24.2424242 C32,22.9093256 30.9094631,21.8181818 29.5771058,21.8181818 C29.311951,21.8181818 29.0665109,21.8902865 28.8265765,21.969697 L28.8256301,21.969697 C28.7610165,21.9693218 28.6969802,21.9818786 28.6372879,22.0066288 L20.5111279,25.367424 L20.1136216,25.0956441 C20.2237411,24.8192601 20.3701077,24.5572063 20.3701077,24.2424242 C20.3701077,23.3212664 19.8466424,22.5229023 19.0914631,22.1155302 L19.1245889,22.1354167 C19.1407244,22.1458458 19.1085687,22.115567 19.0223728,22.0691287 C19.0183035,22.0668601 19.0142018,22.0646502 19.0100688,22.0624999 C19.0100688,22.0624999 12.7761534,18.938319 9.69423001,17.4829547 C9.69077851,17.4813354 9.68730804,17.479757 9.68381932,17.4782196 C9.63076375,17.4546269 9.62545809,17.4544795 9.65163989,17.4649619 C9.0950691,17.1539598 8.45423199,16.969697 7.77105771,16.969697 Z M10.6785308,23.2727273 C10.4109053,23.2727273 10.1939519,23.4898013 10.1939519,23.7575758 C10.1939519,24.0253502 10.4109053,24.2424242 10.6785308,24.2424242 C10.9461563,24.2424242 11.1631096,24.0253502 11.1631096,23.7575758 C11.1631096,23.4898013 10.9461563,23.2727273 10.6785308,23.2727273 Z M12.1322673,23.7575758 C11.8646418,23.7575758 11.6476885,23.9746498 11.6476885,24.2424242 C11.6476885,24.5101987 11.8646418,24.7272727 12.1322673,24.7272727 C12.3998928,24.7272727 12.6168462,24.5101987 12.6168462,24.2424242 C12.6168462,23.9746498 12.3998928,23.7575758 12.1322673,23.7575758 Z M13.5860039,24.2424242 C13.3183784,24.2424242 13.101425,24.4594983 13.101425,24.7272727 C13.101425,24.9950472 13.3183784,25.2121212 13.5860039,25.2121212 C13.8536294,25.2121212 14.0705827,24.9950472 14.0705827,24.7272727 C14.0705827,24.4594983 13.8536294,24.2424242 13.5860039,24.2424242 Z M15.0397404,24.7272727 C14.7721149,24.7272727 14.5551616,24.9443468 14.5551616,25.2121212 C14.5551616,25.4798956 14.7721149,25.6969697 15.0397404,25.6969697 C15.3073659,25.6969697 15.5243192,25.4798956 15.5243192,25.2121212 C15.5243192,24.9443468 15.3073659,24.7272727 15.0397404,24.7272727 Z" id="Shape"></path>
            </g>
        </g>
    </g>
</svg>