<?xml version="1.0" encoding="UTF-8"?>
<svg width="31px" height="36px" viewBox="0 0 31 36" version="1.1" xmlns="http://www.w3.org/2000/svg" xmlns:xlink="http://www.w3.org/1999/xlink">
    <!-- Generator: Sketch 54.1 (76490) - https://sketchapp.com -->
    <title>icons8-no_apple</title>
    <desc>Created with Sketch.</desc>
    <g id="Page-2" stroke="none" stroke-width="1" fill="none" fill-rule="evenodd">
        <g id="Mobile/Fiat/Landing-page2" transform="translate(-21.000000, -1596.000000)" fill="#000000" fill-rule="nonzero">
            <g id="icons8-no_apple" transform="translate(21.000000, 1596.000000)">
                <path d="M0.585729445,0.00217994126 C0.559119072,0.00779911313 0.532509317,0.016227835 0.5083179,0.0246566287 C0.276083265,0.0724196256 0.0898118893,0.269090785 0.0244957433,0.530382097 C-0.0408204027,0.794483534 0.0269148541,1.07544213 0.19867172,1.26087444 L29.924705,35.7850664 C30.1714546,36.0716445 30.5681888,36.0716445 30.8149378,35.7850664 C31.0616874,35.498489 31.0616874,35.0377169 30.8149378,34.7511388 L26.7508317,30.0310344 C29.1215602,26.757867 30.9891138,22.1557649 30.9891138,16.5674986 C30.9891138,11.0298046 27.2322349,6.39398812 22.4157852,5.84611869 C23.7680682,3.5619255 23.8672516,0.788864003 23.8672516,0.788864003 C23.8769281,0.595002753 23.8188694,0.40395091 23.7075906,0.257852441 C23.5938923,0.114563379 23.4342306,0.0302758006 23.2673121,0.0246566287 C23.2673121,0.0246566287 19.8442702,-0.10739409 17.5582107,2.38470881 C16.9316609,3.06743838 16.476868,3.84007469 16.1260971,4.60990087 L16.1260971,0.0246566287 L14.8875124,0.0246566287 L14.8875124,7.64425368 C13.3296051,6.45579865 11.471728,5.77868862 9.56546867,5.77868862 C8.46961164,5.77868862 7.40036437,6.00064609 6.41094821,6.40803587 L1.08890449,0.226946816 C0.960691771,0.0668004537 0.774420396,-0.0146775743 0.585729445,0.00217994126 Z M22.4738438,1.57554806 C22.3480501,2.54204563 22.0214699,4.40761069 20.8482014,5.80116531 C19.3193234,5.91354875 17.850923,6.467037 16.5518606,7.35205675 C16.8155435,6.20855509 17.3380715,4.59023359 18.4097377,3.41863644 C19.8176605,1.88460288 21.598126,1.64859766 22.4738438,1.57554806 Z M9.56546867,7.21719662 C11.6096171,7.21719662 13.5957075,8.0853585 15.0810413,9.66715556 L15.5068048,10.0942126 L15.9325683,9.66715556 C17.3525864,8.21740921 19.0919272,7.37172403 20.9449658,7.23967331 C21.078017,7.28462668 21.2207447,7.27900787 21.3513764,7.21719662 C21.3828247,7.21719662 21.4142736,7.21719662 21.4481408,7.21719662 C26.029937,7.21719662 29.750529,11.4568616 29.750529,16.6349287 C29.750529,21.8495202 28.0015118,26.0105168 25.8605989,28.9971068 L20.0160273,22.2091472 C20.2700337,21.6303728 20.4611436,20.9476433 20.4611436,20.1637686 C20.4611436,18.7252606 19.7716972,17.5705206 19.3386762,16.9945557 C18.9661335,16.4916396 18.2404003,16.4916396 17.8678569,16.9945557 C17.5969165,17.3541827 17.2146973,17.941386 16.9776241,18.6803072 L7.4172983,7.57682362 C8.09464932,7.35767628 8.81070611,7.21719662 9.56546867,7.21719662 Z M4.1660134,7.71168375 C1.62594739,9.72615668 0.0244957433,12.9656098 0.0244957433,16.6349287 C0.0244957433,27.4237387 8.99697748,35.9873566 12.5264603,35.9873566 C13.5787736,35.9873566 14.5778662,35.7092074 15.5068048,35.1332425 C16.4357433,35.7092074 17.4348359,35.9873566 18.4871492,35.9873566 C20.1587549,35.9873566 22.6915641,34.6162787 25.1058363,32.0988897 L24.1768978,31.0200087 C21.946478,33.3210597 19.725734,34.5488486 18.4871492,34.5488486 C17.5582107,34.5488486 16.6824929,34.2706994 15.8164509,33.6947345 L15.5068048,33.4699676 L15.1971586,33.6947345 C14.3311172,34.2706994 13.4553988,34.5488486 12.5264603,34.5488486 C9.73964465,34.5488486 1.26308046,26.4881467 1.26308046,16.6349287 C1.26308046,13.3252368 2.74599522,10.4482208 5.03689329,8.72313468 L4.1660134,7.71168375 Z M12.2168141,17.1518925 C11.7837931,17.7278574 11.1717582,18.8685497 11.1717582,20.1637686 C11.1717582,21.6022766 11.8612047,22.7570166 12.2942256,23.3329815 C12.480497,23.6195597 12.7199891,23.7600386 13.0296353,23.7600386 C13.3392815,23.7600386 13.5787736,23.6195597 13.765045,23.3329815 C14.198066,22.7570166 14.8246158,21.5966578 14.8875124,20.2311987 L12.2168141,17.1518925 Z M13.0296353,18.2307735 C13.3392815,18.7336895 13.6489277,19.3714657 13.6489277,20.1637686 C13.6489277,20.9560722 13.3392815,21.6640879 13.0296353,22.0967637 C12.7199891,21.5938477 12.410343,20.9560722 12.410343,20.1637686 C12.410343,19.3714657 12.7199891,18.6634501 13.0296353,18.2307735 Z M18.6032666,18.2307735 C18.9129127,18.7336895 19.2225589,19.3714657 19.2225589,20.1637686 C19.2225589,20.4981095 19.1548238,20.8155925 19.0677358,21.1077895 L18.0033271,19.8715717 C18.0662243,19.197271 18.3323262,18.6072584 18.6032666,18.2307735 Z" id="Shape"></path>
            </g>
        </g>
    </g>
</svg>