<?xml version="1.0" encoding="UTF-8"?>
<svg width="32px" height="40px" viewBox="0 0 32 40" version="1.1" xmlns="http://www.w3.org/2000/svg" xmlns:xlink="http://www.w3.org/1999/xlink">
    <!-- Generator: Sketch 54.1 (76490) - https://sketchapp.com -->
    <title>icons8-geography_filled</title>
    <desc>Created with Sketch.</desc>
    <g id="Page-2" stroke="none" stroke-width="1" fill="none" fill-rule="evenodd">
        <g id="Mobile/Fiat/Landing-page2" transform="translate(-21.000000, -1895.000000)" fill="#000000" fill-rule="nonzero">
            <g id="icons8-geography_filled" transform="translate(21.000000, 1895.000000)">
                <path d="M9.96340053,3.11214902e-05 C9.88178844,3.11214902e-05 9.80017636,0.0171545524 9.71856427,0.051400788 C9.39706117,0.188386983 9.25114821,0.557760629 9.38964172,0.875764608 L9.70372536,1.58760312 C1.46088884,5.49415632 -2.25617808,15.2152835 1.41637276,23.5714414 C3.23657312,27.7152741 6.5777291,30.9050955 10.8289853,32.5611605 C12.6541315,33.2729997 14.553471,33.6619422 16.46023,33.7304352 L16.46023,36.2426644 L10.247807,36.2426644 C8.86287194,36.2426644 7.53729124,36.8982412 6.70385727,37.9965767 L5.94461593,38.9995117 C5.79870297,39.1878676 5.77644524,39.4422705 5.88526157,39.6550885 C5.99160495,39.8654598 6.21171055,40 6.44912798,40 L30.5074284,40 C30.7497923,40 30.967425,39.8654598 31.0737677,39.6550885 C31.1825841,39.4422705 31.1578534,39.1878676 31.0144134,38.9995117 L30.2551727,37.9965767 C29.4242116,36.8982412 28.0986309,36.2426644 26.7087494,36.2426644 L20.258909,36.2426644 L20.258909,33.4466781 C21.2951373,33.2509836 22.3214733,32.9598884 23.3230779,32.5709453 L23.634688,33.2827844 C23.7385585,33.5176179 23.9710294,33.6594961 24.2158663,33.6594961 C24.3024249,33.6594961 24.3865099,33.6423727 24.4681226,33.6081265 C24.7896251,33.4711403 24.935538,33.1017666 24.7970445,32.7837633 L24.4804879,32.0645854 C27.6163766,30.5797528 30.1834523,28.2436494 31.9146212,25.2544146 C32.0902113,24.9535341 31.9863415,24.5694836 31.6821502,24.3982512 C31.3804319,24.2270181 30.9921557,24.3297581 30.8165655,24.628192 C29.2214173,27.3825933 26.8596082,29.5401256 23.9759759,30.9148802 L22.9620053,28.6105764 C25.9396156,27.1648826 28.2395974,24.7211472 29.4637812,21.6511886 C29.7061445,21.0396428 29.8866805,20.4183128 30.0325935,19.7920902 C30.040013,19.7627361 30.0523783,19.7407206 30.0548512,19.7089197 C30.0548512,19.7064737 30.0548512,19.7015817 30.0548512,19.696689 C30.6112988,17.2602917 30.4530205,14.7333858 29.5824899,12.3605889 C29.5775434,12.2920958 29.567651,12.2260493 29.5379738,12.1600022 L29.0334618,11.0102964 C29.0037846,10.9442499 28.9592692,10.8928796 28.9147531,10.84151 C27.7548701,8.59591516 25.9964971,6.75883228 23.8176976,5.49904837 C23.8127511,5.49415632 23.8102781,5.48926364 23.8078052,5.48437159 C23.7731815,5.45990946 23.7336119,5.45012473 23.6989889,5.43055527 C23.1425419,5.11744397 22.5712561,4.8287948 21.9653471,4.59396132 C18.8591356,3.38310105 15.483356,3.38065503 12.3845639,4.54748371 L10.5519982,0.37674347 C10.4481278,0.139463342 10.2107104,-0.002414904 9.96340053,3.11214902e-05 Z M10.2082374,2.73486297 L11.224681,5.04895087 C8.24954356,6.49464462 5.94708887,8.93838064 4.72537862,12.0083386 C4.48796118,12.602761 4.3098981,13.2094142 4.16398514,13.82096 C4.15161981,13.862545 4.13183502,13.9016839 4.12688851,13.9481615 C4.12688851,13.9554996 4.12936208,13.9628383 4.12936208,13.970177 C3.51356013,16.6707619 3.76334353,19.4863176 4.90096876,22.0743779 C6.03859398,24.6624389 7.95029882,26.7612627 10.3665157,28.1580329 C10.3714622,28.1629249 10.3739352,28.1678176 10.378881,28.1727096 C10.440709,28.2191872 10.5050092,28.2534341 10.574256,28.2754496 C11.1034993,28.5689914 11.647581,28.8405178 12.2188662,29.0631199 C13.7991762,29.6795578 15.4487329,29.987777 17.0958161,29.987777 C18.6884914,29.987777 20.2762208,29.6820044 21.8021223,29.1095975 L22.8185659,31.4212394 C21.1022353,32.0841549 19.3141857,32.4388511 17.5162431,32.4853287 L17.0933431,32.4853287 C17.0859237,32.4853287 17.0809778,32.4877748 17.0735583,32.4877748 C15.119811,32.4853287 13.1635901,32.1257398 11.2939277,31.3967779 C7.35922816,29.8630216 4.26290907,26.9080337 2.57625634,23.0724202 C-0.816834547,15.3498236 2.60593352,6.36499713 10.2082374,2.73486297 Z M17.0908702,4.92664208 C18.5796751,4.92664208 20.0734264,5.2030605 21.5028776,5.75834398 C21.8144876,5.88065277 22.113733,6.02253164 22.4129778,6.16685591 C21.7848105,6.86157161 21.0503004,7.53916451 20.2218123,8.1874026 C18.9753708,6.67810843 17.6077476,5.58221887 16.2327049,4.97067305 C16.5171114,4.94865756 16.8039908,4.92664208 17.0908702,4.92664208 Z M13.6582097,5.6604967 C15.4314211,5.63114251 17.434631,6.82732538 19.2004229,8.93838064 C18.0158086,9.75785116 16.6951745,10.5063832 15.2879817,11.1521752 L12.9113337,5.7461126 C13.1561706,5.69229691 13.4034804,5.66294272 13.6582097,5.6604967 Z M11.7514508,6.24513374 L14.1256252,11.6511964 C12.6887552,12.2284953 11.2345734,12.6737002 9.82243408,12.9721347 C9.41190008,9.86548317 10.101894,7.35080802 11.7514508,6.24513374 Z M23.5431835,6.78818647 C25.5612318,8.04797038 27.1514341,9.87282187 28.1233616,12.0841704 C29.0977627,14.297965 29.3623837,16.6927774 28.917226,19.011758 C27.806805,18.9652804 26.6271373,19.0337735 25.4029535,19.2196833 C25.261987,18.5738913 25.0839239,17.9109764 24.8613448,17.2333835 C24.7525284,16.9055954 24.3964023,16.7245776 24.0650074,16.8297636 C23.731139,16.9373956 23.54813,17.2920919 23.6569464,17.6198806 C23.8597401,18.2412105 24.0254379,18.8503103 24.154039,19.4422861 C22.6479223,19.7578434 21.0997624,20.234849 19.556549,20.8610716 L18.91849,19.4104858 C18.7775229,19.0924819 18.4065585,18.9481576 18.0850554,19.0875898 C17.7635529,19.224576 17.61764,19.5939497 17.7561335,19.911953 L18.3941932,21.3600928 C16.8781834,22.0499164 15.4685177,22.8473715 14.2121837,23.7206583 C13.8610035,23.2216372 13.5221892,22.6883698 13.2006867,22.1159629 C13.0300424,21.815083 12.6467127,21.7074509 12.3400485,21.8737913 C12.0358572,22.0425777 11.924568,22.4217361 12.0952116,22.722616 C12.4439183,23.3463926 12.8148834,23.9261376 13.1982131,24.4691903 C12.2262856,25.2275064 11.3681204,26.0347468 10.6435027,26.8713408 C8.6254545,25.6115575 7.03525213,23.7867054 6.06332465,21.5753568 C5.08892423,19.3615622 4.82430255,16.9643038 5.26946025,14.6453232 C5.4870929,14.6551079 5.70225261,14.6697847 5.92730408,14.6697847 C6.84235077,14.6697847 7.80191292,14.5866148 8.78373279,14.4398439 C8.92469924,15.085636 9.10276232,15.7485515 9.32534148,16.4261437 C9.41190008,16.6903314 9.65920991,16.8591178 9.92877747,16.8591178 C9.99307771,16.8591178 10.0573786,16.8493331 10.1216788,16.8297636 C10.4555473,16.7221316 10.6385568,16.3674354 10.5322135,16.0396467 C10.3269461,15.4183167 10.163722,14.8092176 10.0351209,14.2147952 C11.5412376,13.9016839 13.0869239,13.4271242 14.6326101,12.8009016 L15.2706698,14.2490414 C15.3720667,14.4838749 15.6045383,14.6257538 15.8493745,14.6257538 C15.9359331,14.6257538 16.0200188,14.6086303 16.1041038,14.5743841 C16.4231333,14.4373979 16.5690463,14.0680242 16.4305528,13.7500203 L15.7949667,12.2994345 C17.3109758,11.6096114 18.7181686,10.8146018 19.9745025,9.94131497 C20.3281557,10.4378901 20.66697,10.9711575 20.9884731,11.5435644 C21.1566438,11.8444449 21.5399742,11.954523 21.8491113,11.7881826 C22.1533026,11.6193962 22.2645919,11.2377918 22.0939482,10.9369112 C21.7452409,10.3131346 21.3742765,9.73094363 20.9909461,9.19033693 C21.9628735,8.42957478 22.8185659,7.62233439 23.5431835,6.78818647 Z M8.90986096,8.12135553 C8.42513369,9.53524906 8.30147846,11.267146 8.56857308,13.1996295 C7.52492591,13.3561851 6.52332125,13.4246782 5.58107032,13.4051088 C5.67752131,13.0895514 5.77891818,12.7764401 5.90257341,12.4682209 C6.57278322,10.7852476 7.60653799,9.31753839 8.90986096,8.12135553 Z M25.5439199,11.8835838 C25.4623078,11.8835838 25.3782228,11.9007066 25.2966101,11.9373995 C24.9775806,12.0743857 24.8291947,12.4413133 24.9676882,12.7593167 L25.4722002,13.9065759 C25.5760707,14.143856 25.8085416,14.2857343 26.0558514,14.2857343 C26.1399371,14.2857343 26.2240221,14.2686109 26.3056342,14.2343646 C26.6271373,14.0949324 26.7730502,13.7255588 26.6345567,13.4075548 L26.1300447,12.2602956 C26.0261742,12.0230161 25.7912297,11.8811372 25.5439199,11.8835838 Z M22.6405028,13.1311364 C22.5588907,13.1335824 22.4748051,13.1507058 22.3956659,13.1849527 C22.0741634,13.3219389 21.9257775,13.6913119 22.066744,14.0093159 L22.5712561,15.1565751 C22.6751259,15.3914086 22.9075974,15.5332875 23.1524343,15.5332875 C23.2365193,15.5332875 23.320605,15.516164 23.40469,15.4819172 C23.7237195,15.344931 23.8721054,14.9755579 23.731139,14.657554 L23.2266269,13.5102947 C23.1227571,13.2705686 22.8878126,13.1286903 22.6405028,13.1311364 Z M19.7370851,14.3811355 C19.655473,14.3811355 19.571388,14.398259 19.4897752,14.4325052 C19.1707457,14.5694914 19.0248328,14.9388651 19.1633263,15.2568684 L19.6678383,16.4065743 C19.7717088,16.6414078 20.0041797,16.78084 20.2490166,16.78084 C20.3355752,16.78084 20.4196602,16.7661632 20.5012729,16.7319163 C20.8227754,16.5924841 20.9686883,16.2231105 20.8301948,15.9075531 L20.3256828,14.7554012 C20.2193394,14.5181217 19.9843949,14.3762429 19.7370851,14.3811355 Z M16.8361409,15.6286881 C16.7520559,15.6286881 16.6679702,15.6458115 16.5888311,15.6825044 C16.2673286,15.8194906 16.1214156,16.1864176 16.2623821,16.5044216 L16.7668941,17.6516808 C16.868291,17.8889603 17.1007626,18.0308392 17.3480724,18.0308392 C17.4321574,18.0308392 17.5162431,18.0137157 17.5978552,17.9770228 C17.9193583,17.8400367 18.0652706,17.4731097 17.9267771,17.1551057 L17.422265,16.0078465 C17.3183952,15.7681209 17.0809778,15.6262421 16.8361409,15.6286881 Z M13.9302502,16.8786873 C13.8486381,16.8786873 13.7645531,16.8958107 13.685414,16.9300569 C13.3639109,17.0670431 13.2179979,17.4364168 13.3564914,17.7544208 L13.8610035,18.904126 C13.9648739,19.1389595 14.1973448,19.2783917 14.4421817,19.2783917 C14.5287403,19.2783917 14.6128254,19.2612689 14.696911,19.227022 C15.0159405,19.0900358 15.1618535,18.7206622 15.02336,18.4051049 L14.5188479,17.252953 C14.4149775,17.0181195 14.1775601,16.8762412 13.9302502,16.8786873 Z M11.0293061,18.1237938 C10.947694,18.1262404 10.8636083,18.1433632 10.7819962,18.1776101 C10.4629667,18.3145963 10.3145808,18.6839699 10.4555473,19.0019733 L10.9600593,20.1492325 C11.0639298,20.3865126 11.2964007,20.5283909 11.5412376,20.5283909 C11.6253226,20.5283909 11.7094083,20.5112675 11.7910203,20.4770212 C12.1125234,20.337589 12.2609093,19.9682154 12.1199423,19.6502114 L11.6154302,18.5029521 C11.5115604,18.2656726 11.2766159,18.1213477 11.0293061,18.1237938 Z M8.12588896,19.373793 C8.04427624,19.376239 7.96019121,19.3909164 7.88105207,19.4251626 C7.55954897,19.5645955 7.41363664,19.9339685 7.55213015,20.2519725 L8.0566422,21.3992317 C8.16051202,21.6365112 8.39298357,21.775944 8.63781983,21.775944 C8.72190549,21.775944 8.80599052,21.7588206 8.89007618,21.7221277 C9.2091057,21.5851415 9.3574916,21.2182145 9.2189981,20.9002106 L8.71448604,19.7529513 C8.60814265,19.5132252 8.37319879,19.373793 8.12588896,19.373793 Z M28.6080889,20.2544185 C28.5091649,20.5699758 28.4077681,20.8830871 28.2841128,21.1913064 C27.6139037,22.8742796 26.5801483,24.3419889 25.2768253,25.5381717 C25.7615526,24.1242788 25.8852078,22.3923819 25.6181132,20.4598978 C26.6617603,20.3033421 27.6658386,20.234849 28.6080889,20.2544185 Z M24.3642522,20.6873926 C24.7747868,23.7940441 24.0847922,26.3087192 22.4352355,27.4143935 L20.0610611,22.0083309 C21.4954581,21.4310319 22.9496399,20.9858271 24.3642522,20.6873926 Z M18.9011782,22.507352 L21.2753525,27.9134146 C19.3339705,28.3512814 17.0043116,27.1355284 14.9862634,24.7211472 C16.1708776,23.9016761 17.4939854,23.1531441 18.9011782,22.507352 Z M13.9599274,25.4745713 C15.206369,26.9838655 16.5715192,28.0748624 17.9465619,28.6888542 C16.1758235,28.8160557 14.3853003,28.5640988 12.6838087,27.8987372 C12.3721986,27.7788745 12.0729539,27.6369962 11.7737085,27.4926713 C12.3994028,26.7979556 13.1339129,26.1203634 13.9599274,25.4745713 Z M17.7264563,33.737774 L18.9926826,33.737774 L18.9926826,36.2426644 L17.7264563,36.2426644 L17.7264563,33.737774 Z M10.247807,37.4951096 L26.7087494,37.4951096 C27.7004616,37.4951096 28.6476584,37.9623305 29.241202,38.7475548 L7.71535432,38.7475548 C8.31137086,37.9623305 9.25856767,37.4951096 10.247807,37.4951096 Z" id="Shape"></path>
            </g>
        </g>
    </g>
</svg>