<?xml version="1.0" encoding="UTF-8"?>
<svg width="32px" height="30px" viewBox="0 0 32 30" version="1.1" xmlns="http://www.w3.org/2000/svg" xmlns:xlink="http://www.w3.org/1999/xlink">
    <!-- Generator: Sketch 54.1 (76490) - https://sketchapp.com -->
    <title>icons8-online_payment</title>
    <desc>Created with Sketch.</desc>
    <g id="Page-2" stroke="none" stroke-width="1" fill="none" fill-rule="evenodd">
        <g id="Mobile/Fiat/Landing-page2" transform="translate(-21.000000, -1206.000000)" fill="#000000" fill-rule="nonzero">
            <g id="icons8-online_payment" transform="translate(21.000000, 1206.000000)">
                <path d="M10.1033708,0 C8.76828499,0 7.67199498,1.07596409 7.67199498,2.3862966 L7.67199498,16.3631767 L7.32465557,16.3631767 C6.74937468,16.3631767 6.28263735,16.8212604 6.28263735,17.3858752 C6.28263735,17.95049 6.74937468,18.4085737 7.32465557,18.4085737 L24.691626,18.4085737 C25.2669069,18.4085737 25.7336442,17.95049 25.7336442,17.3858752 C25.7336442,16.8212604 25.2669069,16.3631767 24.691626,16.3631767 L24.3442866,16.3631767 L24.3442866,2.3862966 C24.3442866,1.07596409 23.2479965,0 21.9129107,0 L10.1033708,0 Z M10.1033708,1.36359805 L11.1453891,1.36359805 L11.1453891,17.0449757 L9.06135261,17.0449757 L9.06135261,2.3862966 C9.06135261,1.81369177 9.519949,1.36359805 10.1033708,1.36359805 Z M13.2294255,1.36359805 L21.9129107,1.36359805 C22.4963325,1.36359805 22.9549289,1.81369177 22.9549289,2.3862966 L22.9549289,17.0449757 L13.2294255,17.0449757 L13.2294255,1.36359805 Z M2.11456445,5.45439222 C0.972143607,5.45439222 0.0305280079,6.37854967 0.0305280079,7.4997893 L0.0305280079,22.2863057 C-0.0101760026,22.4194699 -0.0101760026,22.5579604 0.0305280079,22.6911239 L0.0305280079,23.862966 C0.0305280079,24.9842056 0.972143607,25.908363 2.11456445,25.908363 L11.7098156,25.908363 L11.2539326,28.6355592 L9.75603143,28.6355592 C9.73432271,28.6355592 9.712614,28.6355592 9.69090529,28.6355592 C9.30828939,28.6542023 9.00979424,28.9737956 9.02878954,29.3493175 C9.04778484,29.7248395 9.37341553,30.0178003 9.75603143,29.9991572 L22.2602501,29.9991572 C22.5099003,30.0018203 22.7432693,29.873983 22.8708075,29.6609208 C22.9956329,29.4478586 22.9956329,29.1868578 22.8708075,28.9737956 C22.7432693,28.7607334 22.5099003,28.632896 22.2602501,28.6355592 L20.7623489,28.6355592 L20.3064659,25.908363 L29.9017171,25.908363 C31.0441379,25.908363 31.9857535,24.9842056 31.9857535,23.862966 L31.9857535,22.6272052 C32.0047488,22.5366541 32.0047488,22.4407761 31.9857535,22.3502244 L31.9857535,7.4997893 C31.9857535,6.37854967 31.0441379,5.45439222 29.9017171,5.45439222 L25.0389654,5.45439222 L25.0389654,6.81799027 L29.9017171,6.81799027 C30.2951873,6.81799027 30.5963959,7.11361424 30.5963959,7.4997893 L30.5963959,21.8175689 L1.41988564,21.8175689 L1.41988564,7.4997893 C1.41988564,7.11361424 1.72109421,6.81799027 2.11456445,6.81799027 L6.97731616,6.81799027 L6.97731616,5.45439222 L2.11456445,5.45439222 Z M1.41988564,23.1811669 L30.5963959,23.1811669 L30.5963959,23.862966 C30.5963959,24.249141 30.2951873,24.544765 29.9017171,24.544765 L2.11456445,24.544765 C1.72109421,24.544765 1.41988564,24.249141 1.41988564,23.862966 L1.41988564,23.1811669 Z M13.1425907,25.908363 L18.8736909,25.908363 L19.3512826,28.6355592 L12.664999,28.6355592 L13.1425907,25.908363 Z" id="Shape"></path>
            </g>
        </g>
    </g>
</svg>