<?xml version="1.0" encoding="UTF-8"?>
<svg width="32px" height="32px" viewBox="0 0 32 32" version="1.1" xmlns="http://www.w3.org/2000/svg" xmlns:xlink="http://www.w3.org/1999/xlink">
    <!-- Generator: Sketch 54.1 (76490) - https://sketchapp.com -->
    <title>icons8-private2</title>
    <desc>Created with Sketch.</desc>
    <g id="Page-2" stroke="none" stroke-width="1" fill="none" fill-rule="evenodd">
        <g id="Mobile/Fiat/Landing-page2" transform="translate(-21.000000, -1729.000000)" fill="#000000" fill-rule="nonzero">
            <g id="icons8-private2" transform="translate(21.000000, 1729.000000)">
                <path d="M16,0 C7.17168348,0 0,7.17168348 0,16 C0,24.8283165 7.17168348,32 16,32 C24.8283165,32 32,24.8283165 32,16 C32,7.17168348 24.8283165,0 16,0 Z M16,1.39130435 C24.0763993,1.39130435 30.6086957,7.9236007 30.6086957,16 C30.6086957,24.0763993 24.0763993,30.6086957 16,30.6086957 C7.9236007,30.6086957 1.39130435,24.0763993 1.39130435,16 C1.39130435,7.9236007 7.9236007,1.39130435 16,1.39130435 Z M16,6.26086957 C13.6877843,6.26086957 11.826087,8.12256696 11.826087,10.4347826 L11.826087,12.5217391 L11.1304348,12.5217391 C9.98577043,12.5217391 9.04347826,13.4640313 9.04347826,14.6086957 L9.04347826,21.5652174 C9.04347826,22.7098817 9.98577043,23.6521739 11.1304348,23.6521739 L20.8695652,23.6521739 C22.0142296,23.6521739 22.9565217,22.7098817 22.9565217,21.5652174 L22.9565217,14.6086957 C22.9565217,13.4640313 22.0142296,12.5217391 20.8695652,12.5217391 L20.173913,12.5217391 L20.173913,10.4347826 C20.173913,8.12256696 18.3122157,6.26086957 16,6.26086957 Z M16,7.65217391 C17.5834365,7.65217391 18.7826087,8.85134609 18.7826087,10.4347826 L18.7826087,12.5217391 L13.2173913,12.5217391 L13.2173913,10.4347826 C13.2173913,8.85134609 14.4165635,7.65217391 16,7.65217391 Z M11.1304348,13.9130435 L12.4048911,13.9130435 C12.4800156,13.9254602 12.5566689,13.9254602 12.6317934,13.9130435 L19.3614129,13.9130435 C19.4365373,13.9254602 19.5131907,13.9254602 19.5883151,13.9130435 L20.8695652,13.9130435 C21.2553357,13.9130435 21.5652174,14.2229252 21.5652174,14.6086957 L21.5652174,21.5652174 C21.5652174,21.9509878 21.2553357,22.2608696 20.8695652,22.2608696 L11.1304348,22.2608696 C10.7446643,22.2608696 10.4347826,21.9509878 10.4347826,21.5652174 L10.4347826,14.6086957 C10.4347826,14.2229252 10.7446643,13.9130435 11.1304348,13.9130435 Z M16,16 C15.2316038,16 14.6086957,16.6229082 14.6086957,17.3913043 C14.6090886,17.8879763 14.874217,18.346773 15.3043478,18.5951089 L15.3043478,19.4782609 C15.3043478,19.8956522 15.5826087,20.173913 16,20.173913 C16.4173913,20.173913 16.6956522,19.8956522 16.6956522,19.4782609 L16.6956522,18.5937503 C17.1253633,18.3456574 17.3904269,17.8874908 17.3913043,17.3913043 C17.3913043,16.6229082 16.7683962,16 16,16 Z" id="Shape"></path>
            </g>
        </g>
    </g>
</svg>