<?xml version="1.0" encoding="UTF-8"?>
<svg width="21px" height="17px" viewBox="0 0 21 17" version="1.1" xmlns="http://www.w3.org/2000/svg" xmlns:xlink="http://www.w3.org/1999/xlink">
    <!-- Generator: Sketch 54.1 (76490) - https://sketchapp.com -->
    <title>icons8-twitter</title>
    <desc>Created with Sketch.</desc>
    <g id="Page-2" stroke="none" stroke-width="1" fill="none" fill-rule="evenodd">
        <g id="Mobile/Fiat/Landing-page2" transform="translate(-69.000000, -3813.000000)" fill="#FFFFFF" fill-rule="nonzero">
            <g id="Group-8" transform="translate(69.000000, 3813.000000)">
                <g id="icons8-twitter">
                    <path d="M21,2.01010345 C20.2283143,2.35362069 19.3983001,2.58282759 18.5227898,2.69127586 C19.4128823,2.16017241 20.0976585,1.31310345 20.4190484,0.312448276 C19.5861178,0.803103448 18.6633614,1.16362069 17.6816932,1.35355172 C16.8977585,0.518206897 15.7796017,0 14.5407049,0 C12.1609033,0 10.2319807,1.92158621 10.2319807,4.29103448 C10.2319807,4.62634483 10.2710607,4.95286207 10.3445546,5.27 C6.76435297,5.08944828 3.58895092,3.37889655 1.46462795,0.783172414 C1.09132572,1.41744828 0.881343221,2.16017241 0.881343221,2.94393103 C0.881343221,4.43348276 1.64019665,5.74482759 2.79743355,6.51744828 C2.09107574,6.49575862 1.42613116,6.2982069 0.844012999,5.98165517 C0.844012999,5.99455172 0.844012999,6.01389655 0.844012999,6.03206897 C0.844012999,8.11368966 2.3296392,9.84710345 4.29880843,10.2416207 C3.93892176,10.3406897 3.55862011,10.3957931 3.16665278,10.3957931 C2.88842596,10.3957931 2.61719857,10.3641379 2.35472044,10.3166552 C2.90300808,12.0178276 4.49362553,13.2611724 6.37821848,13.2981034 C4.90367469,14.447069 3.04649613,15.1352759 1.0271644,15.1352759 C0.678360137,15.1352759 0.337138572,15.1153448 0,15.0743103 C1.90792434,16.2883448 4.17340222,17 6.60511624,17 C14.5290392,17 18.8640113,10.4602759 18.8640113,4.78696552 C18.8640113,4.60113793 18.8581785,4.41589655 18.8494292,4.233 C19.6951921,3.63272414 20.424298,2.87534483 21,2.01010345" id="Path"></path>
                </g>
            </g>
        </g>
    </g>
</svg>