<?xml version="1.0" encoding="UTF-8"?>
<svg width="17px" height="17px" viewBox="0 0 17 17" version="1.1" xmlns="http://www.w3.org/2000/svg" xmlns:xlink="http://www.w3.org/1999/xlink">
    <!-- Generator: Sketch 54.1 (76490) - https://sketchapp.com -->
    <title>icons8-instagram_new</title>
    <desc>Created with Sketch.</desc>
    <g id="Page-2" stroke="none" stroke-width="1" fill="none" fill-rule="evenodd">
        <g id="Mobile/Fiat/Landing-page2" transform="translate(-234.000000, -3813.000000)" fill="#FFFFFF" fill-rule="nonzero">
            <g id="Group-8" transform="translate(69.000000, 3813.000000)">
                <g id="icons8-instagram_new" transform="translate(165.000000, 0.000000)">
                    <path d="M4.93449519,0 C2.21694712,0 0,2.21694712 0,4.93449519 L0,12.0655048 C0,14.7830529 2.21694712,17 4.93449519,17 L12.0655048,17 C14.7830529,17 17,14.7830529 17,12.0655048 L17,4.93449519 C17,2.21694712 14.7830529,0 12.0655048,0 L4.93449519,0 Z M4.93449519,1.30769231 L12.0655048,1.30769231 C14.0755711,1.30769231 15.6923077,2.921875 15.6923077,4.93449519 L15.6923077,12.0655048 C15.6923077,14.0755711 14.078125,15.6923077 12.0655048,15.6923077 L4.93449519,15.6923077 C2.92442892,15.6923077 1.30769231,14.078125 1.30769231,12.0655048 L1.30769231,4.93449519 C1.30769231,2.92442892 2.921875,1.30769231 4.93449519,1.30769231 Z M13.4038462,2.61538462 C12.8623798,2.61538462 12.4230769,3.0546875 12.4230769,3.59615385 C12.4230769,4.13762019 12.8623798,4.57692308 13.4038462,4.57692308 C13.9453125,4.57692308 14.3846154,4.13762019 14.3846154,3.59615385 C14.3846154,3.0546875 13.9453125,2.61538462 13.4038462,2.61538462 Z M8.5,3.92307692 C5.97911642,3.92307692 3.92307692,5.97911642 3.92307692,8.5 C3.92307692,11.0208836 5.97911642,13.0769231 8.5,13.0769231 C11.0208836,13.0769231 13.0769231,11.0208836 13.0769231,8.5 C13.0769231,5.97911642 11.0208836,3.92307692 8.5,3.92307692 Z M8.5,5.23076923 C10.3134018,5.23076923 11.7692308,6.68659888 11.7692308,8.5 C11.7692308,10.3134018 10.3134018,11.7692308 8.5,11.7692308 C6.68659888,11.7692308 5.23076923,10.3134018 5.23076923,8.5 C5.23076923,6.68659888 6.68659888,5.23076923 8.5,5.23076923 Z" id="Shape"></path>
                </g>
            </g>
        </g>
    </g>
</svg>