<?xml version="1.0" encoding="UTF-8"?>
<svg width="32px" height="32px" viewBox="0 0 32 32" version="1.1" xmlns="http://www.w3.org/2000/svg" xmlns:xlink="http://www.w3.org/1999/xlink">
    <!-- Generator: Sketch 54.1 (76490) - https://sketchapp.com -->
    <title>icons8-checked</title>
    <desc>Created with Sketch.</desc>
    <g id="Page-2" stroke="none" stroke-width="1" fill="none" fill-rule="evenodd">
        <g id="Mobile/Fiat/Landing-page2" transform="translate(-21.000000, -1334.000000)" fill="#000000" fill-rule="nonzero">
            <g id="icons8-checked" transform="translate(21.000000, 1334.000000)">
                <path d="M16,0 C7.17704348,0 0,7.17704348 0,16 C0,24.8229565 7.17704348,32 16,32 C24.8229565,32 32,24.8229565 32,16 C32,12.8278261 31.0680216,9.87083687 29.4701085,7.38179339 L28.5176633,8.50679374 C29.8359242,10.7008807 30.6086957,13.2591304 30.6086957,16 C30.6086957,24.0549565 24.0549565,30.6086957 16,30.6086957 C7.94504348,30.6086957 1.39130435,24.0549565 1.39130435,16 C1.39130435,7.94504348 7.94504348,1.39130435 16,1.39130435 C19.7864348,1.39130435 23.2305433,2.85201085 25.8288042,5.22418477 L26.7391304,4.14945656 C23.8973913,1.57206518 20.1286957,0 16,0 Z M28.6861412,4.00271736 L15.2445649,19.8641308 L9.58695652,14.5869565 L8.63858713,15.6046198 L15.3627715,21.876359 L29.7486414,4.90217391 L28.6861412,4.00271736 Z" id="Shape"></path>
            </g>
        </g>
    </g>
</svg>