<?xml version="1.0" encoding="UTF-8"?>
<svg width="17px" height="17px" viewBox="0 0 17 17" version="1.1" xmlns="http://www.w3.org/2000/svg" xmlns:xlink="http://www.w3.org/1999/xlink">
    <!-- Generator: Sketch 54.1 (76490) - https://sketchapp.com -->
    <title>icons8-linkedin</title>
    <desc>Created with Sketch.</desc>
    <g id="Page-2" stroke="none" stroke-width="1" fill="none" fill-rule="evenodd">
        <g id="Mobile/Fiat/Landing-page2" transform="translate(-177.000000, -3813.000000)" fill-rule="nonzero">
            <g id="Group-8" transform="translate(69.000000, 3813.000000)">
                <g id="icons8-linkedin" transform="translate(108.000000, 0.000000)">
                    <g id="Group">
                        <path d="M16.5277778,14.2322531 C16.5277778,15.5003009 15.5003009,16.5277778 14.2322531,16.5277778 L2.29552469,16.5277778 C1.02793596,16.5277778 0,15.5003009 0,14.2322531 L0,2.29552469 C0,1.02747685 1.02793596,0 2.29552469,0 L14.2322531,0 C15.5003009,0 16.5277778,1.02747685 16.5277778,2.29552469 L16.5277778,14.2322531 Z" id="Path" fill="#FFFFFF"></path>
                        <rect id="Rectangle" fill="#604EE3" x="3.09090909" y="4.63636364" width="2.29552469" height="7.80478395"></rect>
                        <path d="M3.9742091,3.58340348 L3.96135417,3.58340348 C3.2763696,3.58340348 2.83333333,3.07287879 2.83333333,2.43518203 C2.83333333,1.78371212 3.29014275,1.28787879 3.98752315,1.28787879 C4.68582176,1.28787879 5.11600309,1.78371212 5.12885802,2.43518203 C5.12885802,3.07241968 4.68582176,3.58340348 3.9742091,3.58340348 Z" id="Path" fill="#604EE3"></path>
                        <path d="M13.5274972,12.4411476 L11.2319725,12.4411476 L11.2319725,8.26375175 C11.2319725,7.2546391 10.669569,6.56598169 9.76650954,6.56598169 C9.07739303,6.56598169 8.70459982,7.03059589 8.52371247,7.47960052 C8.45760136,7.64028725 8.47734287,8.08470083 8.47734287,8.30920314 L8.47734287,12.4411476 L6.18181818,12.4411476 L6.18181818,4.63636364 L8.47734287,4.63636364 L8.47734287,5.83738215 C8.80835753,5.32502104 9.32668701,4.63636364 10.6525821,4.63636364 C12.2952595,4.63636364 13.5270381,5.66934975 13.5270381,7.97589296 L13.5274972,12.4411476 L13.5274972,12.4411476 Z" id="Path" fill="#604EE3"></path>
                    </g>
                </g>
            </g>
        </g>
    </g>
</svg>