<?xml version="1.0" encoding="UTF-8"?>
<svg width="22px" height="22px" viewBox="0 0 22 22" version="1.1" xmlns="http://www.w3.org/2000/svg" xmlns:xlink="http://www.w3.org/1999/xlink">
    <!-- Generator: Sketch 54.1 (76490) - https://sketchapp.com -->
    <title>icon/password</title>
    <desc>Created with Sketch.</desc>
    <defs>
        <radialGradient cx="123.984557%" cy="-51.5964579%" fx="123.984557%" fy="-51.5964579%" r="103.258029%" gradientTransform="translate(1.239846,-0.515965),scale(1.000000,0.912442),rotate(123.693128),translate(-1.239846,0.515965)" id="radialGradient-1">
            <stop stop-color="#FFFFFF" offset="0%"></stop>
            <stop stop-color="#BABABA" offset="100%"></stop>
        </radialGradient>
    </defs>
    <g id="icon/password" stroke="none" stroke-width="1" fill="none" fill-rule="evenodd">
        <g id="Untitled-3" transform="translate(2.000000, 1.000000)" fill="url(#radialGradient-1)" fill-rule="nonzero">
            <path d="M15.7844228,8.05988673 L15.3212796,8.05988673 L15.3212796,6.60043957 C15.3212796,3.15589692 12.4860918,0.354500471 9,0.354500471 C5.51390821,0.354500471 2.67872045,3.15589692 2.67872045,6.60043957 L2.67872045,8.05370263 L2.21557719,8.05370263 C0.995132128,8.05370263 0,9.03079013 0,10.2428734 L0,17.8926027 C0,19.0985019 0.988873435,20.0817735 2.21557719,20.0817735 L15.7844228,20.0817735 C17.0048679,20.0817735 18,19.104686 18,17.8926027 L18,10.2428734 C18,9.03697423 17.0111266,8.05988673 15.7844228,8.05988673 Z M4.42489569,6.60043957 C4.42489569,4.10824803 6.47774687,2.07986385 9,2.07986385 C11.5222531,2.07986385 13.5751043,4.10824803 13.5751043,6.60043957 L13.5751043,8.05370263 L4.42489569,8.05370263 L4.42489569,6.60043957 Z M10.0577191,15.449884 L7.94228095,15.449884 L8.31154381,12.8587469 C8.02364395,12.6484875 7.84214186,12.3145462 7.84214186,11.9373162 C7.84214186,11.3065382 8.36161335,10.7932581 9,10.7932581 C9.63838665,10.7932581 10.1578581,11.3065382 10.1578581,11.9373162 C10.1578581,12.3145462 9.97009736,12.6484875 9.68845619,12.8587469 L10.0577191,15.449884 Z" id="Shape"></path>
        </g>
    </g>
</svg>