<?xml version="1.0" encoding="UTF-8"?>
<svg width="22px" height="22px" viewBox="0 0 22 22" version="1.1" xmlns="http://www.w3.org/2000/svg" xmlns:xlink="http://www.w3.org/1999/xlink">
    <!-- Generator: Sketch 54.1 (76490) - https://sketchapp.com -->
    <title>icon/password/second</title>
    <desc>Created with Sketch.</desc>
    <g id="icon/password/second" stroke="none" stroke-width="1" fill="none" fill-rule="evenodd">
        <g id="Untitled-3" transform="translate(2.000000, 1.000000)" fill="#5B4AE2">
            <path d="M15.7844228,7.53876844 L15.3212796,7.53876844 L15.3212796,6.11087972 C15.3212796,2.74082031 12.4860918,0 9,0 C5.51390821,0 2.67872045,2.74082031 2.67872045,6.11087972 L2.67872045,7.53271807 L2.21557719,7.53271807 C0.995132128,7.53271807 0,8.48867747 0,9.67455115 L0,17.1588662 C0,18.3386895 0.988873435,19.3006993 2.21557719,19.3006993 L15.7844228,19.3006993 C17.0048679,19.3006993 18,18.3447399 18,17.1588662 L18,9.67455115 C18,8.49472784 17.0111266,7.53876844 15.7844228,7.53876844 Z M4.42489569,6.11087972 C4.42489569,3.67257821 6.47774687,1.68805489 9,1.68805489 C11.5222531,1.68805489 13.5751043,3.67257821 13.5751043,6.11087972 L13.5751043,7.53271807 L4.42489569,7.53271807 L4.42489569,6.11087972 Z M10.0577191,14.7689677 L7.94228095,14.7689677 L8.31154381,12.2338602 C8.02364395,12.0281474 7.84214186,11.7014271 7.84214186,11.3323542 C7.84214186,10.7152158 8.36161335,10.2130346 9,10.2130346 C9.63838665,10.2130346 10.1578581,10.7152158 10.1578581,11.3323542 C10.1578581,11.7014271 9.97009736,12.0281474 9.68845619,12.2338602 L10.0577191,14.7689677 Z" id="Shape"></path>
        </g>
    </g>
</svg>