<?xml version="1.0" encoding="UTF-8"?>
<svg width="84px" height="84px" viewBox="0 0 84 84" version="1.1" xmlns="http://www.w3.org/2000/svg" xmlns:xlink="http://www.w3.org/1999/xlink">
    <!-- Generator: Sketch 54.1 (76490) - https://sketchapp.com -->
    <title>icons8-checked</title>
    <desc>Created with Sketch.</desc>
    <g id="Page-2" stroke="none" stroke-width="1" fill="none" fill-rule="evenodd">
        <g id="Mobile-/Fiat/Signup5" transform="translate(-118.000000, -286.000000)" fill="#FFFFFF" fill-rule="nonzero">
            <g id="icons8-checked" transform="translate(118.000000, 286.000000)">
                <path d="M42,0 C18.8397391,0 0,18.8397391 0,42 C0,65.1602609 18.8397391,84 42,84 C65.1602609,84 84,65.1602609 84,42 C84,33.6730435 81.5535566,25.9109468 77.3590349,19.3772077 L74.8588662,22.3303336 C78.319301,28.0898118 80.3478261,34.8052174 80.3478261,42 C80.3478261,63.1442609 63.1442609,80.3478261 42,80.3478261 C20.8557391,80.3478261 3.65217391,63.1442609 3.65217391,42 C3.65217391,20.8557391 20.8557391,3.65217391 42,3.65217391 C51.9393913,3.65217391 60.9801762,7.48652849 67.800611,13.713485 L70.1902174,10.8923235 C62.7306522,4.1266711 52.8378261,0 42,0 Z M75.3011207,10.5071331 L40.0169828,52.1433433 L25.1657609,38.2907609 L22.6762912,40.962127 L40.3272751,57.4254423 L78.0901837,12.8682065 L75.3011207,10.5071331 Z" id="Shape"></path>
            </g>
        </g>
    </g>
</svg>