<?xml version="1.0" encoding="UTF-8"?>
<svg width="20px" height="20px" viewBox="0 0 20 20" version="1.1" xmlns="http://www.w3.org/2000/svg" xmlns:xlink="http://www.w3.org/1999/xlink">
    <!-- Generator: Sketch 54.1 (76490) - https://sketchapp.com -->
    <title>icons8-cashflow</title>
    <desc>Created with Sketch.</desc>
    <g id="Page-2" stroke="none" stroke-width="1" fill="none" fill-rule="evenodd">
        <g id="Desktop/Fiat/Landing-page_6" transform="translate(-889.000000, -381.000000)" fill="#FFFFFF" fill-rule="nonzero">
            <g id="icons8-cashflow" transform="translate(889.000000, 381.000000)">
                <path d="M9,0 L9,2.0664062 C8.119565,2.1797331 7.2961285,2.4493279 6.6035156,2.9277344 C5.6535418,3.5839069 5,4.7015 5,6 C5,7.3333333 5.7250412,8.405633 6.609375,9.142578 C7.4937088,9.879523 8.552734,10.394531 9.552734,10.894531 C10.552734,11.394531 11.493709,11.879523 12.109375,12.392578 C12.725041,12.905633 13,13.333333 13,14 C13,14.7015 12.757542,15.083907 12.259766,15.427734 C11.761989,15.771562 10.953602,16 10,16 C8.331516,16 7,14.668484 7,13 L5,13 C5,15.407153 6.7254225,17.431549 9,17.898438 L9,20 L11,20 L11,17.933594 C11.880435,17.820267 12.703872,17.550672 13.396484,17.072266 C14.346458,16.416093 15,15.2985 15,14 C15,12.666667 14.274959,11.594367 13.390625,10.857422 C12.506291,10.120477 11.447266,9.605469 10.447266,9.105469 C9.447266,8.605469 8.506291,8.120477 7.890625,7.6074219 C7.2749588,7.0943667 7,6.6666667 7,6 C7,5.2985 7.2424582,4.9160931 7.7402344,4.5722656 C8.238011,4.2284382 9.046398,4 10,4 C11.668484,4 13,5.3315161 13,7 L15,7 C15,4.5928465 13.274577,2.5684515 11,2.1015625 L11,0 L9,0 Z M17,1 L17,7 L20,4 L17,1 Z M3,14 L0,17 L3,20 L3,14 Z" id="Shape"></path>
            </g>
        </g>
    </g>
</svg>