<?xml version="1.0" encoding="UTF-8"?>
<svg width="153px" height="47px" viewBox="0 0 153 47" version="1.1" xmlns="http://www.w3.org/2000/svg" xmlns:xlink="http://www.w3.org/1999/xlink">
    <!-- Generator: Sketch 54.1 (76490) - https://sketchapp.com -->
    <title>Group 14</title>
    <desc>Created with Sketch.</desc>
    <g id="Page-2" stroke="none" stroke-width="1" fill="none" fill-rule="evenodd">
        <g id="Desktop/Fiat/Landing-page_2" transform="translate(-730.000000, -2660.000000)">
            <g id="Group-14" transform="translate(730.000000, 2660.000000)">
                <rect id="Rectangle-Copy-4" stroke="#604EE3" x="0.5" y="0.5" width="152" height="46" rx="4"></rect>
                <text id="Checkout-available" font-family="ProximaNova-Semibold, Proxima Nova" font-size="11" font-weight="500" letter-spacing="-0.825" fill="#604EE3">
                    <tspan x="47" y="16">Checkout available </tspan>
                </text>
                <text id="EMYAPP" font-family="ProximaNova-Semibold, Proxima Nova" font-size="22" font-weight="500" letter-spacing="0.850000024" fill="#604EE3">
                    <tspan x="47" y="37">EMYAP</tspan>
                    <tspan x="123.102" y="37">P</tspan>
                </text>
                <g id="icons8-email-copy" transform="translate(14.000000, 14.000000)" fill="#604EE3" fill-rule="nonzero">
                    <path d="M11.6947115,13.1820915 L11.6225962,13.1820915 C11.0697115,14.7355769 10.0691108,15.5108177 8.61478385,15.5108177 C7.52403846,15.5108177 6.64663462,15.1051685 5.97956769,14.2908654 C5.30949538,13.4795677 4.97596154,12.3527646 4.97596154,10.9134615 C4.97596154,9.05348538 5.43870231,7.53906231 6.36418308,6.37019231 C7.28665846,5.20432692 8.40144231,4.62139462 9.70252385,4.62139462 C10.8804085,4.62139462 11.6195915,5.09615385 11.9200723,6.04867769 L11.9681492,6.04867769 L12.0853369,4.84074538 L14.7506008,4.84074538 C14.3960338,8.30528846 14.2157454,10.5679085 14.2157454,11.6346154 C14.2157454,12.7734377 14.5162262,13.3413462 15.1171877,13.3413462 C15.7512023,13.3413462 16.2710338,12.9086538 16.6826923,12.0492792 C17.0913462,11.1868992 17.2986777,10.0600962 17.2986777,8.67187538 C17.2986777,6.76983154 16.7097354,5.21033692 15.5318508,3.99338923 C14.3539662,2.77944692 12.7133415,2.16947154 10.6039662,2.16947154 C8.34435077,2.16947154 6.46634615,2.98076923 4.96995231,4.60336538 C3.47355769,6.22596154 2.72536077,8.20312538 2.72536077,10.5378608 C2.72536077,12.7974762 3.38641846,14.5763223 4.70853385,15.8774038 C6.03365385,17.1784854 7.85757231,17.8305292 10.1893031,17.8305292 C11.9681492,17.8305292 13.59375,17.4819715 15.0721154,16.7818508 L15.0721154,19.1105769 C13.7199523,19.7025238 11.9831731,20 9.85877385,20 C6.94110615,20 4.57031231,19.1406254 2.74338923,17.4218754 C0.913461538,15.70012 0,13.3894231 0,10.4867792 C0,7.52704308 0.976562308,5.04206769 2.92668308,3.02584154 C4.87680308,1.00961538 7.38882231,0 10.4627408,0 C13.3052885,0 15.6069715,0.78125 17.3647838,2.34675462 C19.1225962,3.91226 20,5.97656231 20,8.53665846 C20,10.6430292 19.4621392,12.3317308 18.3894231,13.6057692 C17.3137023,14.8768031 15.9825723,15.5138223 14.3960338,15.5138223 C13.6147838,15.5138223 12.9777646,15.2974762 12.4879808,14.8677885 C11.9981969,14.4350962 11.7337738,13.8731969 11.6947115,13.1820915 Z M10.1171877,6.74278846 C9.40805308,6.74278846 8.82812538,7.16045692 8.38341385,7.99278846 C7.93569692,8.82812538 7.71334154,9.79266846 7.71334154,10.8894231 C7.71334154,11.6706731 7.86658692,12.2776446 8.17007231,12.7133415 C8.47355769,13.1490385 8.86418308,13.3653846 9.34795692,13.3653846 C10.0901446,13.3653846 10.6760815,12.9567308 11.1027646,12.1334138 C11.5264423,11.3131008 11.7397838,10.2163462 11.7397838,8.84314923 C11.7397838,8.19110615 11.5925485,7.68028846 11.2950723,7.30468769 C11.0006008,6.93209154 10.6069715,6.74278846 10.1171877,6.74278846 Z" id="Shape"></path>
                </g>
            </g>
        </g>
    </g>
</svg>