<?xml version="1.0" encoding="UTF-8"?>
<svg width="155px" height="52px" viewBox="0 0 155 52" version="1.1" xmlns="http://www.w3.org/2000/svg" xmlns:xlink="http://www.w3.org/1999/xlink">
    <!-- Generator: Sketch 54.1 (76490) - https://sketchapp.com -->
    <title>Group 6</title>
    <desc>Created with Sketch.</desc>
    <g id="Page-2" stroke="none" stroke-width="1" fill="none" fill-rule="evenodd">
        <g id="Desktop/Fiat/Landing-page_2" transform="translate(-735.000000, -4796.000000)">
            <g id="Group-6" transform="translate(735.000000, 4796.000000)">
                <text id="Google-Play" font-family="SFProText-Semibold, SF Pro Text" font-size="18" font-weight="500" fill="#FFFFFF">
                    <tspan x="40" y="39">Google Play</tspan>
                </text>
                <rect id="Rectangle" stroke="#FFFFFF" x="0.5" y="0.5" width="154" height="51" rx="6"></rect>
                <text id="Get-it-on" font-family="Roboto-Regular, Roboto" font-size="10" font-weight="normal" fill="#FFFFFF">
                    <tspan x="40" y="20">GET IT ON</tspan>
                </text>
                <g id="icons8-google_play" transform="translate(11.000000, 12.000000)" fill-rule="nonzero">
                    <path d="M0.509166667,0.0301 C0.210888889,0.105 0,0.3549 0,0.7847 C0,2.0461 0,13.9412 0,13.9412 C0,13.9412 0,26.796 0,27.3637 C0,27.6759 0.142277778,27.8852 0.361111111,27.9629 L14.9362778,13.9181 L0.509166667,0.0301 Z" id="Path" fill="#4DB6AC"></path>
                    <path d="M18.9489444,10.052 L12.9494444,6.6948 C12.9494444,6.6948 1.93916667,0.5327 1.29205556,0.1708 C1.01183333,0.014 0.735944444,-0.0273 0.509166667,0.0301 L14.937,13.9181 L18.9489444,10.052 Z" id="Path" fill="#DCE775"></path>
                    <path d="M1.02338889,27.8614 C1.40761111,27.6458 12.0618333,21.6839 18.9814444,17.8115 L14.9362778,13.9181 L0.361111111,27.9629 C0.540222222,28.0266 0.769888889,28.0028 1.02338889,27.8614 Z" id="Path" fill="#D32F2F"></path>
                    <path d="M24.843,13.3497 C24.2681111,13.0494 18.993,10.0765 18.993,10.0765 L18.9489444,10.052 L14.9362778,13.9181 L18.9814444,17.8115 C22.1823333,16.0202 24.5866111,14.6755 24.8018333,14.5544 C25.4836111,14.1736 25.4178889,13.65 24.843,13.3497 Z" id="Path" fill="#FBC02D"></path>
                </g>
            </g>
        </g>
    </g>
</svg>