<?xml version="1.0" encoding="UTF-8"?>
<svg width="26px" height="26px" viewBox="0 0 26 26" version="1.1" xmlns="http://www.w3.org/2000/svg" xmlns:xlink="http://www.w3.org/1999/xlink">
    <!-- Generator: Sketch 54.1 (76490) - https://sketchapp.com -->
    <title>web/handle/purple</title>
    <desc>Created with Sketch.</desc>
    <g id="web/handle/purple" stroke="none" stroke-width="1" fill="none" fill-rule="evenodd">
        <g id="handle" transform="translate(1.000000, 1.000000)" fill-rule="nonzero">
            <g id="Group" fill="#5B4AE2">
                <path d="M11.9651163,23.9302326 C5.36511628,23.9302326 0,18.5651163 0,11.9651163 C0,5.36511628 5.36511628,0 11.9651163,0 C18.5651163,0 23.9302326,5.36511628 23.9302326,11.9651163 C23.9302326,18.5651163 18.5651163,23.9302326 11.9651163,23.9302326 Z M12.7534884,4.50697674 C10.5139535,4.50697674 8.49069767,5.37906977 7.06046512,6.9627907 C5.69302326,8.47674419 4.93255814,10.527907 4.93255814,12.7255814 C4.93255814,14.6860465 5.60232558,16.3813953 6.86511628,17.6093023 C8.05116279,18.7674419 9.67674419,19.4093023 11.4348837,19.4093023 C12.9488372,19.4093023 14.1209302,19.144186 15.244186,18.5511628 L15.272093,18.5372093 L14.9093023,17.5534884 L14.8744186,17.5744186 C14.0093023,18.0627907 12.9,18.3139535 11.672093,18.3139535 C8.41395349,18.3139535 6.22325581,16.0116279 6.22325581,12.5930233 C6.22325581,10.5348837 6.87209302,8.75581395 8.10697674,7.45116279 C9.27209302,6.22325581 10.8627907,5.54651163 12.5860465,5.54651163 C14.1627907,5.54651163 15.4744186,6.0627907 16.3813953,7.03255814 C17.2534884,7.96744186 17.7139535,9.27906977 17.7139535,10.8209302 C17.7139535,11.9372093 17.455814,12.9488372 16.9883721,13.6744186 C16.5697674,14.3162791 16.0186047,14.6860465 15.4744186,14.6860465 L15.4534884,14.6860465 C15.2372093,14.6790698 15.0627907,14.6023256 14.944186,14.4488372 C14.672093,14.1069767 14.6372093,13.3953488 14.8465116,12.3418605 L15.5790698,8.45581395 L15.5511628,8.44186047 C14.9302326,8.15581395 14.0930233,7.98837209 13.255814,7.98837209 C11.8465116,7.98837209 10.5488372,8.53953488 9.59302326,9.5372093 C8.68604651,10.4860465 8.16976744,11.7767442 8.16976744,13.0813953 C8.16976744,14.4348837 8.97209302,15.8023256 10.5069767,15.8023256 C11.7906977,15.8023256 12.7813953,15.1883721 13.5348837,13.9255814 L13.5627907,13.9255814 C13.5418605,14.5116279 13.6953488,15 14.0162791,15.3348837 C14.3023256,15.6348837 14.7139535,15.8023256 15.1813953,15.8023256 C17.0860465,15.8023256 19.0116279,14.044186 19.0116279,10.6953488 C18.9976744,7.06046512 16.4302326,4.50697674 12.7534884,4.50697674 Z" id="Shape"></path>
            </g>
            <g id="Group" transform="translate(9.000000, 9.000000)">
                <path d="M1.578125,5.90126582 C0.6171875,5.90126582 0.0390625,5.2556962 0.0390625,4.17721519 C0.0390625,3.09113924 0.4296875,2.05822785 1.140625,1.26835443 C1.8515625,0.470886076 2.796875,0.0379746835 3.796875,0.0379746835 C4.203125,0.0379746835 4.59375,0.0911392405 4.9453125,0.189873418 L4.453125,2.77974684 C4.1875,4.25316456 2.8984375,5.90126582 1.578125,5.90126582 Z" id="Path" fill="#5B4AE2"></path>
                <path d="M3.8046875,0.0759493671 C4.1953125,0.0759493671 4.5625,0.121518987 4.90625,0.212658228 L4.4140625,2.7721519 C4.1484375,4.23037975 2.875,5.86329114 1.578125,5.86329114 C0.640625,5.86329114 0.078125,5.23291139 0.078125,4.17721519 C0.078125,3.09873418 0.46875,2.07341772 1.171875,1.29113924 C1.8828125,0.508860759 2.8125,0.0759493671 3.8046875,0.0759493671 L3.8046875,0.0759493671 Z M3.8046875,0 C1.703125,0 0.0078125,1.92911392 0.0078125,4.17721519 C0.0078125,5.20253165 0.53125,5.93924051 1.5859375,5.93924051 C2.96875,5.93924051 4.234375,4.22278481 4.5,2.77974684 L5,0.159493671 C4.7578125,0.0911392405 4.3515625,0 3.8046875,0 L3.8046875,0 Z" id="Shape"></path>
            </g>
        </g>
    </g>
</svg>