<?xml version="1.0" encoding="UTF-8"?>
<svg width="46px" height="46px" viewBox="0 0 46 46" version="1.1" xmlns="http://www.w3.org/2000/svg" xmlns:xlink="http://www.w3.org/1999/xlink">
    <!-- Generator: Sketch 54.1 (76490) - https://sketchapp.com -->
    <title>icons8-private2</title>
    <desc>Created with Sketch.</desc>
    <g id="Page-2" stroke="none" stroke-width="1" fill="none" fill-rule="evenodd">
        <g id="Desktop/Fiat/Landing-page_2" transform="translate(-571.000000, -2105.000000)" fill="#000000" fill-rule="nonzero">
            <g id="icons8-private2" transform="translate(571.000000, 2105.000000)">
                <path d="M23,0 C10.309295,0 0,10.309295 0,23 C0,35.690705 10.309295,46 23,46 C35.690705,46 46,35.690705 46,23 C46,10.309295 35.690705,0 23,0 Z M23,2 C34.609824,2 44,11.390176 44,23 C44,34.609824 34.609824,44 23,44 C11.390176,44 2,34.609824 2,23 C2,11.390176 11.390176,2 23,2 Z M23,9 C19.67619,9 17,11.67619 17,15 L17,18 L16,18 C14.354545,18 13,19.354545 13,21 L13,31 C13,32.645455 14.354545,34 16,34 L30,34 C31.645455,34 33,32.645455 33,31 L33,21 C33,19.354545 31.645455,18 30,18 L29,18 L29,15 C29,11.67619 26.32381,9 23,9 Z M23,11 C25.27619,11 27,12.72381 27,15 L27,18 L19,18 L19,15 C19,12.72381 20.72381,11 23,11 Z M16,20 L17.832031,20 C17.9400224,20.017849 18.0502116,20.017849 18.158203,20 L27.832031,20 C27.9400224,20.017849 28.0502116,20.017849 28.158203,20 L30,20 C30.554545,20 31,20.445455 31,21 L31,31 C31,31.554545 30.554545,32 30,32 L16,32 C15.445455,32 15,31.554545 15,31 L15,21 C15,20.445455 15.445455,20 16,20 Z M23,23 C21.8954305,23 21,23.8954305 21,25 C21.0005648,25.713966 21.381687,26.3734861 22,26.730469 L22,28 C22,28.6 22.4,29 23,29 C23.6,29 24,28.6 24,28 L24,26.728516 C24.6177098,26.3718826 24.9987387,25.713268 25,25 C25,23.8954305 24.1045695,23 23,23 Z" id="Shape"></path>
            </g>
        </g>
    </g>
</svg>