<?xml version="1.0" encoding="UTF-8"?>
<svg width="55px" height="55px" viewBox="0 0 55 55" version="1.1" xmlns="http://www.w3.org/2000/svg" xmlns:xlink="http://www.w3.org/1999/xlink">
    <!-- Generator: Sketch 54.1 (76490) - https://sketchapp.com -->
    <title>icons8-receive_change</title>
    <desc>Created with Sketch.</desc>
    <g id="Page-2" stroke="none" stroke-width="1" fill="none" fill-rule="evenodd">
        <g id="Desktop/Fiat/Landing-page_2" transform="translate(-250.000000, -2100.000000)" fill="#000000" fill-rule="nonzero">
            <g id="icons8-receive_change" transform="translate(250.000000, 2100.000000)">
                <path d="M36.6768624,0 C36.2168811,0 35.8439925,0.373096042 35.8439925,0.833333333 C35.8439925,1.29357062 36.2168811,1.66666667 36.6768624,1.66666667 C37.1368437,1.66666667 37.5097323,1.29357062 37.5097323,0.833333333 C37.5097323,0.373096042 37.1368437,0 36.6768624,0 Z M45.0055613,0 C44.54558,0 44.1726914,0.373096042 44.1726914,0.833333333 C44.1726914,1.29357062 44.54558,1.66666667 45.0055613,1.66666667 C45.4655426,1.66666667 45.8384312,1.29357062 45.8384312,0.833333333 C45.8384312,0.373096042 45.4655426,0 45.0055613,0 Z M53.3342602,0 C52.8742789,0 52.5013903,0.373096042 52.5013903,0.833333333 C52.5013903,1.29357062 52.8742789,1.66666667 53.3342602,1.66666667 C53.7942416,1.66666667 54.1671301,1.29357062 54.1671301,0.833333333 C54.1671301,0.373096042 53.7942416,0 53.3342602,0 Z M28.3481635,3.33333333 C27.8881821,3.33333333 27.5152936,3.70642938 27.5152936,4.16666667 C27.5152936,4.62690396 27.8881821,5 28.3481635,5 C28.8081448,5 29.1810334,4.62690396 29.1810334,4.16666667 C29.1810334,3.70642938 28.8081448,3.33333333 28.3481635,3.33333333 Z M36.6768624,3.33333333 C36.2168811,3.33333333 35.8439925,3.70642938 35.8439925,4.16666667 C35.8439925,4.62690396 36.2168811,5 36.6768624,5 C37.1368437,5 37.5097323,4.62690396 37.5097323,4.16666667 C37.5097323,3.70642938 37.1368437,3.33333333 36.6768624,3.33333333 Z M40.8412119,3.33333333 C40.3812305,3.33333333 40.008342,3.70642938 40.008342,4.16666667 C40.008342,4.62690396 40.3812305,5 40.8412119,5 C41.3011932,5 41.6740817,4.62690396 41.6740817,4.16666667 C41.6740817,3.70642938 41.3011932,3.33333333 40.8412119,3.33333333 Z M45.0055613,3.33333333 C44.54558,3.33333333 44.1726914,3.70642938 44.1726914,4.16666667 C44.1726914,4.62690396 44.54558,5 45.0055613,5 C45.4655426,5 45.8384312,4.62690396 45.8384312,4.16666667 C45.8384312,3.70642938 45.4655426,3.33333333 45.0055613,3.33333333 Z M53.3342602,3.33333333 C52.8742789,3.33333333 52.5013903,3.70642938 52.5013903,4.16666667 C52.5013903,4.62690396 52.8742789,5 53.3342602,5 C53.7942416,5 54.1671301,4.62690396 54.1671301,4.16666667 C54.1671301,3.70642938 53.7942416,3.33333333 53.3342602,3.33333333 Z M49.1699108,5 C48.7099294,5 48.3370409,5.37309604 48.3370409,5.83333333 C48.3370409,6.29357062 48.7099294,6.66666667 49.1699108,6.66666667 C49.6298921,6.66666667 50.0027807,6.29357062 50.0027807,5.83333333 C50.0027807,5.37309604 49.6298921,5 49.1699108,5 Z M32.5125129,5.83333333 C32.0525316,5.83333333 31.679643,6.20642938 31.679643,6.66666667 C31.679643,7.12690396 32.0525316,7.5 32.5125129,7.5 C32.9724943,7.5 33.3453828,7.12690396 33.3453828,6.66666667 C33.3453828,6.20642938 32.9724943,5.83333333 32.5125129,5.83333333 Z M36.6768624,6.66666667 C36.2168811,6.66666667 35.8439925,7.03976271 35.8439925,7.5 C35.8439925,7.96023729 36.2168811,8.33333333 36.6768624,8.33333333 C37.1368437,8.33333333 37.5097323,7.96023729 37.5097323,7.5 C37.5097323,7.03976271 37.1368437,6.66666667 36.6768624,6.66666667 Z M40.8412119,6.66666667 C40.3812305,6.66666667 40.008342,7.03976271 40.008342,7.5 C40.008342,7.96023729 40.3812305,8.33333333 40.8412119,8.33333333 C41.3011932,8.33333333 41.6740817,7.96023729 41.6740817,7.5 C41.6740817,7.03976271 41.3011932,6.66666667 40.8412119,6.66666667 Z M45.0055613,6.66666667 C44.54558,6.66666667 44.1726914,7.03976271 44.1726914,7.5 C44.1726914,7.96023729 44.54558,8.33333333 45.0055613,8.33333333 C45.4655426,8.33333333 45.8384312,7.96023729 45.8384312,7.5 C45.8384312,7.03976271 45.4655426,6.66666667 45.0055613,6.66666667 Z M49.1699108,8.33333333 C48.7099294,8.33333333 48.3370409,8.70642938 48.3370409,9.16666667 C48.3370409,9.62690396 48.7099294,10 49.1699108,10 C49.6298921,10 50.0027807,9.62690396 50.0027807,9.16666667 C50.0027807,8.70642938 49.6298921,8.33333333 49.1699108,8.33333333 Z M32.5125129,9.16666667 C32.0525316,9.16666667 31.679643,9.53976271 31.679643,10 C31.679643,10.4602373 32.0525316,10.8333333 32.5125129,10.8333333 C32.9724943,10.8333333 33.3453828,10.4602373 33.3453828,10 C33.3453828,9.53976271 32.9724943,9.16666667 32.5125129,9.16666667 Z M28.3481635,10 C27.8881821,10 27.5152936,10.373096 27.5152936,10.8333333 C27.5152936,11.2935706 27.8881821,11.6666667 28.3481635,11.6666667 C28.8081448,11.6666667 29.1810334,11.2935706 29.1810334,10.8333333 C29.1810334,10.373096 28.8081448,10 28.3481635,10 Z M40.8412119,10 C33.5195692,10 27.5654715,15.9351067 27.5201734,23.2503258 C27.5171674,23.2778965 27.5155388,23.3056002 27.5152936,23.3333333 C27.515195,23.3643245 27.5168241,23.3952971 27.5201734,23.4261067 C27.5707536,30.736805 33.5228541,36.6666667 40.8412119,36.6666667 C48.1617592,36.6666667 54.1151907,30.7333083 54.1622503,23.4195967 C54.1653665,23.390946 54.1669953,23.3621529 54.1671301,23.3333333 C54.1671301,23.305365 54.1640493,23.278255 54.1638769,23.2503258 C54.1633435,23.2481534 54.1628013,23.2459831 54.1622503,23.243815 C54.1397603,19.8691183 52.8646865,16.7822317 50.7738358,14.4449867 C48.3343674,11.71805 44.7821931,10 40.8412119,10 Z M53.3342602,10 C52.8742789,10 52.5013903,10.373096 52.5013903,10.8333333 C52.5013903,11.2935706 52.8742789,11.6666667 53.3342602,11.6666667 C53.7942416,11.6666667 54.1671301,11.2935706 54.1671301,10.8333333 C54.1671301,10.373096 53.7942416,10 53.3342602,10 Z M40.8412119,11.6666667 C44.2994467,11.6666667 47.396346,13.16695 49.5326647,15.5550133 C49.5326642,15.5555558 49.5326642,15.5560983 49.5326647,15.5566408 C51.3804232,17.6217025 52.5013903,20.34047 52.5013903,23.3333333 C52.5013903,29.7862667 47.2905565,35 40.8412119,35 C34.3918672,35 29.1810334,29.7862667 29.1810334,23.3333333 C29.1810334,16.8804 34.3918672,11.6666667 40.8412119,11.6666667 Z M28.3481635,13.3333333 C27.8881821,13.3333333 27.5152936,13.7064294 27.5152936,14.1666667 C27.5152936,14.626904 27.8881821,15 28.3481635,15 C28.8081448,15 29.1810334,14.626904 29.1810334,14.1666667 C29.1810334,13.7064294 28.8081448,13.3333333 28.3481635,13.3333333 Z M53.3342602,13.3333333 C52.8742789,13.3333333 52.5013903,13.7064294 52.5013903,14.1666667 C52.5013903,14.626904 52.8742789,15 53.3342602,15 C53.7942416,15 54.1671301,14.626904 54.1671301,14.1666667 C54.1671301,13.7064294 53.7942416,13.3333333 53.3342602,13.3333333 Z M40.3336818,16.5169267 L40.3336818,17.6057942 C38.1115849,17.7949608 36.7712107,19.016445 36.7712107,20.8772783 C36.7712107,22.453945 37.7574461,23.52707 39.5772668,23.9762367 L40.3336818,24.1569008 L40.3336818,27.5162758 C39.2384579,27.3979425 38.520758,26.7671225 38.4499641,25.8837892 L36.5272057,25.8837892 C36.5347023,27.7437892 37.9841949,28.9891925 40.3320552,29.1308592 L40.3320552,30.14974 L41.4203163,30.14974 L41.4203163,29.1243492 C43.7923297,28.9276825 45.155218,27.7053258 45.155218,25.7503258 C45.1560501,24.0861592 44.2025182,23.0691667 42.2011318,22.6041667 L41.4203163,22.4381508 L41.4203163,19.2464192 C42.3656236,19.3722525 43.026949,20.0184117 43.0502693,20.8300783 L44.9339861,20.8300783 C44.8948421,19.0559117 43.5241465,17.7941275 41.4203163,17.6057942 L41.4203163,16.5169267 L40.3336818,16.5169267 Z M40.3336818,19.2366533 L40.3336818,22.2086592 C39.2776027,21.9878258 38.7183698,21.46793 38.7183698,20.7112633 C38.7183698,19.9062633 39.3967031,19.2924867 40.3336818,19.2366533 Z M41.4203163,24.3619792 C42.6654568,24.6061458 43.2324596,25.1096092 43.2324596,25.9537758 C43.2324596,26.8846092 42.5713425,27.4600908 41.4203163,27.5309242 L41.4203163,24.3619792 Z M13.3565054,29.1666667 C12.5385348,29.1666667 11.7587029,29.3236167 11.0400861,29.5914717 C11.0152416,29.5951067 11.0471296,29.5793567 10.9522441,29.6110025 L10.9733915,29.602865 C9.17395279,30.1511058 0.640599335,32.5309242 0.640599335,32.5309242 C0.343713529,32.6014364 0.109124352,32.8287285 0.0291444162,33.1233594 C-0.0508355198,33.4179903 0.0365970519,33.7327951 0.257036755,33.9438958 C0.477476458,34.1549966 0.795635087,34.2285999 1.08631482,34.1357425 C1.08631482,34.1357425 9.42556111,31.8136758 11.4012134,31.2141925 C11.4601545,31.2052198 11.5179624,31.1899414 11.5736433,31.16862 C12.1322767,30.9542525 12.7289347,30.8333333 13.3565054,30.8333333 C14.2711873,30.8333333 15.1213259,31.08163 15.8599949,31.5120442 C15.8889143,31.5284665 15.9187906,31.5431414 15.9494635,31.55599 C15.9558766,31.5589892 15.9625295,31.5627383 15.9689843,31.565755 C21.2175912,34.0450417 31.8769299,39.3849692 31.9057539,39.3994142 L31.9090079,39.4026692 C31.8599436,39.3764608 31.8647484,39.3796033 31.9659421,39.4449867 C31.9844586,39.4571326 32.0034517,39.468535 32.0228762,39.4791667 C32.8104205,39.9040008 33.3453828,40.7115733 33.3453828,41.6666667 C33.3453828,42.1663575 33.1980182,42.6237567 32.9452147,43.0159508 C32.2124074,44.15705 30.795899,44.398135 29.4705856,43.7597658 C29.4550836,43.7522261 29.4393514,43.7451697 29.4234118,43.7386067 L28.8556936,43.5074867 C28.5779922,43.3837872 28.2549946,43.4212727 28.0129656,43.6052895 C27.7709366,43.7893063 27.6483142,44.0906297 27.6930334,44.3914675 C27.7377526,44.6923053 27.9427113,44.9448799 28.227788,45.0504558 L28.7955054,45.2815758 L28.7483316,45.2604167 C30.4241258,46.0676042 32.4691446,45.8864175 33.7797112,44.6110025 L34.6857828,45.23112 C34.9181535,45.3898199 35.2148894,45.4204282 35.4747321,45.3125 L49.1406304,39.6598308 L48.7941432,38.9680992 C48.9910763,39.3615148 49.4597447,39.5339781 49.8645109,39.3619792 C50.1625009,39.2359775 50.4885653,39.1666667 50.8356505,39.1666667 C52.2252806,39.1666667 53.3342602,40.2762633 53.3342602,41.6666667 C53.3342602,42.6156958 52.8055536,43.4208725 52.0247672,43.8492842 C51.6447569,44.0575092 51.4877415,44.5224492 51.6636407,44.91862 L51.3513144,44.215495 L34.9314145,52.9361983 C34.9591074,52.9226233 34.9348326,52.9343633 34.8972535,52.9459633 C34.8582294,52.9583342 34.8201699,52.9735666 34.7833843,52.9915367 C34.3343242,53.2079717 33.8546045,53.3333333 33.3453828,53.3333333 C32.8548375,53.3333333 32.3935358,53.2203258 31.9626889,53.0224608 C31.9434853,53.0135817 31.9239506,53.0054377 31.9041273,52.9980467 C31.8415804,52.97487 31.831003,52.9702633 31.8748469,52.9899092 L11.181609,44.2317708 C10.995131,44.1530413 10.7863826,44.1449412 10.5943707,44.2089842 L0.599931881,47.5423175 C0.163308854,47.6879394 -0.0726597945,48.1601392 0.0728811532,48.5970052 C0.218422101,49.0338711 0.690359249,49.2699711 1.12698228,49.1243492 L10.8237348,45.8902992 L31.2046474,54.5149742 C31.3302966,54.5721158 31.356921,54.5733908 31.3266495,54.5621742 C31.9374113,54.8338842 32.6194326,55 33.3453828,55 C34.130441,55 34.8619798,54.8040433 35.5056391,54.493815 C35.5558612,54.4759983 35.6003006,54.4645358 35.6634288,54.4335933 C35.6716338,54.4293887 35.6797684,54.4250481 35.6878294,54.4205733 L52.8185963,45.3238933 C52.9559777,45.2499135 53.0698319,45.1388157 53.1471901,45.003255 C54.2225376,44.2533733 55,43.0792833 55,41.6666667 C55,39.3754033 53.1256396,37.5 50.8356505,37.5 C50.3799158,37.5 49.9580655,37.62393 49.5456783,37.7604167 L49.5440517,37.7604167 C49.432997,37.7597718 49.3229347,37.7813539 49.2203385,37.8238933 L35.2535011,43.60026 L34.5702871,43.1331383 C34.7595551,42.6581033 35.0111226,42.2076983 35.0111226,41.6666667 C35.0111226,40.0834267 34.1114166,38.7112383 32.8134522,38.0110675 L32.8703871,38.0452475 C32.89812,38.0631725 32.8428525,38.0111308 32.6947032,37.931315 C32.6877092,37.9274157 32.6806593,37.9236176 32.6735558,37.9199217 C32.6735558,37.9199217 21.9590137,32.5502358 16.6619578,30.0488283 C16.6560256,30.0460452 16.6500607,30.0433323 16.6440644,30.04069 C16.5528752,30.00014 16.5437561,29.9998867 16.5887561,30.0179033 C15.63215,29.4833683 14.5307112,29.1666667 13.3565054,29.1666667 Z M18.3537248,40 C17.8937435,40 17.5208549,40.373096 17.5208549,40.8333333 C17.5208549,41.2935706 17.8937435,41.6666667 18.3537248,41.6666667 C18.8137061,41.6666667 19.1865947,41.2935706 19.1865947,40.8333333 C19.1865947,40.373096 18.8137061,40 18.3537248,40 Z M20.8523345,40.8333333 C20.3923531,40.8333333 20.0194646,41.2064294 20.0194646,41.6666667 C20.0194646,42.126904 20.3923531,42.5 20.8523345,42.5 C21.3123158,42.5 21.6852044,42.126904 21.6852044,41.6666667 C21.6852044,41.2064294 21.3123158,40.8333333 20.8523345,40.8333333 Z M23.3509441,41.6666667 C22.8909628,41.6666667 22.5180742,42.0397627 22.5180742,42.5 C22.5180742,42.9602373 22.8909628,43.3333333 23.3509441,43.3333333 C23.8109255,43.3333333 24.183814,42.9602373 24.183814,42.5 C24.183814,42.0397627 23.8109255,41.6666667 23.3509441,41.6666667 Z M25.8495538,42.5 C25.3895725,42.5 25.0166839,42.873096 25.0166839,43.3333333 C25.0166839,43.7935706 25.3895725,44.1666667 25.8495538,44.1666667 C26.3095352,44.1666667 26.6824237,43.7935706 26.6824237,43.3333333 C26.6824237,42.873096 26.3095352,42.5 25.8495538,42.5 Z" id="Shape"></path>
            </g>
        </g>
    </g>
</svg>