<?xml version="1.0" encoding="UTF-8"?>
<svg width="90px" height="90px" viewBox="0 0 90 90" version="1.1" xmlns="http://www.w3.org/2000/svg" xmlns:xlink="http://www.w3.org/1999/xlink">
    <!-- Generator: Sketch 54.1 (76490) - https://sketchapp.com -->
    <title>icons8-checked</title>
    <desc>Created with Sketch.</desc>
    <g id="Page-2" stroke="none" stroke-width="1" fill="none" fill-rule="evenodd">
        <g id="Desktop/Fiat/Signup4" transform="translate(-809.000000, -186.000000)" fill="#5B4AE2" fill-rule="nonzero">
            <g id="icons8-checked" transform="translate(809.000000, 186.000000)">
                <path d="M45,0 C20.1854348,0 0,20.1854348 0,45 C0,69.8145652 20.1854348,90 45,90 C69.8145652,90 90,69.8145652 90,45 C90,36.0782609 87.3788107,27.7617287 82.8846802,20.7612939 L80.205928,23.9253574 C83.9135367,30.096227 86.0869565,37.2913043 86.0869565,45 C86.0869565,67.6545652 67.6545652,86.0869565 45,86.0869565 C22.3454348,86.0869565 3.91304348,67.6545652 3.91304348,45 C3.91304348,22.3454348 22.3454348,3.91304348 45,3.91304348 C55.6493478,3.91304348 65.335903,8.02128052 72.6435117,14.6930197 L75.2038043,11.6703466 C67.211413,4.42143333 56.6119565,0 45,0 Z M80.6797722,11.2576426 L42.8753387,55.8678678 L26.9633152,41.0258152 L24.2960263,43.8879933 L43.2077948,61.5272596 L83.6680539,13.7873641 L80.6797722,11.2576426 Z" id="Shape"></path>
            </g>
        </g>
    </g>
</svg>