<?xml version="1.0" encoding="UTF-8"?>
<svg width="47px" height="59px" viewBox="0 0 47 59" version="1.1" xmlns="http://www.w3.org/2000/svg" xmlns:xlink="http://www.w3.org/1999/xlink">
    <!-- Generator: Sketch 54.1 (76490) - https://sketchapp.com -->
    <title>icons8-geography_filled</title>
    <desc>Created with Sketch.</desc>
    <g id="Page-2" stroke="none" stroke-width="1" fill="none" fill-rule="evenodd">
        <g id="Desktop/Fiat/Landing-page_2" transform="translate(-890.000000, -2098.000000)" fill="#000000" fill-rule="nonzero">
            <g id="icons8-geography_filled" transform="translate(890.000000, 2098.000000)">
                <path d="M14.503906,0.115234375 C14.3851103,0.115234375 14.2663146,0.140442125 14.1475188,0.190856703 C13.6795343,0.392516859 13.4671413,0.936279297 13.6687345,1.40441941 L14.1259191,2.45233131 C2.1275278,8.20324753 -3.28308824,22.513916 2.06272955,34.8151855 C4.71223935,40.9154057 9.57567402,45.6112065 15.7638636,48.0491335 C18.4205727,49.0970464 21.1852786,49.6696165 23.9607843,49.7704465 L23.9607843,53.46875 L14.9178922,53.46875 C12.9019608,53.46875 10.9724265,54.4338379 9.759268,56.05072 L8.65410539,57.5271609 C8.44171239,57.8044434 8.40931373,58.1789551 8.56770833,58.4922488 C8.72250329,58.8019407 9.04289216,59 9.38848039,59 L44.4080882,59 C44.7608767,59 45.0776659,58.8019407 45.2324599,58.4922488 C45.3908545,58.1789551 45.3548562,57.8044434 45.1460629,57.5271609 L44.0409012,56.05072 C42.8313424,54.4338379 40.9018081,53.46875 38.8786765,53.46875 L29.4901961,53.46875 L29.4901961,49.3527219 C30.998545,49.064636 32.4924943,48.6361089 33.9504445,48.0635378 L34.4040286,49.1114507 C34.5552239,49.4571538 34.8936119,49.6660156 35.25,49.6660156 C35.3759959,49.6660156 35.4983913,49.6408079 35.617188,49.5903933 C36.0851716,49.3887331 36.2975646,48.8449707 36.0959714,48.3768315 L35.6351871,47.3181152 C40.1998317,45.132263 43.9365041,41.6932378 46.4564183,37.2927246 C46.7120098,36.8497923 46.5608154,36.2844238 46.1180303,36.0323491 C45.6788447,35.7802734 45.1136642,35.931519 44.8580727,36.3708496 C42.536152,40.4256596 39.0982688,43.6018066 34.9008121,45.6256108 L33.4248619,42.2333984 C37.7591144,40.1051633 41.1070008,36.5076909 42.8889404,31.9883425 C43.2417279,31.0880735 43.5045188,30.1734011 43.7169118,29.2515261 C43.7277116,29.2083132 43.7457108,29.1759038 43.7493104,29.1290891 C43.7493104,29.1254883 43.7493104,29.1182866 43.7493104,29.111084 C44.5592835,25.5244141 44.3288914,21.8045046 43.0617345,18.3114622 C43.0545343,18.2106321 43.0401348,18.1134038 42.9969363,18.0161745 L42.2625613,16.3236692 C42.2193627,16.2264409 42.1545654,16.1508176 42.0897672,16.0751953 C40.4014249,12.7694096 37.8419118,10.0650027 34.67042,8.21044922 C34.6632197,8.20324753 34.6596201,8.19604492 34.6560205,8.18884323 C34.6056217,8.15283203 34.5480237,8.13842773 34.4976258,8.10961914 C33.6876536,7.64868164 32.8560817,7.22375534 31.974112,6.87805222 C27.4526659,5.09552025 22.5388325,5.09191941 18.0281863,6.80963158 L15.3606773,0.669800266 C15.209482,0.320495375 14.8638938,0.111633531 14.503906,0.115234375 Z M14.8602941,4.14123581 L16.339844,7.54785156 C12.0091912,9.67608666 8.65770504,13.27356 6.87936604,17.7929075 C6.5337778,18.6679687 6.27458663,19.5610352 6.06219363,20.4613042 C6.04419447,20.5225222 6.01539545,20.5801394 6.00819524,20.64856 C6.00819524,20.6593626 6.0117958,20.670166 6.0117958,20.6809695 C5.11542563,24.6565554 5.47901394,28.8013921 7.13495757,32.6113281 C8.7909012,36.4212651 11.5736062,39.5109863 15.0906863,41.5671999 C15.0978865,41.5744016 15.1014861,41.5816042 15.1086854,41.5888059 C15.1986831,41.6572266 15.2922794,41.7076421 15.393076,41.7400515 C16.1634502,42.1721804 16.9554233,42.5718999 17.7869943,42.8995969 C20.0873162,43.8070676 22.4884347,44.2608035 24.8859526,44.2608035 C27.2042737,44.2608035 29.5153955,43.8106694 31.7365196,42.9680176 L33.2160695,46.3710325 C30.7177541,47.3469238 28.1150434,47.8690794 25.4979322,47.9375 L24.8823529,47.9375 C24.8715531,47.9375 24.8643538,47.9411008 24.8535539,47.9411008 C22.0096512,47.9375 19.1621479,47.4081419 16.4406405,46.3350222 C10.7132353,44.0771484 6.20618873,39.7270508 3.75107276,34.0805664 C-1.1879591,22.7119753 3.79427129,9.48522995 14.8602941,4.14123581 Z M24.8787533,7.36779831 C27.0458791,7.36779831 29.220205,7.77471947 31.3009347,8.59216355 C31.7545188,8.7722168 32.1901046,8.98107956 32.6256896,9.19354225 C31.7113202,10.2162473 30.6421569,11.2137456 29.4361977,12.16803 C27.6218595,9.94616745 25.6311275,8.3328862 23.6295956,7.43261719 C24.0435817,7.40020775 24.4611675,7.36779831 24.8787533,7.36779831 Z M19.8821234,8.44812058 C22.4632353,8.40490769 25.3791365,10.1658327 27.9494485,13.27356 C26.225107,14.4799192 24.3027729,15.5818484 22.2544429,16.532532 L18.7949599,8.57415748 C19.151348,8.49493431 19.5113358,8.45172142 19.8821234,8.44812058 Z M17.1066176,9.30877663 L20.5625,17.2671511 C18.4709714,18.1170046 16.3542435,18.7723997 14.2987132,19.2117312 C13.701134,14.6383665 14.7054992,10.9364622 17.1066176,9.30877663 Z M34.2708333,10.1082156 C37.2083333,11.962769 39.5230548,14.6491699 40.9378064,17.904541 C42.3561585,21.163513 42.7413447,24.6889648 42.0933668,28.1027832 C40.4770221,28.0343626 38.7598807,28.1351926 36.9779412,28.4088743 C36.7727484,27.4581907 36.5135572,26.4823003 36.1895678,25.484802 C36.0311732,25.0022585 35.5127908,24.7357786 35.0304077,24.890625 C34.544424,25.0490723 34.2780335,25.5712278 34.4364282,26.0537722 C34.7316176,26.9684446 34.9728097,27.8651128 35.1600033,28.7365723 C32.9676782,29.2011106 30.7141544,29.9033203 28.4678309,30.8251953 L27.539063,28.6897585 C27.3338693,28.2216184 26.7938881,28.0091557 26.3259036,28.2144167 C25.85792,28.4160769 25.645527,28.9598393 25.8471201,29.4279785 L26.7758889,31.5598145 C24.5691634,32.5753178 22.5172337,33.7492676 20.6884959,35.0348508 C20.1773129,34.3002317 19.6841299,33.515198 19.2161463,32.6725462 C18.9677541,32.2296147 18.4097737,32.0711675 17.9633889,32.3160405 C17.5206038,32.5645144 17.3586095,33.1226811 17.6070008,33.5656126 C18.1145833,34.4838867 18.6545654,35.3373411 19.2125457,36.13678 C17.7977941,37.2531126 16.5486364,38.4414675 15.4938725,39.6730344 C12.5563725,37.8184819 10.2416511,35.1320801 8.82689951,31.876709 C7.40854825,28.617737 7.02336114,25.0886843 7.67133908,21.674866 C7.98812829,21.6892702 8.30131786,21.7108762 8.62890602,21.7108762 C9.96086114,21.7108762 11.3576136,21.5884402 12.7867647,21.3723757 C12.9919575,22.3230593 13.2511487,23.2989507 13.5751381,24.296448 C13.701134,24.685364 14.0611218,24.9338379 14.4535082,24.9338379 C14.5471045,24.9338379 14.6407018,24.9194336 14.7342982,24.890625 C15.2202819,24.7321777 15.4866733,24.2100222 15.3318783,23.7274778 C15.0330882,22.8128054 14.7954968,21.9161382 14.6083032,21.0410769 C16.8006283,20.5801394 19.0505515,19.8815305 21.3004746,18.9596555 L22.2292435,21.0914915 C22.3768382,21.4371946 22.7152272,21.6460574 23.0716144,21.6460574 C23.1976103,21.6460574 23.3200066,21.6208496 23.442402,21.570435 C23.9067859,21.3687749 24.1191789,20.8250124 23.9175858,20.3568723 L22.9924175,18.2214355 C25.1991422,17.2059331 27.2474722,16.0355833 29.0762099,14.75 C29.5909926,15.4810183 30.0841756,16.266052 30.5521602,17.1087038 C30.7969518,17.5516362 31.3549331,17.7136843 31.8049175,17.4688113 C32.2477027,17.2203374 32.4096969,16.6585698 32.1613056,16.2156374 C31.6537222,15.2973633 31.113741,14.4403081 30.5557598,13.64447 C31.9705114,12.5245366 33.2160695,11.3361816 34.2708333,10.1082156 Z M12.9703587,12.0708008 C12.2647827,14.1522221 12.0847884,16.7017827 12.4735751,19.5466309 C10.9544273,19.7770996 9.49647718,19.8779297 8.12492318,19.8491211 C8.26531863,19.3845828 8.41291337,18.9236453 8.59290771,18.4699094 C9.56847473,15.9923704 11.073223,13.8317258 12.9703587,12.0708008 Z M37.183134,17.6092534 C37.0643382,17.6092534 36.9419429,17.6344602 36.8231462,17.6884766 C36.3587623,17.8901367 36.1427696,18.4302983 36.3443627,18.8984375 L37.0787377,20.5873411 C37.2299331,20.936646 37.5683211,21.1455078 37.9283088,21.1455078 C38.0507051,21.1455078 38.1731005,21.1203001 38.2918962,21.0698855 C38.7598807,20.8646245 38.9722737,20.320862 38.7706806,19.8527219 L38.0363056,18.1638184 C37.8851103,17.8145144 37.5431217,17.6056516 37.183134,17.6092534 Z M32.9568783,19.4458008 C32.8380826,19.4494016 32.7156863,19.4746094 32.6004902,19.5250249 C32.1325066,19.726685 31.9165139,20.2704465 32.1217067,20.7385867 L32.8560817,22.4274902 C33.0072761,22.7731934 33.3456651,22.9820561 33.7020532,22.9820561 C33.8244485,22.9820561 33.9468448,22.9568484 34.0692402,22.9064329 C34.5336242,22.7047727 34.7496168,22.1610112 34.544424,21.6928711 L33.810049,20.0039675 C33.6588546,19.6510618 33.316866,19.4421999 32.9568783,19.4458008 Z M28.7306217,21.2859499 C28.611826,21.2859499 28.4894306,21.3111577 28.370634,21.3615723 C27.90625,21.5632324 27.693857,22.1069949 27.8954501,22.575134 L28.6298251,24.2676394 C28.7810205,24.6133425 29.1194085,24.8186035 29.4757966,24.8186035 C29.6017925,24.8186035 29.7241879,24.7969975 29.8429845,24.746582 C30.3109681,24.541321 30.5233611,23.9975586 30.321768,23.5330202 L29.587393,21.8369141 C29.432598,21.4876101 29.0906095,21.2787473 28.7306217,21.2859499 Z M24.5079657,23.1224973 C24.3855703,23.1224973 24.263174,23.1477051 24.1479779,23.2017214 C23.6799943,23.4033816 23.4676013,23.9435423 23.6727941,24.4116824 L24.4071691,26.1005859 C24.5547639,26.4498899 24.8931528,26.6587527 25.2531405,26.6587527 C25.3755359,26.6587527 25.4979322,26.6335449 25.6167279,26.5795286 C26.0847125,26.3778684 26.2971045,25.8377077 26.0955114,25.3695676 L25.3611364,23.6806641 C25.209942,23.3277592 24.8643538,23.1188965 24.5079657,23.1224973 Z M20.2781095,24.9626465 C20.1593137,24.9626465 20.0369184,24.9878542 19.9217223,25.0382688 C19.4537377,25.239929 19.2413447,25.7836914 19.4429379,26.2518315 L20.1773129,27.9443359 C20.3285082,28.2900391 20.6668962,28.4953001 21.0232843,28.4953001 C21.1492803,28.4953001 21.2716756,28.4700932 21.3940719,28.4196777 C21.8584559,28.2180176 22.0708489,27.6742551 21.8692557,27.2097168 L21.1348807,25.5136106 C20.9836854,25.1679075 20.6380972,24.9590456 20.2781095,24.9626465 Z M16.0554534,26.795593 C15.9366577,26.7991948 15.8142614,26.8244016 15.6954657,26.8748171 C15.2310817,27.0764773 15.0150891,27.6202397 15.2202819,28.0883789 L15.9546569,29.7772825 C16.1058522,30.1265874 16.4442402,30.3354492 16.8006283,30.3354492 C16.9230237,30.3354492 17.04542,30.3102415 17.1642157,30.2598269 C17.6322002,30.0545659 17.8481929,29.5108035 17.6429992,29.0426633 L16.9086242,27.3537598 C16.7574298,27.0044558 16.4154412,26.7919922 16.0554534,26.795593 Z M11.8291978,28.6357422 C11.7104011,28.639343 11.5880057,28.6609499 11.4728097,28.7113645 C11.0048251,28.9166264 10.7924331,29.460388 10.9940262,29.9285281 L11.7284012,31.6174316 C11.8795956,31.9667356 12.2179845,32.1719975 12.5743717,32.1719975 C12.696768,32.1719975 12.8191634,32.1467898 12.9415597,32.0927734 C13.4059436,31.8911133 13.6219363,31.3509526 13.4203431,30.8828125 L12.6859681,29.1939089 C12.5311732,28.8410032 12.1891855,28.6357422 11.8291978,28.6357422 Z M41.6433824,29.9321289 C41.4993873,30.3966672 41.3517925,30.8576047 41.1717982,31.3113406 C40.1962321,33.7888796 38.6914828,35.9495242 36.7943472,37.7104492 C37.4999232,35.6290288 37.6799175,33.0794682 37.2911307,30.2346191 C38.8102786,30.0041504 40.2718293,29.9033203 41.6433824,29.9321289 Z M35.4659926,30.5695188 C36.0635728,35.1428835 35.0592067,38.8447878 32.6580882,40.4724734 L29.2022059,32.5140989 C31.2901348,31.6642454 33.4068627,31.0088503 35.4659926,30.5695188 Z M27.5138636,33.248718 L30.9697459,41.2070925 C28.1438424,41.851685 24.7527574,40.0619505 21.8152574,36.5076909 C23.5395989,35.3013308 25.4655335,34.1994016 27.5138636,33.248718 Z M20.321308,37.6168217 C22.1356462,39.8386843 24.1227786,41.444763 26.1243104,42.3486328 C23.5467982,42.5358887 20.9404869,42.1649778 18.4637712,41.1854856 C18.0101871,41.0090332 17.5746022,40.8001714 17.1390163,40.5877077 C18.049786,39.5650027 19.1189494,38.5675053 20.321308,37.6168217 Z M25.8039216,49.78125 L27.6470588,49.78125 L27.6470588,53.46875 L25.8039216,53.46875 L25.8039216,49.78125 Z M14.9178922,55.3125 L38.8786765,55.3125 C40.3222271,55.3125 41.7009804,56.0003054 42.564951,57.15625 L11.2316176,57.15625 C12.0991879,56.0003054 13.4779412,55.3125 14.9178922,55.3125 Z" id="Shape"></path>
            </g>
        </g>
    </g>
</svg>