<?xml version="1.0" encoding="UTF-8"?>
<svg width="46px" height="44px" viewBox="0 0 46 44" version="1.1" xmlns="http://www.w3.org/2000/svg" xmlns:xlink="http://www.w3.org/1999/xlink">
    <!-- Generator: Sketch 54.1 (76490) - https://sketchapp.com -->
    <title>icons8-online_payment</title>
    <desc>Created with Sketch.</desc>
    <g id="Page-2" stroke="none" stroke-width="1" fill="none" fill-rule="evenodd">
        <g id="Desktop/Fiat/Landing-page_2" transform="translate(-249.000000, -1822.000000)" fill="#000000" fill-rule="nonzero">
            <g id="icons8-online_payment" transform="translate(248.000000, 1822.000000)">
                <path d="M15.5,0 C13.578125,0 12,1.578125 12,3.5 L12,24 L11.5,24 C10.671875,24 10,24.671875 10,25.5 C10,26.328125 10.671875,27 11.5,27 L36.5,27 C37.328125,27 38,26.328125 38,25.5 C38,24.671875 37.328125,24 36.5,24 L36,24 L36,3.5 C36,1.578125 34.421875,0 32.5,0 L15.5,0 Z M15.5,2 L17,2 L17,25 L14,25 L14,3.5 C14,2.660156 14.660156,2 15.5,2 Z M20,2 L32.5,2 C33.339844,2 34,2.660156 34,3.5 L34,25 L20,25 L20,2 Z M4,8 C2.355469,8 1,9.355469 1,11 L1,32.6875 C0.941406,32.882813 0.941406,33.085938 1,33.28125 L1,35 C1,36.644531 2.355469,38 4,38 L17.8125,38 L17.15625,42 L15,42 C14.96875,42 14.9375,42 14.90625,42 C14.355469,42.027344 13.925781,42.496094 13.953125,43.046875 C13.980469,43.597656 14.449219,44.027344 15,44 L33,44 C33.359375,44.003906 33.695313,43.816406 33.878906,43.503906 C34.058594,43.191406 34.058594,42.808594 33.878906,42.496094 C33.695313,42.183594 33.359375,41.996094 33,42 L30.84375,42 L30.1875,38 L44,38 C45.644531,38 47,36.644531 47,35 L47,33.1875 C47.027344,33.054688 47.027344,32.914063 47,32.78125 L47,11 C47,9.355469 45.644531,8 44,8 L37,8 L37,10 L44,10 C44.566406,10 45,10.433594 45,11 L45,32 L3,32 L3,11 C3,10.433594 3.433594,10 4,10 L11,10 L11,8 L4,8 Z M3,34 L45,34 L45,35 C45,35.566406 44.566406,36 44,36 L4,36 C3.433594,36 3,35.566406 3,35 L3,34 Z M19.875,38 L28.125,38 L28.8125,42 L19.1875,42 L19.875,38 Z" id="Shape"></path>
            </g>
        </g>
    </g>
</svg>