<?xml version="1.0" encoding="UTF-8"?>
<svg width="22px" height="22px" viewBox="0 0 22 22" version="1.1" xmlns="http://www.w3.org/2000/svg" xmlns:xlink="http://www.w3.org/1999/xlink">
    <!-- Generator: Sketch 54.1 (76490) - https://sketchapp.com -->
    <title>icons8-instagram_new</title>
    <desc>Created with Sketch.</desc>
    <g id="Page-2" stroke="none" stroke-width="1" fill="none" fill-rule="evenodd">
        <g id="Desktop/Fiat/Landing-page_2" transform="translate(-848.000000, -4957.000000)" fill="#FFFFFF" fill-rule="nonzero">
            <g id="Group-8" transform="translate(569.000000, 4957.000000)">
                <g id="icons8-instagram_new" transform="translate(279.000000, 0.000000)">
                    <path d="M6.38581731,0 C2.86899038,0 0,2.86899038 0,6.38581731 L0,15.6141827 C0,19.1310096 2.86899038,22 6.38581731,22 L15.6141827,22 C19.1310096,22 22,19.1310096 22,15.6141827 L22,6.38581731 C22,2.86899038 19.1310096,0 15.6141827,0 L6.38581731,0 Z M6.38581731,1.69230769 L15.6141827,1.69230769 C18.2154449,1.69230769 20.3076923,3.78125 20.3076923,6.38581731 L20.3076923,15.6141827 C20.3076923,18.2154449 18.21875,20.3076923 15.6141827,20.3076923 L6.38581731,20.3076923 C3.78455508,20.3076923 1.69230769,18.21875 1.69230769,15.6141827 L1.69230769,6.38581731 C1.69230769,3.78455508 3.78125,1.69230769 6.38581731,1.69230769 Z M17.3461538,3.38461538 C16.6454327,3.38461538 16.0769231,3.953125 16.0769231,4.65384615 C16.0769231,5.35456731 16.6454327,5.92307692 17.3461538,5.92307692 C18.046875,5.92307692 18.6153846,5.35456731 18.6153846,4.65384615 C18.6153846,3.953125 18.046875,3.38461538 17.3461538,3.38461538 Z M11,5.07692308 C7.73768008,5.07692308 5.07692308,7.73768008 5.07692308,11 C5.07692308,14.2623199 7.73768008,16.9230769 11,16.9230769 C14.2623199,16.9230769 16.9230769,14.2623199 16.9230769,11 C16.9230769,7.73768008 14.2623199,5.07692308 11,5.07692308 Z M11,6.76923077 C13.3467552,6.76923077 15.2307692,8.65324562 15.2307692,11 C15.2307692,13.3467552 13.3467552,15.2307692 11,15.2307692 C8.65324562,15.2307692 6.76923077,13.3467552 6.76923077,11 C6.76923077,8.65324562 8.65324562,6.76923077 11,6.76923077 Z" id="Shape"></path>
                </g>
            </g>
        </g>
    </g>
</svg>