<?xml version="1.0" encoding="UTF-8"?>
<svg width="22px" height="22px" viewBox="0 0 22 22" version="1.1" xmlns="http://www.w3.org/2000/svg" xmlns:xlink="http://www.w3.org/1999/xlink">
    <!-- Generator: Sketch 54.1 (76490) - https://sketchapp.com -->
    <title>icons8-linkedin</title>
    <desc>Created with Sketch.</desc>
    <g id="Page-2" stroke="none" stroke-width="1" fill="none" fill-rule="evenodd">
        <g id="Desktop/Fiat/Landing-page_2" transform="translate(-753.000000, -4957.000000)" fill-rule="nonzero">
            <g id="Group-8" transform="translate(569.000000, 4957.000000)">
                <g id="icons8-linkedin" transform="translate(184.000000, 0.000000)">
                    <g id="Group">
                        <path d="M21.3888889,18.4182099 C21.3888889,20.059213 20.059213,21.3888889 18.4182099,21.3888889 L2.97067901,21.3888889 C1.33027006,21.3888889 0,20.059213 0,18.4182099 L0,2.97067901 C0,1.32967593 1.33027006,0 2.97067901,0 L18.4182099,0 C20.059213,0 21.3888889,1.32967593 21.3888889,2.97067901 L21.3888889,18.4182099 Z" id="Path" fill="#FFFFFF"></path>
                        <rect id="Rectangle" fill="#604EE3" x="4" y="6" width="2.97067901" height="10.1003086"></rect>
                        <path d="M5.14309414,4.63734568 L5.12645833,4.63734568 C4.24000772,4.63734568 3.66666667,3.97666667 3.66666667,3.15141204 C3.66666667,2.30833333 4.25783179,1.66666667 5.16032407,1.66666667 C6.06400463,1.66666667 6.62070988,2.30833333 6.63734568,3.15141204 C6.63734568,3.97607253 6.06400463,4.63734568 5.14309414,4.63734568 Z" id="Path" fill="#604EE3"></path>
                        <path d="M17.5061728,16.1003086 L14.5354938,16.1003086 L14.5354938,10.694267 C14.5354938,9.38835648 13.8076775,8.49715278 12.6390123,8.49715278 C11.7472145,8.49715278 11.2647762,9.09841821 11.0306867,9.67948302 C10.9451312,9.88743056 10.970679,10.462554 10.970679,10.7530864 L10.970679,16.1003086 L8,16.1003086 L8,6 L10.970679,6 L10.970679,7.55425926 C11.3990509,6.8912037 12.0698302,6 13.7856944,6 C15.9115123,6 17.5055787,7.33680556 17.5055787,10.3217438 L17.5061728,16.1003086 L17.5061728,16.1003086 Z" id="Path" fill="#604EE3"></path>
                    </g>
                </g>
            </g>
        </g>
    </g>
</svg>