<?xml version="1.0" encoding="UTF-8"?>
<svg width="26px" height="26px" viewBox="0 0 26 26" version="1.1" xmlns="http://www.w3.org/2000/svg" xmlns:xlink="http://www.w3.org/1999/xlink">
    <!-- Generator: Sketch 54.1 (76490) - https://sketchapp.com -->
    <title>web/password</title>
    <desc>Created with Sketch.</desc>
    <defs>
        <radialGradient cx="123.984557%" cy="-51.5964579%" fx="123.984557%" fy="-51.5964579%" r="102.928856%" gradientTransform="translate(1.239846,-0.515965),scale(1.000000,0.916667),rotate(123.815387),translate(-1.239846,0.515965)" id="radialGradient-1">
            <stop stop-color="#FFFFFF" offset="0%"></stop>
            <stop stop-color="#BABABA" offset="100%"></stop>
        </radialGradient>
    </defs>
    <g id="web/password" stroke="none" stroke-width="1" fill="none" fill-rule="evenodd">
        <g id="Untitled-3" transform="translate(2.000000, 1.000000)" fill="url(#radialGradient-1)" fill-rule="nonzero">
            <path d="M19.2920723,9.37429467 L18.7260083,9.37429467 L18.7260083,7.59874608 C18.7260083,3.40815047 15.2607789,0 11,0 C6.73922114,0 3.27399166,3.40815047 3.27399166,7.59874608 L3.27399166,9.36677116 L2.70792768,9.36677116 C1.2162726,9.36677116 0,10.5554859 0,12.030094 L0,21.3366771 C0,22.8037618 1.20862309,24 2.70792768,24 L19.2920723,24 C20.7837274,24 22,22.8112853 22,21.3366771 L22,12.030094 C22,10.5630094 20.7913769,9.37429467 19.2920723,9.37429467 Z M5.40820584,7.59874608 C5.40820584,4.56677116 7.91724618,2.09905956 11,2.09905956 C14.0827538,2.09905956 16.5917942,4.56677116 16.5917942,7.59874608 L16.5917942,9.36677116 L5.40820584,9.36677116 L5.40820584,7.59874608 Z M12.2927677,18.3648903 L9.70723227,18.3648903 L10.1585535,15.2125392 C9.80667594,14.9567398 9.58484006,14.5504702 9.58484006,14.0915361 C9.58484006,13.3241379 10.2197497,12.6996865 11,12.6996865 C11.7802503,12.6996865 12.4151599,13.3241379 12.4151599,14.0915361 C12.4151599,14.5504702 12.1856745,14.9567398 11.8414465,15.2125392 L12.2927677,18.3648903 Z" id="Shape"></path>
        </g>
    </g>
</svg>