<?xml version="1.0" encoding="UTF-8"?>
<svg width="28px" height="22px" viewBox="0 0 28 22" version="1.1" xmlns="http://www.w3.org/2000/svg" xmlns:xlink="http://www.w3.org/1999/xlink">
    <!-- Generator: Sketch 54.1 (76490) - https://sketchapp.com -->
    <title>icons8-twitter</title>
    <desc>Created with Sketch.</desc>
    <g id="Page-2" stroke="none" stroke-width="1" fill="none" fill-rule="evenodd">
        <g id="Desktop/Fiat/Landing-page_2" transform="translate(-569.000000, -4957.000000)" fill="#FFFFFF" fill-rule="nonzero">
            <g id="Group-8" transform="translate(569.000000, 4957.000000)">
                <g id="icons8-twitter">
                    <path d="M28,2.60131034 C26.9710857,3.04586207 25.8644002,3.34248276 24.697053,3.48282759 C25.883843,2.79551724 26.796878,1.69931034 27.2253979,0.404344828 C26.1148238,1.03931034 24.8844818,1.50586207 23.5755909,1.75165517 C22.5303447,0.67062069 21.0394689,0 19.3876066,0 C16.2145377,0 13.6426409,2.48675862 13.6426409,5.55310345 C13.6426409,5.98703448 13.6947477,6.40958621 13.7927395,6.82 C9.01913729,6.58634483 4.78526789,4.37268966 1.95283726,1.01351724 C1.45510096,1.83434483 1.1751243,2.79551724 1.1751243,3.8097931 C1.1751243,5.73744828 2.18692887,7.43448276 3.7299114,8.43434483 C2.78810099,8.40627586 1.90150821,8.15062069 1.12535067,7.74096552 C1.12535067,7.75765517 1.12535067,7.78268966 1.12535067,7.8062069 C1.12535067,10.500069 3.1061856,12.7433103 5.73174458,13.2538621 C5.25189568,13.382069 4.74482682,13.4533793 4.22220371,13.4533793 C3.85123462,13.4533793 3.48959809,13.4124138 3.13962725,13.3509655 C3.87067744,15.5524828 5.99150071,17.1615172 8.50429131,17.2093103 C6.53823293,18.6962069 4.06199483,19.5868276 1.36955254,19.5868276 C0.904480182,19.5868276 0.449518096,19.5610345 0,19.507931 C2.54389912,21.0790345 5.56453629,22 8.80682165,22 C19.3720523,22 25.1520151,13.5368276 25.1520151,6.19489655 C25.1520151,5.95441379 25.144238,5.71468966 25.1325723,5.478 C26.2602561,4.70117241 27.2323973,3.72103448 28,2.60131034" id="Path"></path>
                </g>
            </g>
        </g>
    </g>
</svg>