<?xml version="1.0" standalone="no"?>
<!DOCTYPE svg PUBLIC "-//W3C//DTD SVG 20010904//EN"
 "http://www.w3.org/TR/2001/REC-SVG-20010904/DTD/svg10.dtd">
<svg version="1.0" xmlns="http://www.w3.org/2000/svg"
 width="1152.000000pt" height="1152.000000pt" viewBox="0 0 1152.000000 1152.000000"
 preserveAspectRatio="xMidYMid meet">
<metadata>
Created by potrace 1.11, written by Peter Selinger 2001-2013
</metadata>
<g transform="translate(0.000000,1152.000000) scale(0.100000,-0.100000)"
fill="#000000" stroke="none">
<path d="M135 8626 c-53 -30 -87 -64 -110 -110 l-25 -50 0 -2693 c0 -2109 3
-2702 12 -2739 18 -67 84 -129 151 -144 37 -8 490 -10 1592 -8 l1540 3 35 24
c64 44 100 101 106 165 3 22 6 41 8 44 2 2 0 17 -4 33 -5 16 -5 29 -2 29 7 0
6 37 -1 93 -2 15 -1 27 2 27 3 0 5 28 4 62 -1 35 -3 63 -3 63 -1 0 -4 11 -6
25 -13 70 -93 153 -160 167 -16 3 -562 6 -1214 7 -1079 1 -1188 3 -1215 18
-58 31 -93 72 -112 128 -17 52 -18 146 -16 1975 1 1056 3 1927 5 1935 9 34 48
107 72 133 14 15 49 40 78 55 l53 27 1155 0 c1102 0 1157 -1 1194 -18 83 -40
149 -124 162 -205 3 -20 6 -642 7 -1382 2 -1070 0 -1353 -11 -1385 -25 -81 10
-77 -712 -78 -583 -1 -640 1 -664 16 -47 31 -50 48 -52 267 -1 165 2 211 14
237 28 59 41 61 420 61 342 0 343 0 390 24 28 15 60 43 82 73 l35 49 3 191 c5
239 -3 279 -64 338 -25 24 -61 49 -81 55 -23 7 -159 11 -381 12 -368 1 -364 0
-400 52 -14 19 -17 54 -19 213 -1 105 3 205 9 222 5 18 23 42 39 53 28 21 40
21 386 21 216 0 377 4 406 11 59 13 126 73 149 133 22 60 19 415 -4 465 -22
47 -55 83 -103 111 l-40 22 -730 1 c-401 1 -752 -3 -780 -7 -101 -17 -174
-113 -176 -233 -1 -32 0 -63 1 -69 1 -5 2 -12 1 -15 -2 -8 -3 -454 -1 -465 1
-6 2 -12 1 -15 -2 -8 -3 -454 -1 -465 1 -6 2 -12 1 -15 -2 -8 -3 -454 -1 -465
1 -6 2 -12 1 -15 -2 -8 -3 -454 -1 -465 1 -6 2 -14 1 -20 -1 -5 -2 -48 -1 -95
1 -47 1 -91 1 -97 0 -7 0 -42 0 -78 0 -36 0 -72 0 -80 0 -8 0 -44 0 -80 0 -36
0 -72 0 -80 0 -8 0 -44 0 -80 0 -36 0 -72 0 -80 0 -8 0 -44 0 -80 0 -36 -1
-73 -1 -82 -1 -83 2 -108 17 -145 20 -54 56 -94 108 -121 l40 -21 1330 1
c1077 0 1336 3 1360 13 17 7 33 14 37 14 17 2 66 57 82 91 25 53 27 63 26 203
0 9 0 33 1 52 0 19 1 65 2 103 1 37 -1 67 -5 67 -4 0 -3 14 2 30 5 17 5 30 0
30 -5 0 -5 13 0 30 5 17 5 30 0 30 -5 0 -5 13 0 30 5 17 5 30 0 30 -5 0 -5 13
0 29 4 15 4 34 0 42 -5 7 -5 20 0 29 5 9 5 22 0 30 -5 8 -5 21 0 30 5 9 5 22
0 30 -5 8 -5 21 0 30 5 9 5 22 1 28 -4 7 -5 35 -1 62 4 27 3 55 -1 62 -4 6 -4
19 1 28 5 9 5 22 0 30 -5 8 -5 21 0 30 5 9 5 22 0 30 -4 7 -4 24 0 36 6 14 5
26 0 29 -5 3 -5 18 0 35 5 17 5 30 0 30 -5 0 -5 13 0 30 5 17 5 30 0 30 -5 0
-5 13 0 30 5 17 6 30 2 30 -4 0 -7 16 -7 35 0 19 3 35 7 35 4 0 3 14 -2 30 -5
19 -5 30 1 30 6 0 7 5 4 10 -8 14 -11 108 -3 116 4 3 2 19 -2 35 -5 16 -5 31
0 34 4 3 4 21 0 40 -4 19 -4 37 0 40 4 3 4 21 0 40 -4 19 -5 35 -1 35 7 0 5
96 -3 116 -3 8 -1 14 4 14 5 0 5 13 0 30 -5 17 -5 30 0 30 5 0 5 13 0 30 -5
17 -5 30 0 30 5 0 5 13 0 30 -5 17 -5 30 0 30 5 0 5 13 0 30 -5 17 -5 30 0 30
5 0 5 13 0 30 -5 17 -5 30 0 30 5 0 5 13 0 30 -5 17 -5 30 0 30 5 0 5 13 0 30
-5 17 -5 30 0 30 5 0 5 13 0 30 -5 19 -5 30 1 30 6 0 7 5 4 10 -8 14 -11 108
-3 116 4 3 2 19 -2 35 -5 16 -5 31 0 34 4 3 4 21 0 40 -4 19 -4 37 0 40 4 3 4
21 0 40 -4 19 -5 35 -1 35 7 0 5 109 -3 117 -3 3 -1 13 4 22 5 10 5 23 0 31
-5 8 -5 21 0 30 5 9 5 22 0 30 -4 7 -4 24 0 36 6 14 5 26 0 29 -5 3 -5 18 0
35 5 17 5 30 0 30 -5 0 -5 13 0 30 5 17 5 30 0 30 -5 0 -5 13 0 30 5 17 6 30
2 30 -4 0 -7 16 -7 35 0 19 3 35 7 35 4 0 3 14 -2 30 -5 17 -5 30 0 30 5 0 5
13 0 29 -4 16 -6 32 -3 34 7 8 9 167 1 167 -4 0 -3 14 2 30 5 17 5 30 0 30 -5
0 -5 13 0 30 5 17 5 30 0 30 -5 0 -5 13 0 30 5 17 5 30 0 30 -5 0 -5 13 0 29
4 15 4 34 0 42 -5 7 -5 20 0 29 5 9 5 22 0 30 -5 8 -5 21 0 30 5 9 5 22 0 30
-5 8 -5 21 0 30 5 9 5 22 0 30 -5 8 -7 17 -5 21 11 17 4 159 -10 217 -11 47
-86 117 -140 131 -64 16 -3842 14 -3870 -3z"/>
<path d="M5086 7362 c-2 -1 -25 -4 -52 -6 -90 -7 -166 -51 -203 -116 -31 -56
-37 -96 -28 -186 2 -18 0 -40 -4 -50 -3 -11 -3 -28 1 -40 5 -11 5 -27 0 -34
-4 -7 -4 -25 0 -40 4 -15 4 -33 0 -40 -4 -7 -4 -25 0 -41 5 -15 6 -30 2 -33
-7 -8 -5 -113 3 -126 3 -6 2 -10 -4 -10 -6 0 -6 -11 -1 -30 5 -17 5 -30 0 -30
-5 0 -5 -13 0 -30 5 -17 5 -30 0 -30 -5 0 -5 -13 0 -30 5 -17 5 -30 0 -30 -5
0 -5 -13 0 -30 5 -17 5 -30 0 -30 -5 0 -5 -13 0 -30 5 -17 5 -30 0 -30 -5 0
-5 -13 0 -30 5 -17 5 -30 0 -30 -5 0 -5 -13 0 -30 5 -17 5 -30 0 -30 -5 0 -5
-13 0 -30 5 -17 5 -30 0 -30 -5 0 -5 -12 -1 -27 7 -30 6 -91 -3 -100 -2 -3 -1
-15 4 -27 4 -13 5 -29 0 -36 -4 -7 -4 -25 0 -40 4 -15 4 -33 0 -40 -4 -7 -4
-25 0 -41 5 -15 6 -30 3 -33 -8 -7 -7 -116 1 -123 3 -3 1 -13 -4 -22 -5 -10
-5 -23 0 -31 5 -8 5 -21 0 -30 -5 -9 -5 -22 0 -30 5 -8 5 -21 0 -30 -5 -9 -5
-22 0 -29 4 -8 4 -27 0 -42 -5 -16 -5 -29 0 -29 5 0 5 -13 0 -30 -5 -17 -5
-30 0 -30 5 0 5 -13 0 -30 -5 -16 -5 -30 0 -30 4 0 5 -15 1 -32 -4 -18 -4 -48
0 -65 3 -18 3 -33 -2 -33 -4 0 -4 -12 0 -27 7 -30 6 -91 -3 -100 -2 -3 -1 -15
4 -27 4 -13 5 -29 0 -36 -4 -7 -4 -25 0 -40 4 -15 4 -33 0 -40 -4 -7 -4 -25 0
-41 5 -15 6 -30 2 -33 -7 -8 -5 -113 3 -126 3 -6 2 -10 -4 -10 -6 0 -6 -11 -1
-30 5 -17 5 -30 0 -30 -5 0 -5 -13 0 -30 5 -17 5 -30 0 -30 -5 0 -5 -13 0 -30
5 -17 5 -30 0 -30 -5 0 -5 -13 0 -29 4 -16 6 -31 4 -34 -15 -15 0 -146 21
-187 35 -68 122 -120 213 -126 30 -2 57 -6 61 -8 3 -2 15 0 26 4 11 4 32 4 46
0 15 -4 32 -4 39 0 7 4 26 4 41 0 16 -5 29 -5 29 0 0 4 16 4 35 0 19 -4 35 -5
35 -1 0 3 18 5 41 4 116 -4 222 71 248 175 5 21 8 370 7 832 -1 437 1 803 3
814 2 11 12 -6 23 -45 10 -35 23 -73 28 -84 10 -22 259 -761 265 -785 2 -8 4
-15 5 -15 1 0 169 -494 173 -510 2 -5 12 -35 22 -65 11 -30 19 -57 20 -60 0
-3 16 -49 35 -104 30 -88 38 -101 74 -125 36 -24 50 -26 145 -28 58 -1 108 -3
111 -4 3 -1 10 0 15 1 28 6 125 4 125 -3 0 -5 4 -6 9 -3 5 4 29 7 53 8 54 1
86 13 116 41 22 21 50 72 57 107 3 15 58 188 100 315 13 39 60 185 105 325 45
140 89 278 98 305 9 28 17 52 17 55 0 3 9 30 20 60 11 30 20 58 21 63 1 4 2 8
4 10 1 1 3 9 5 17 2 8 28 92 58 185 31 94 68 209 83 258 14 48 29 87 33 87 3
0 6 -372 6 -828 l0 -827 22 -41 c24 -44 81 -96 129 -115 16 -6 73 -13 126 -14
54 -2 102 -6 108 -10 5 -3 10 -3 10 2 0 4 53 7 117 7 138 -2 193 12 253 63 51
44 72 84 77 148 6 73 5 164 -2 175 -3 6 -3 10 2 10 4 0 7 33 5 72 -4 94 -4 87
-3 128 1 19 1 44 1 55 0 106 -1 129 -6 136 -3 5 -2 9 3 9 4 0 8 20 8 45 0 25
-2 45 -5 45 -3 0 -3 27 0 60 3 33 3 65 -1 71 -3 6 -3 25 1 43 4 18 4 41 0 51
-4 11 -4 28 -1 38 4 10 4 43 1 73 -3 30 -4 54 -1 54 4 0 6 20 6 45 0 25 -2 45
-5 45 -3 0 -3 32 0 70 3 39 3 70 0 70 -6 0 -2 140 4 157 3 7 2 13 -3 13 -5 0
-5 18 -1 40 4 22 4 40 0 40 -4 0 -4 18 0 40 4 22 4 40 0 40 -4 0 -4 18 0 40 4
22 4 40 0 40 -4 0 -4 18 0 40 4 22 4 40 0 40 -4 0 -4 18 0 40 4 22 4 40 0 40
-4 0 -4 18 0 40 4 22 4 40 0 40 -4 0 -4 18 0 40 4 22 4 40 0 40 -4 0 -4 18 0
40 4 22 4 40 0 40 -4 0 -4 18 0 40 4 22 4 40 0 40 -4 0 -4 18 0 40 4 22 4 40
0 40 -4 0 -4 18 0 40 4 22 4 40 0 40 -4 0 -4 18 0 40 4 22 4 40 0 40 -4 0 -4
18 0 40 4 22 4 40 0 40 -4 0 -4 18 0 40 4 23 3 40 -2 40 -5 0 -6 4 -3 10 8 12
8 121 1 182 -7 59 -24 94 -68 134 -47 45 -89 64 -154 68 -31 3 -58 7 -61 10
-3 3 -13 1 -22 -4 -10 -5 -23 -5 -31 0 -8 5 -21 5 -30 0 -9 -5 -22 -5 -30 0
-8 5 -21 5 -30 0 -9 -5 -22 -5 -30 0 -8 5 -21 5 -30 0 -9 -5 -22 -5 -30 0 -8
5 -21 5 -30 0 -9 -5 -22 -5 -28 -1 -7 4 -35 5 -62 1 -27 -4 -55 -3 -62 1 -6 4
-19 4 -28 -1 -9 -5 -22 -5 -30 0 -8 5 -21 5 -30 0 -9 -5 -22 -5 -30 0 -7 4
-23 4 -36 0 -12 -5 -25 -6 -28 -2 -4 3 -26 5 -49 5 -39 -1 -52 -3 -115 -17
-55 -12 -132 -78 -152 -131 -16 -42 -130 -367 -135 -385 -2 -8 -18 -55 -35
-105 -37 -104 -175 -501 -250 -720 -56 -164 -77 -193 -133 -190 -82 4 -86 11
-172 267 -36 106 -68 200 -72 208 -3 8 -7 20 -9 25 -5 20 -126 370 -134 390
-7 16 -30 86 -35 105 -1 3 -5 13 -9 22 -4 9 -9 22 -10 30 -2 7 -6 20 -9 28
-13 34 -90 257 -99 290 -16 56 -66 116 -121 146 -40 21 -66 28 -125 30 -41 2
-77 6 -80 8 -2 3 -12 1 -21 -4 -10 -5 -23 -5 -31 0 -8 5 -21 5 -30 0 -9 -5
-22 -5 -30 0 -8 5 -21 5 -30 0 -9 -5 -22 -5 -29 0 -8 4 -27 4 -42 0 -16 -5
-29 -5 -29 0 0 5 -13 5 -30 0 -17 -5 -30 -5 -30 0 0 5 -13 5 -30 0 -17 -5 -30
-5 -30 0 0 5 -13 5 -30 0 -16 -5 -30 -6 -30 -2 0 7 -178 10 -184 4z"/>
<path d="M9215 7362 c-1 -2 -25 -4 -52 -6 -81 -6 -150 -54 -183 -130 -25 -54
-20 -144 9 -185 12 -16 21 -32 21 -35 0 -4 8 -19 19 -34 10 -15 38 -58 63 -97
24 -38 67 -106 95 -150 28 -44 110 -174 183 -290 73 -115 157 -248 187 -295
30 -47 109 -170 176 -275 l121 -190 1 -670 c1 -667 1 -670 23 -717 32 -69 101
-117 178 -123 25 -3 49 -7 54 -10 6 -4 10 -2 10 3 0 6 14 7 33 3 17 -3 50 -4
72 -1 22 3 50 2 62 -2 12 -4 25 -3 28 1 3 5 21 5 40 1 21 -5 35 -4 35 2 0 5 5
6 11 3 19 -13 98 17 139 52 41 35 56 57 68 96 4 12 8 323 9 690 l3 668 193
302 c105 166 195 304 199 305 5 2 8 8 8 13 0 5 44 78 98 162 54 83 105 163
112 176 7 14 17 30 21 35 19 24 79 116 79 122 0 4 15 27 33 53 18 25 44 65 57
89 13 23 27 42 32 42 4 0 7 3 6 8 -1 4 11 27 27 52 39 62 43 138 10 204 -41
81 -99 115 -208 122 -38 2 -73 7 -78 10 -5 3 -9 2 -9 -3 0 -4 -19 -7 -42 -5
-47 3 -44 3 -108 1 -25 0 -49 0 -55 1 -5 1 -14 1 -20 0 -5 -1 -30 -3 -55 -5
-53 -3 -111 -25 -157 -61 -32 -24 -103 -124 -103 -144 0 -6 -4 -10 -9 -10 -5
0 -11 -8 -15 -17 -3 -10 -15 -31 -26 -48 -11 -16 -23 -36 -27 -44 -11 -23
-141 -235 -153 -248 -5 -7 -10 -15 -10 -18 0 -4 -13 -26 -30 -50 -16 -24 -30
-48 -30 -54 0 -6 -4 -11 -10 -11 -5 0 -10 -6 -10 -14 0 -8 -14 -29 -32 -46
-29 -29 -36 -32 -76 -26 -44 6 -56 16 -87 68 -14 23 -120 195 -221 358 -46 74
-101 165 -123 201 -61 101 -131 153 -217 162 -19 2 -37 6 -40 10 -3 3 -16 2
-28 -3 -13 -4 -29 -4 -36 0 -8 5 -21 5 -30 0 -9 -5 -22 -5 -30 0 -7 4 -23 4
-36 0 -12 -5 -25 -6 -28 -3 -6 6 -135 10 -141 5z"/>
</g>
</svg>
