<?xml version="1.0" standalone="no"?>
<!DOCTYPE svg PUBLIC "-//W3C//DTD SVG 20010904//EN"
 "http://www.w3.org/TR/2001/REC-SVG-20010904/DTD/svg10.dtd">
<svg version="1.0" xmlns="http://www.w3.org/2000/svg"
 width="1056.000000pt" height="1056.000000pt" viewBox="0 0 1056.000000 1056.000000"
 preserveAspectRatio="xMidYMid meet">
<metadata>
Created by potrace 1.11, written by Peter Selinger 2001-2013
</metadata>
<g transform="translate(0.000000,1056.000000) scale(0.100000,-0.100000)"
fill="#000000" stroke="none">
<path d="M5698 10074 c-2 -1 -51 -5 -108 -9 -106 -6 -156 -10 -265 -21 -33 -4
-78 -8 -100 -9 -22 -2 -40 -4 -40 -5 0 -3 -60 -10 -107 -12 -21 -2 -38 -6 -38
-11 0 -4 -3 -6 -7 -4 -5 3 -33 1 -63 -4 -30 -5 -68 -11 -85 -13 -77 -11 -111
-17 -125 -23 -8 -3 -26 -7 -40 -9 -14 -1 -36 -5 -50 -8 -14 -4 -38 -9 -55 -12
-16 -3 -66 -13 -110 -24 -44 -10 -91 -21 -105 -24 -92 -18 -538 -152 -554
-166 -5 -5 -15 -6 -22 -3 -8 3 -14 0 -14 -6 0 -6 -9 -11 -20 -11 -11 0 -84
-25 -162 -56 -196 -77 -193 -76 -193 -73 0 1 -11 -4 -25 -11 -14 -8 -32 -15
-40 -16 -8 -2 -16 -8 -18 -13 -2 -6 -11 -11 -21 -11 -9 0 -26 -7 -37 -15 -10
-8 -25 -15 -31 -15 -13 0 -269 -125 -363 -177 -30 -17 -84 -46 -120 -65 -36
-20 -105 -61 -155 -92 -49 -31 -97 -59 -105 -63 -26 -12 -225 -147 -228 -155
-2 -4 -9 -8 -16 -8 -7 0 -21 -8 -32 -17 -39 -35 -103 -83 -110 -83 -4 0 -14
-7 -23 -15 -53 -48 -61 -54 -61 -47 0 4 -4 2 -8 -3 -4 -6 -56 -51 -117 -100
-60 -49 -115 -94 -121 -100 -6 -5 -51 -46 -100 -90 -214 -194 -448 -444 -609
-649 -16 -22 -35 -44 -40 -50 -6 -6 -52 -69 -103 -141 -51 -71 -96 -134 -100
-140 -4 -5 -23 -35 -42 -65 -19 -30 -37 -57 -41 -60 -3 -3 -19 -27 -33 -55
-15 -27 -48 -84 -73 -125 -48 -80 -164 -305 -211 -410 -16 -36 -40 -87 -53
-115 -12 -27 -24 -55 -25 -60 -1 -6 -11 -33 -22 -60 -56 -140 -114 -303 -127
-360 -1 -5 -7 -22 -13 -38 -7 -15 -14 -40 -17 -55 -10 -45 -10 -47 -18 -59 -5
-7 -6 -13 -3 -13 3 0 1 -11 -4 -25 -5 -14 -12 -36 -14 -48 -2 -12 -9 -42 -16
-67 -12 -44 -15 -58 -25 -110 -3 -14 -7 -34 -9 -45 -19 -88 -36 -177 -40 -215
-4 -25 -8 -56 -10 -70 -10 -53 -16 -99 -21 -156 -3 -32 -8 -77 -10 -99 -27
-238 -26 -770 1 -990 3 -22 7 -66 9 -98 2 -31 6 -60 8 -65 3 -4 8 -34 12 -67
3 -32 8 -62 10 -65 2 -3 6 -24 9 -45 6 -45 13 -88 22 -125 3 -14 8 -34 10 -45
4 -20 6 -29 23 -100 5 -22 12 -51 15 -65 3 -14 14 -54 25 -90 12 -36 21 -73
21 -82 0 -10 5 -18 11 -18 6 0 9 -9 6 -20 -3 -11 -1 -20 4 -20 5 0 9 -8 9 -17
0 -17 39 -128 66 -190 8 -17 14 -33 14 -36 0 -2 8 -22 17 -43 9 -22 17 -41 18
-44 1 -3 9 -22 18 -43 9 -20 17 -41 19 -45 5 -16 137 -270 162 -312 14 -25 34
-60 43 -78 9 -17 20 -32 25 -32 4 0 8 -5 8 -10 0 -19 230 -347 259 -370 4 -3
17 -18 30 -35 98 -128 376 -404 517 -513 26 -20 59 -47 73 -60 14 -13 38 -31
53 -40 16 -9 28 -20 28 -24 0 -4 6 -8 14 -8 7 0 19 -6 25 -14 7 -8 58 -44 114
-81 56 -37 113 -75 127 -85 14 -9 41 -25 60 -35 19 -10 37 -21 40 -24 16 -20
397 -209 535 -266 98 -41 296 -115 318 -119 6 -2 26 -8 42 -15 17 -7 44 -15
60 -18 17 -3 42 -12 58 -20 15 -7 27 -12 27 -9 0 2 21 -3 48 -11 52 -16 286
-74 372 -92 99 -21 115 -23 145 -26 17 -2 30 -4 30 -5 0 -3 74 -16 150 -26 11
-1 20 -3 20 -4 0 0 20 -3 45 -5 25 -3 61 -7 80 -10 19 -3 64 -7 100 -10 36 -3
74 -8 85 -10 55 -11 300 -20 565 -19 261 0 382 5 540 20 25 2 70 6 100 9 30 3
69 7 85 9 43 7 113 16 160 21 22 3 51 7 65 10 14 4 41 8 60 11 19 2 46 7 60 9
14 3 40 8 59 11 41 7 33 5 206 44 77 17 151 35 165 41 14 5 34 11 45 13 71 14
410 118 470 145 11 5 63 25 115 44 52 20 132 51 178 71 45 19 82 32 82 28 0
-4 4 -1 9 6 4 7 14 14 22 16 25 4 303 138 325 157 8 6 14 8 14 4 0 -4 6 -3 13
3 6 5 53 32 102 58 50 26 93 52 97 58 4 6 8 7 8 3 0 -4 20 6 44 23 25 16 47
30 51 30 3 0 67 38 142 85 75 47 140 85 144 85 5 0 9 4 9 8 0 5 11 14 24 20
14 6 37 21 51 34 15 13 27 21 28 18 2 -4 34 20 62 47 8 7 16 13 19 13 8 0 99
64 181 128 6 4 37 28 70 52 33 24 62 46 65 49 3 3 30 25 60 48 30 23 73 58 95
77 22 20 44 36 48 36 5 0 -13 28 -39 62 -26 35 -49 65 -50 66 -4 5 -98 -60
-102 -70 -2 -4 -10 -8 -18 -8 -8 0 -14 -4 -14 -10 0 -5 -5 -10 -11 -10 -6 0
-17 -6 -24 -12 -27 -24 -61 -49 -116 -83 -9 -5 -54 -35 -100 -66 -126 -84
-249 -163 -310 -199 -30 -17 -76 -45 -104 -62 -27 -17 -72 -43 -100 -58 -27
-15 -68 -37 -90 -50 -22 -12 -87 -47 -145 -78 -58 -30 -124 -65 -147 -79 -24
-13 -45 -24 -48 -23 -3 0 -53 -23 -111 -50 -58 -28 -108 -50 -109 -50 -2 0
-38 -16 -79 -35 -42 -19 -82 -35 -89 -35 -7 0 -21 -6 -32 -13 -11 -7 -49 -24
-85 -37 -36 -12 -76 -27 -90 -33 -14 -5 -29 -12 -35 -13 -40 -13 -193 -66
-205 -71 -8 -3 -19 -7 -25 -8 -5 -2 -37 -11 -70 -21 -59 -17 -67 -20 -102 -28
-10 -3 -18 -5 -18 -6 0 -1 -7 -3 -15 -5 -188 -49 -254 -64 -261 -59 -5 3 -9 0
-9 -7 0 -7 -3 -10 -6 -7 -3 4 -20 2 -37 -3 -18 -5 -45 -12 -62 -14 -16 -3 -52
-10 -80 -15 -67 -13 -102 -19 -150 -25 -47 -7 -80 -13 -80 -15 0 -1 -20 -3
-45 -4 -25 -2 -65 -6 -90 -10 -49 -6 -106 -11 -242 -21 -48 -4 -96 -8 -105 -9
-10 -2 -30 0 -45 5 -15 4 -30 4 -33 0 -3 -6 -380 -8 -380 -2 0 1 -40 4 -90 6
-96 5 -168 11 -225 19 -19 2 -56 7 -81 11 -25 3 -59 8 -75 11 -16 3 -42 7 -59
9 -16 1 -43 6 -60 10 -16 5 -39 9 -50 10 -11 1 -33 5 -50 9 -102 24 -162 38
-175 41 -71 14 -302 85 -316 97 -7 5 -16 8 -20 6 -5 -1 -26 6 -48 15 -21 9
-41 17 -44 17 -11 0 -186 73 -220 92 -18 10 -39 18 -47 18 -8 0 -15 5 -15 10
0 6 -8 10 -18 10 -10 0 -22 4 -27 9 -6 4 -55 32 -110 61 -55 29 -119 65 -143
81 -24 16 -45 29 -48 29 -16 0 -294 201 -294 212 0 4 -5 8 -11 8 -11 0 -118
89 -176 147 -18 18 -33 31 -33 29 0 -10 -198 197 -265 278 -22 26 -55 64 -72
84 -18 20 -33 41 -33 45 0 4 -9 18 -21 30 -18 19 -98 133 -149 212 -20 31 -78
129 -112 190 -56 98 -177 359 -203 435 -1 3 -6 16 -12 30 -35 84 -135 410
-126 410 3 0 1 6 -4 13 -11 13 -28 85 -24 105 1 6 -2 12 -6 12 -4 0 -9 10 -9
23 -2 21 -11 77 -14 87 -1 3 -3 10 -4 15 -1 6 -5 28 -9 50 -8 40 -23 132 -31
190 -3 17 -8 57 -11 90 -4 33 -8 76 -11 95 -32 267 -22 780 20 1110 3 19 7 57
10 83 3 27 8 52 10 55 2 4 6 30 10 57 3 28 8 61 11 75 3 14 8 41 10 60 2 19 8
50 14 68 5 18 10 35 10 37 1 3 1 6 2 8 0 1 2 11 4 22 2 11 6 31 9 45 4 14 8
36 11 50 4 20 46 180 59 225 1 6 8 30 15 55 7 25 19 62 26 83 8 20 12 37 9 37
-4 0 -1 7 6 15 7 8 9 15 5 15 -4 0 -2 7 5 15 7 8 9 15 5 15 -4 0 -3 6 3 13 6
6 11 15 11 20 1 4 1 8 2 10 0 1 2 9 4 17 7 30 132 351 172 440 46 102 178 369
195 393 11 15 21 35 22 43 1 9 9 20 17 25 8 5 11 9 7 9 -4 0 8 25 27 55 19 30
35 56 35 59 0 9 169 269 235 361 19 28 43 61 53 75 9 14 21 28 27 32 5 4 7 8
3 8 -4 0 3 10 15 23 12 12 33 38 47 56 161 220 489 567 710 751 30 25 61 52
70 60 8 8 44 37 80 65 36 27 67 52 70 55 3 3 34 27 70 53 36 26 70 51 75 55
51 41 324 215 405 258 30 16 57 32 60 36 4 5 307 161 320 164 3 0 22 8 42 17
21 10 42 17 48 17 5 0 10 5 10 12 0 6 3 8 7 5 3 -4 17 0 30 8 13 9 23 13 23
10 0 -3 17 3 38 14 20 10 71 30 112 45 41 15 84 31 95 36 61 28 472 145 580
164 17 3 41 8 55 11 14 3 39 8 55 10 17 3 37 8 45 10 17 4 83 15 120 20 27 3
85 11 170 25 31 4 72 7 93 6 20 -1 37 1 37 4 0 3 10 6 23 7 12 0 83 4 157 7
114 6 233 8 373 7 15 0 33 0 40 0 30 0 246 -11 287 -16 125 -13 148 -16 185
-21 22 -3 52 -7 66 -10 14 -2 41 -6 60 -8 19 -3 72 -12 119 -21 47 -9 96 -18
110 -20 14 -2 54 -11 90 -20 36 -9 76 -19 89 -21 13 -3 31 -9 40 -13 9 -5 19
-9 24 -9 16 -1 72 -15 82 -20 6 -4 19 -8 30 -9 11 -2 27 -6 35 -10 8 -3 18 -7
23 -8 4 -2 8 -3 10 -5 1 -1 9 -3 17 -5 16 -4 90 -30 175 -63 151 -57 435 -194
478 -231 10 -7 17 -10 17 -7 0 4 6 2 13 -4 6 -6 60 -41 118 -79 97 -63 230
-159 254 -185 6 -6 32 -29 60 -51 48 -38 265 -251 265 -260 0 -2 12 -17 26
-32 73 -78 221 -287 289 -408 77 -135 186 -370 201 -430 1 -5 11 -35 22 -65
18 -49 31 -96 33 -117 0 -5 5 -14 11 -20 6 -7 7 -13 3 -13 -4 0 -2 -7 5 -15 7
-9 10 -18 7 -22 -4 -3 -2 -14 3 -24 6 -9 13 -35 16 -56 3 -21 8 -42 11 -46 2
-4 6 -22 8 -40 3 -18 9 -52 14 -77 11 -49 18 -91 27 -172 3 -29 8 -64 10 -78
23 -139 23 -606 0 -825 -2 -16 -6 -57 -10 -90 -3 -33 -8 -71 -11 -85 -3 -14
-7 -41 -10 -60 -2 -19 -7 -48 -10 -65 -3 -16 -7 -43 -10 -60 -3 -16 -8 -41
-11 -55 -9 -43 -16 -84 -17 -102 -1 -10 -4 -18 -8 -18 -3 0 -5 -11 -4 -25 2
-14 0 -25 -3 -25 -4 0 -8 -14 -9 -31 -1 -17 -6 -36 -11 -43 -4 -6 -8 -18 -7
-26 1 -8 -3 -26 -8 -40 -5 -14 -10 -32 -12 -41 -2 -9 -13 -49 -26 -90 -12 -41
-23 -81 -23 -89 -1 -9 -4 -20 -7 -25 -4 -6 -18 -48 -33 -95 -28 -87 -68 -196
-115 -310 -14 -36 -26 -68 -26 -72 0 -4 -6 -13 -12 -19 -7 -7 -13 -19 -13 -26
0 -7 -4 -21 -9 -31 -5 -9 -46 -93 -90 -186 -91 -189 -196 -373 -310 -546 -73
-110 -84 -125 -123 -172 -10 -12 -18 -24 -18 -29 0 -13 -169 -178 -261 -254
-109 -91 -320 -239 -399 -281 -19 -10 -45 -27 -57 -38 -13 -11 -23 -17 -23
-13 0 3 -31 -10 -70 -29 -102 -50 -180 -84 -180 -77 0 3 -7 0 -15 -7 -8 -7
-15 -10 -15 -7 0 4 -20 -2 -44 -12 -70 -31 -348 -96 -491 -116 -75 -11 -136
-18 -170 -22 -68 -6 -465 -10 -465 -4 0 3 -24 6 -53 7 -94 1 -219 27 -356 73
-84 28 -238 97 -251 112 -3 3 -33 24 -67 47 -70 47 -229 202 -238 232 -4 11
-10 20 -14 20 -4 0 -16 16 -27 35 -10 19 -23 35 -28 35 -5 0 -6 3 -3 6 4 4 -3
20 -14 35 -23 33 -107 211 -114 244 -2 6 -13 39 -25 75 -12 36 -23 72 -25 80
-1 8 -8 33 -14 55 -21 80 -51 249 -47 262 3 7 2 13 -2 13 -7 0 -14 51 -16 118
-1 17 -3 32 -6 32 -3 0 -6 27 -8 60 -2 33 -5 69 -7 80 -2 11 2 20 8 21 7 1
176 2 377 4 201 2 365 4 365 5 0 0 61 3 135 5 74 3 164 7 200 10 36 3 88 7
115 9 93 7 220 18 235 21 8 2 44 6 80 10 36 4 72 8 80 10 13 3 70 10 155 21
11 1 20 3 20 4 0 1 9 3 20 5 47 9 111 19 126 20 9 1 29 5 45 10 16 4 40 9 53
12 25 4 128 29 236 57 33 8 94 27 135 41 41 14 80 27 85 28 32 9 64 20 95 33
19 9 44 19 55 23 64 25 197 90 243 118 28 18 52 31 52 28 0 -5 110 69 175 119
57 43 185 163 185 172 0 4 10 16 23 28 27 25 92 119 131 189 40 73 74 162 102
267 26 97 30 121 38 222 3 32 8 62 11 68 3 5 1 10 -5 10 -6 0 -8 5 -3 13 10
17 11 80 1 94 -5 6 -5 14 2 18 6 3 8 10 6 14 -3 4 -8 32 -11 62 -4 30 -11 74
-16 99 -6 25 -13 55 -15 68 -13 67 -86 224 -147 317 -69 103 -234 285 -259
285 -4 0 -8 3 -8 8 0 10 -130 109 -169 128 -17 9 -31 20 -31 25 0 5 -6 9 -13
9 -7 0 -28 11 -47 24 -39 26 -252 136 -264 136 -4 0 -22 6 -39 14 -62 29 -113
48 -187 72 -41 14 -82 27 -90 30 -8 3 -17 6 -20 6 -3 0 -16 5 -30 10 -14 5
-36 12 -48 14 -13 3 -49 12 -80 20 -32 8 -66 17 -77 19 -11 3 -40 9 -65 14
-42 9 -122 23 -127 23 -2 -1 -17 3 -34 8 -17 5 -59 12 -93 16 -60 6 -82 9
-141 18 -47 8 -203 19 -272 20 -35 1 -63 3 -63 6 0 3 -111 4 -247 2 -315 -4
-333 -5 -333 -15 0 -5 -6 -4 -13 2 -8 6 -16 8 -20 5 -3 -3 -25 -7 -49 -10 -62
-6 -129 -14 -158 -18 -14 -3 -41 -7 -60 -10 -43 -7 -201 -36 -215 -40 -29 -8
-63 -16 -85 -20 -48 -9 -216 -57 -285 -82 -38 -13 -78 -26 -87 -29 -9 -2 -25
-8 -36 -14 -11 -6 -22 -7 -26 -4 -3 3 -6 1 -6 -5 0 -7 -7 -12 -15 -12 -26 0
-318 -139 -420 -200 -27 -16 -57 -33 -65 -37 -8 -3 -17 -9 -20 -13 -3 -3 -30
-21 -60 -40 -30 -19 -57 -37 -60 -40 -3 -3 -22 -16 -42 -30 -21 -14 -38 -28
-38 -32 0 -5 -6 -8 -14 -8 -8 0 -16 -3 -18 -7 -1 -5 -28 -28 -58 -52 -141
-115 -320 -302 -418 -436 -4 -6 -18 -26 -33 -45 -50 -70 -140 -219 -183 -306
-44 -90 -114 -255 -121 -286 -2 -9 -9 -26 -15 -37 -6 -12 -8 -21 -5 -21 3 0
-2 -16 -10 -37 -8 -20 -13 -38 -10 -41 3 -3 0 -11 -5 -18 -6 -6 -10 -16 -9
-20 1 -5 0 -16 -4 -24 -3 -8 -9 -33 -13 -55 -4 -22 -8 -42 -9 -45 -1 -3 -5
-25 -9 -50 -5 -25 -10 -52 -11 -60 -2 -8 -6 -46 -10 -85 -4 -38 -9 -79 -11
-90 -6 -28 -4 -354 1 -390 3 -16 7 -57 10 -90 2 -33 9 -85 15 -115 6 -30 13
-64 15 -75 2 -11 8 -42 15 -70 6 -27 13 -59 15 -70 2 -11 10 -39 19 -63 8 -23
15 -43 15 -45 -1 -5 48 -144 60 -172 46 -102 119 -248 142 -282 16 -23 29 -46
29 -52 0 -6 5 -11 12 -11 6 0 9 -3 5 -6 -3 -3 5 -18 19 -32 13 -15 24 -32 24
-39 0 -6 3 -13 8 -15 4 -1 34 -39 67 -82 77 -102 256 -283 365 -369 47 -37 92
-74 100 -81 8 -7 58 -41 110 -75 52 -33 100 -64 105 -68 31 -24 365 -192 390
-197 6 -2 28 -11 50 -21 22 -10 45 -19 51 -20 5 -2 55 -19 110 -38 109 -39
196 -66 234 -73 14 -2 34 -8 45 -13 11 -5 45 -14 75 -20 30 -6 66 -14 80 -17
63 -14 117 -26 135 -28 11 -2 34 -6 50 -9 17 -4 48 -9 70 -12 22 -2 51 -7 65
-10 14 -3 43 -7 65 -9 114 -13 154 -17 194 -21 142 -16 591 -25 591 -12 0 4 8
3 19 -2 10 -6 21 -8 24 -5 3 4 45 8 94 9 86 3 181 11 254 21 20 2 55 7 79 9
50 5 106 13 140 20 14 3 45 8 70 11 44 5 60 8 110 18 53 12 130 26 160 31 8 1
35 8 60 15 49 15 53 16 90 23 43 9 303 94 403 131 52 20 98 36 102 36 4 0 39
14 78 31 40 18 97 43 127 56 30 13 62 28 70 33 8 5 38 21 65 35 28 14 59 31
70 37 39 24 280 183 292 193 7 5 19 15 27 22 7 6 16 9 20 6 3 -3 8 2 12 11 3
9 10 16 16 16 5 0 26 12 46 28 36 26 45 33 76 60 8 6 18 12 21 12 2 0 15 9 27
19 13 10 57 47 98 81 154 127 178 149 335 305 156 156 203 206 275 295 19 23
42 50 51 60 9 9 52 66 97 126 45 60 85 114 90 120 5 5 15 21 22 35 7 13 16 26
19 29 4 3 22 30 41 60 19 30 37 57 40 60 8 7 29 42 42 70 7 14 15 27 18 30 3
3 13 21 24 40 10 19 28 51 39 70 35 60 143 282 171 350 15 36 31 74 36 85 5
11 18 43 28 70 10 28 22 59 27 70 4 11 9 27 10 35 2 8 15 49 30 90 15 41 28
82 30 90 2 8 13 48 23 88 11 39 17 72 15 72 -3 0 0 7 7 15 6 8 9 19 6 24 -4 5
-2 12 3 15 5 4 8 14 6 24 -1 9 2 27 6 39 5 13 11 44 15 70 3 27 8 51 10 54 1
3 6 28 9 55 4 27 8 60 10 73 14 83 20 213 19 406 -1 198 -4 259 -21 375 -2 19
-6 51 -7 70 -2 19 -5 44 -9 55 -3 11 -8 36 -11 55 -3 19 -10 49 -15 67 -5 17
-7 34 -3 37 3 3 1 6 -4 6 -5 0 -10 10 -11 23 -2 28 -8 58 -15 77 -6 17 -34
112 -44 150 -4 14 -14 43 -24 65 -9 22 -32 78 -50 125 -42 110 -157 334 -221
430 -27 41 -52 83 -55 93 -4 9 -9 17 -13 17 -4 0 -17 18 -29 39 -12 22 -26 41
-30 43 -4 2 -19 21 -35 44 -15 22 -35 49 -45 60 -9 11 -39 46 -67 79 -165 198
-523 513 -725 640 -25 15 -48 33 -52 39 -5 6 -8 7 -8 1 0 -6 -3 -6 -8 1 -7 11
-277 174 -287 174 -3 0 -17 8 -32 17 -14 10 -32 18 -40 19 -8 2 -22 9 -31 16
-15 13 -88 48 -282 136 -36 16 -83 35 -105 42 -22 7 -44 16 -50 20 -5 4 -28
13 -50 20 -22 7 -44 15 -50 19 -5 3 -16 6 -22 7 -7 1 -49 16 -94 33 -44 17
-90 33 -102 35 -12 2 -35 9 -50 15 -16 6 -33 9 -38 5 -5 -3 -9 -1 -9 4 0 9
-30 18 -90 29 -13 2 -27 8 -30 12 -3 4 -12 8 -20 8 -8 0 -71 14 -140 32 -68
17 -138 34 -155 37 -16 2 -38 7 -48 10 -11 3 -29 7 -40 9 -12 2 -33 6 -47 9
-14 3 -42 8 -64 11 -21 3 -41 7 -45 9 -3 2 -28 6 -56 10 -27 3 -61 8 -75 10
-68 12 -171 26 -225 31 -33 3 -70 7 -81 9 -12 3 -66 8 -120 11 -55 4 -112 9
-129 11 -37 5 -743 13 -747 8z m402 -2514 c0 -3 31 -6 68 -7 37 -1 94 -11 128
-22 77 -24 184 -78 184 -92 0 -5 4 -8 9 -5 14 9 137 -110 186 -179 58 -81 119
-203 156 -313 16 -48 29 -87 28 -87 0 0 2 -11 5 -25 3 -14 8 -37 11 -52 3 -16
7 -38 9 -50 43 -222 40 -590 -8 -804 -2 -12 -7 -38 -10 -59 -4 -20 -9 -41 -12
-46 -3 -5 -14 -41 -25 -80 -38 -136 -154 -353 -248 -463 -39 -46 -164 -166
-173 -166 -4 0 -19 -11 -33 -25 -14 -14 -25 -22 -25 -18 0 4 -4 3 -8 -3 -27
-39 -272 -154 -382 -179 -8 -2 -15 -4 -15 -5 0 -1 -7 -3 -15 -5 -8 -1 -40 -8
-70 -14 -30 -6 -66 -14 -80 -16 -64 -13 -207 -19 -450 -20 l-265 0 1 365 c2
436 6 590 17 590 4 0 3 8 -2 19 -6 10 -8 21 -4 24 3 3 7 34 9 69 1 35 5 88 8
118 3 30 8 80 11 110 2 30 7 66 11 80 3 14 7 41 9 60 4 56 15 130 30 195 12
55 23 111 30 160 2 11 4 21 5 23 2 1 4 7 5 12 1 6 4 13 5 18 2 4 4 12 5 17 6
36 19 83 28 100 6 11 12 27 13 35 4 35 60 172 109 267 90 174 195 295 320 370
85 51 215 95 287 97 32 0 58 3 58 6 0 7 80 7 80 0z"/>
</g>
</svg>
