<?xml version="1.0" encoding="UTF-8"?>
<svg width="59px" height="30px" viewBox="0 0 59 30" version="1.1" xmlns="http://www.w3.org/2000/svg" xmlns:xlink="http://www.w3.org/1999/xlink">
    <!-- Generator: Sketch 55 (78076) - https://sketchapp.com -->
    <title>emy logo</title>
    <desc>Created with Sketch.</desc>
    <g id="Page-2" stroke="none" stroke-width="1" fill="none" fill-rule="evenodd" opacity="0.796061198">
        <g id="Landing-page_1" transform="translate(-251.000000, -41.000000)" fill="#FFFFFF" fill-rule="nonzero">
            <g id="emy-logo" transform="translate(251.000000, 41.000000)">
                <path d="M1.13850837,30 L17.0553019,30 C17.6859462,30 18.1938102,29.4815799 18.1938102,28.8378276 L18.1938102,27.2939613 C18.1938102,26.6502089 17.6859462,26.1317888 17.0553019,26.1317888 L4.92795535,26.1317888 C4.29731101,26.1317888 3.78944698,25.6133688 3.78944698,24.9696164 L3.78944698,5.33232055 C3.78944698,4.52335739 4.43125317,3.86821117 5.22374429,3.86821117 L16.7706748,3.86821117 C17.5631659,3.86821117 18.2049721,4.52335739 18.2049721,5.33232055 L18.2049721,19.2726927 C18.2049721,19.5917205 17.9482496,19.853779 17.6357179,19.853779 L15.297311,19.853779 L15.297311,19.8594759 L11.1618468,19.8594759 C10.8493151,19.8594759 10.5925926,19.5974174 10.5925926,19.2783897 L10.5925926,17.4154956 C10.5925926,17.0964679 10.8493151,16.8344094 11.1618468,16.8344094 L14.4657534,16.8344094 C15.0963978,16.8344094 15.6042618,16.3159894 15.6042618,15.672237 L15.6042618,14.1340676 C15.6042618,13.4903152 15.0963978,12.9718952 14.4657534,12.9718952 L11.1618468,12.9718952 C10.8493151,12.9718952 10.5925926,12.7098367 10.5925926,12.390809 L10.5925926,10.6247626 C10.5925926,10.3057349 10.8493151,10.0436764 11.1618468,10.0436764 L14.7615424,10.0436764 C15.3921867,10.0436764 15.9000507,9.52525636 15.9000507,8.88150399 L15.9000507,7.3433346 C15.9000507,6.69958223 15.3921867,6.18116217 14.7615424,6.18116217 L7.27194318,6.18116217 C6.64129883,6.18116217 6.1334348,6.69958223 6.1334348,7.3433346 L6.1334348,22.5598177 C6.1334348,23.2035701 6.64129883,23.7219901 7.27194318,23.7219901 L15.3028919,23.7219901 L15.9056317,23.7219901 L20.8614916,23.7219901 C21.492136,23.7219901 22,23.2035701 22,22.5598177 L22,21.5172807 L22,19.853779 L22,1.16217243 C22,0.518420053 21.492136,0 20.8614916,0 L20.5154744,0 L18.2161339,0 L3.78944698,0 L1.13850837,0 C0.507864028,0 0,0.518420053 0,1.16217243 L0,3.86821117 L0,26.1317888 L0,28.8378276 C0,29.4815799 0.507864028,30 1.13850837,30 Z" id="Path"></path>
                <path d="M26.31637,6 L29.9286055,6 C30.5163591,6 31.024521,6.34931507 31.1898267,6.85388128 L33.5224737,13.8956295 C33.6632896,14.3336595 34.3428797,14.3336595 34.4836957,13.8956295 L36.8285875,6.85388128 C36.9938932,6.34931507 37.5143,6 38.0898087,6 L41.6775545,6 C42.406124,6 43,6.53783431 43,7.19765166 L43,21.7968037 C43,22.456621 42.406124,22.9944553 41.6775545,22.9944553 L39.9938854,22.9944553 C39.2653159,22.9944553 38.6714399,22.456621 38.6714399,21.7968037 L38.6714399,13.1360078 L35.7694066,22.4898891 C35.6775701,22.789302 35.3714485,22.9944553 35.0347146,22.9944553 L33.1000258,22.9944553 C32.763292,22.9944553 32.4632928,22.789302 32.3653338,22.4954338 L29.3286071,13.1360078 L29.3286071,21.8023483 C29.3286071,22.4621657 28.7347311,23 28.0061615,23 L26.3224924,23 C25.5939229,23 25.0000469,22.4621657 25.0000469,21.8023483 L25.0000469,7.19765166 C24.9939245,6.53783431 25.5878005,6 26.31637,6 Z" id="Path"></path>
                <path d="M50.5476661,14.9840547 L46.1651305,7.74259681 C45.7049923,6.97364139 46.260525,6 47.163967,6 L48.931571,6 C49.4366007,6 49.8967389,6.26553856 50.1492538,6.69150667 L52.1076467,10.0273349 C52.2872129,10.3315978 52.7361282,10.3315978 52.9156943,10.0273349 L54.8572529,6.69703872 C55.1041563,6.27107062 55.5755174,6.00553205 56.0749357,6.00553205 L57.8313168,6.00553205 C58.7347588,6.00553205 59.3015144,6.97917345 58.8301533,7.74812886 L54.425172,14.9895867 L54.425172,21.8493329 C54.425172,22.479987 53.9033079,23 53.2579922,23 L51.7148459,23 C51.0751416,23 50.5476661,22.485519 50.5476661,21.8493329 L50.5476661,14.9840547 Z" id="Path"></path>
            </g>
        </g>
    </g>
</svg>