<?xml version="1.0" encoding="UTF-8"?>
<svg width="38px" height="15px" viewBox="0 0 38 15" version="1.1" xmlns="http://www.w3.org/2000/svg" xmlns:xlink="http://www.w3.org/1999/xlink">
    <!-- Generator: Sketch 54.1 (76490) - https://sketchapp.com -->
    <title>emy logo_2</title>
    <desc>Created with Sketch.</desc>
    <g id="Page-2" stroke="none" stroke-width="1" fill="none" fill-rule="evenodd">
        <g id="Mobile/Fiat/Signup1" transform="translate(-21.000000, -40.000000)" fill="#FFFFFF" fill-rule="nonzero">
            <g id="emy-logo_2" transform="translate(21.000000, 40.000000)">
                <path d="M8.30257186,8.53923205 C12.6838124,8.53923205 13.0953101,6.96160267 13.0953101,6.01001669 C13.0953101,4.53255426 11.3524962,3.63105175 9.19818457,3.63105175 C6.46293495,3.63105175 4.52647504,5.33388982 4.52647504,7.63772955 C4.52647504,10.0166945 6.51134644,11.5692821 9.41603631,11.5692821 C9.75491679,11.5692821 10.0937973,11.5442404 10.4326778,11.4941569 C10.8441755,11.4440735 11.279879,11.3439065 11.6913767,11.1936561 C12.2239032,11.0183639 12.6838124,10.7929883 12.9984871,10.542571 C14.7170953,9.41569282 16,7.41235392 16,5.35893155 C16,2.02838063 12.7806354,0 9.10136157,0 C4.28441755,0 0,3.48080134 0,8.41402337 C0,12.6961603 3.19515885,15 6.99546142,15 C9.39183056,15 11.4009077,14.0984975 13.1921331,12.5709516 L13.0468986,12.3706177 C11.376702,13.6227045 9.5128593,14.5742905 7.31013616,14.5742905 C3.89712557,14.5742905 1.54916793,12.1953255 1.54916793,8.58931553 C1.54916793,4.43238731 4.69591528,0.40066778 9.14977307,0.40066778 C11.9818457,0.40066778 14.4508321,2.0033389 14.4508321,5.25876461 C14.4508321,6.93656093 13.8214826,8.639399 12.9500756,9.8163606 C12.9500756,9.8163606 12.9500756,9.84140234 12.9258699,9.84140234 C12.9016641,9.86644407 12.8532526,9.91652755 12.8290469,9.94156928 C12.6838124,10.0918197 12.5385779,10.2170284 12.3691377,10.3422371 C12.0544629,10.5926544 11.6913767,10.7929883 11.3040847,10.918197 C10.7231467,11.0934891 10.0937973,11.1686144 9.46444781,11.0934891 C8.20574887,10.8931553 7.77004539,9.96661102 7.67322239,8.53923205 C7.67322239,8.53923205 7.67322239,8.53923205 7.67322239,8.53923205 L8.30257186,8.53923205 Z M7.67322239,8.21368948 L7.67322239,7.5375626 C7.67322239,5.38397329 8.03630862,3.93155259 9.19818457,3.93155259 C10.0695915,3.93155259 10.4810893,4.78297162 10.4810893,5.83472454 C10.4810893,7.33722871 9.6580938,8.21368948 8.32677761,8.21368948 L7.67322239,8.21368948 Z" id="Shape"></path>
                <g id="Group" transform="translate(19.000000, 4.000000)">
                    <path d="M1.55897436,7.57209302 L0,7.57209302 L0,0.460465116 L1.46153846,0.460465116 L1.46153846,1.61162791 C1.77820513,1.1255814 2.11923077,0.76744186 2.50897436,0.537209302 C2.89871795,0.306976744 3.36153846,0.204651163 3.8974359,0.204651163 C4.43333333,0.204651163 4.87179487,0.33255814 5.21282051,0.562790698 C5.55384615,0.793023256 5.82179487,1.15116279 6.01666667,1.61162791 C6.38205128,1.1255814 6.7474359,0.76744186 7.16153846,0.537209302 C7.57564103,0.306976744 8.01410256,0.204651163 8.52564103,0.204651163 C8.96410256,0.204651163 9.35384615,0.281395349 9.69487179,0.460465116 C10.0358974,0.639534884 10.2794872,0.895348837 10.474359,1.20232558 C10.5717949,1.35581395 10.6205128,1.53488372 10.6692308,1.76511628 C10.7179487,1.96976744 10.7179487,2.27674419 10.7179487,2.68604651 L10.7179487,3.24883721 L10.7179487,7.54651163 L9.15897436,7.54651163 L9.15897436,3.91395349 C9.15897436,2.96744186 9.06153846,2.32790698 8.86666667,2.02093023 C8.67179487,1.71395349 8.33076923,1.56046512 7.84358974,1.56046512 C7.23461538,1.56046512 6.79615385,1.76511628 6.5525641,2.1744186 C6.28461538,2.58372093 6.16282051,3.3 6.16282051,4.32325581 L6.16282051,7.57209302 L4.60384615,7.57209302 L4.60384615,3.91395349 C4.60384615,3.04418605 4.50641026,2.43023256 4.31153846,2.09767442 C4.11666667,1.76511628 3.75128205,1.58604651 3.26410256,1.58604651 C2.9474359,1.58604651 2.67948718,1.6627907 2.43589744,1.79069767 C2.19230769,1.94418605 1.97307692,2.12325581 1.82692308,2.37906977 C1.72948718,2.53255814 1.65641026,2.7372093 1.63205128,2.99302326 C1.60769231,3.24883721 1.58333333,3.68372093 1.58333333,4.32325581 L1.58333333,7.57209302 L1.55897436,7.57209302 Z" id="Path"></path>
                    <path d="M13.9576923,10.8976744 L12.374359,10.8976744 L14.225641,6.93255814 L11.7410256,0.434883721 L13.4461538,0.434883721 L14.6884615,4.11860465 C14.7615385,4.34883721 14.8346154,4.57906977 14.8833333,4.80930233 C14.9320513,5.03953488 14.9807692,5.26976744 15.0051282,5.5255814 C15.0782051,5.26976744 15.224359,4.88604651 15.4435897,4.32325581 L15.4679487,4.22093023 L17.1487179,0.434883721 L18.8294872,0.434883721 L13.9576923,10.8976744 Z" id="Path"></path>
                </g>
            </g>
        </g>
    </g>
</svg>