<?xml version="1.0" encoding="UTF-8"?>
<svg width="75px" height="30px" viewBox="0 0 75 30" version="1.1" xmlns="http://www.w3.org/2000/svg" xmlns:xlink="http://www.w3.org/1999/xlink">
    <!-- Generator: Sketch 54.1 (76490) - https://sketchapp.com -->
    <title>emy logo_2</title>
    <desc>Created with Sketch.</desc>
    <g id="Page-2" stroke="none" stroke-width="1" fill="none" fill-rule="evenodd">
        <g id="landing-page_1" transform="translate(-40.000000, -50.000000)" fill="#FFFFFF" fill-rule="nonzero">
            <g id="emy-logo_2" transform="translate(40.000000, 50.000000)">
                <path d="M17.1240545,17.0784641 C26.1603631,17.0784641 27.0090772,13.9232053 27.0090772,12.0200334 C27.0090772,9.06510851 23.4145234,7.26210351 18.9712557,7.26210351 C13.3298033,7.26210351 9.33585477,10.6677796 9.33585477,15.2754591 C9.33585477,20.033389 13.429652,23.1385643 19.4205749,23.1385643 C20.1195159,23.1385643 20.8184569,23.0884808 21.5173979,22.9883139 C22.366112,22.8881469 23.2647504,22.687813 24.1134644,22.3873122 C25.2118003,22.0367279 26.1603631,21.5859766 26.8093797,21.0851419 C30.3540091,18.8313856 33,14.8247078 33,10.7178631 C33,4.05676127 26.3600605,0 18.7715582,0 C8.8366112,0 0,6.96160267 0,16.8280467 C0,25.3923205 6.59001513,30 14.4281392,30 C19.3706505,30 23.5143722,28.196995 27.2087746,25.1419032 L26.9092284,24.7412354 C23.4644478,27.245409 19.6202723,29.148581 15.0771558,29.148581 C8.03782148,29.148581 3.19515885,24.3906511 3.19515885,17.1786311 C3.19515885,8.86477462 9.68532526,0.801335559 18.871407,0.801335559 C24.7125567,0.801335559 29.8048411,4.0066778 29.8048411,10.5175292 C29.8048411,13.8731219 28.5068079,17.278798 26.709531,19.6327212 C26.709531,19.6327212 26.709531,19.6828047 26.6596067,19.6828047 C26.6096823,19.7328881 26.5098336,19.8330551 26.4599092,19.8831386 C26.1603631,20.1836394 25.8608169,20.4340568 25.5113464,20.6844741 C24.8623298,21.1853088 24.1134644,21.5859766 23.3146747,21.836394 C22.1164902,22.1869783 20.8184569,22.3372287 19.5204236,22.1869783 C16.924357,21.7863105 16.0257186,19.933222 15.8260212,17.0784641 C15.8260212,17.0784641 15.8260212,17.0784641 15.8260212,17.0784641 L17.1240545,17.0784641 Z M15.8260212,16.427379 L15.8260212,15.0751252 C15.8260212,10.7679466 16.5748865,7.86310518 18.9712557,7.86310518 C20.7685325,7.86310518 21.6172466,9.56594324 21.6172466,11.6694491 C21.6172466,14.6744574 19.9198185,16.427379 17.1739788,16.427379 L15.8260212,16.427379 Z" id="Shape"></path>
                <g id="Group" transform="translate(37.000000, 7.000000)">
                    <path d="M3.11794872,14.455814 L0,14.455814 L0,0.879069767 L2.92307692,0.879069767 L2.92307692,3.07674419 C3.55641026,2.14883721 4.23846154,1.46511628 5.01794872,1.0255814 C5.7974359,0.586046512 6.72307692,0.390697674 7.79487179,0.390697674 C8.86666667,0.390697674 9.74358974,0.634883721 10.425641,1.0744186 C11.1076923,1.51395349 11.6435897,2.19767442 12.0333333,3.07674419 C12.7641026,2.14883721 13.4948718,1.46511628 14.3230769,1.0255814 C15.1512821,0.586046512 16.0282051,0.390697674 17.0512821,0.390697674 C17.9282051,0.390697674 18.7076923,0.537209302 19.3897436,0.879069767 C20.0717949,1.22093023 20.5589744,1.70930233 20.9487179,2.29534884 C21.1435897,2.58837209 21.2410256,2.93023256 21.3384615,3.36976744 C21.4358974,3.76046512 21.4358974,4.34651163 21.4358974,5.12790698 L21.4358974,6.20232558 L21.4358974,14.4069767 L18.3179487,14.4069767 L18.3179487,7.47209302 C18.3179487,5.66511628 18.1230769,4.44418605 17.7333333,3.85813953 C17.3435897,3.27209302 16.6615385,2.97906977 15.6871795,2.97906977 C14.4692308,2.97906977 13.5923077,3.36976744 13.1051282,4.15116279 C12.5692308,4.93255814 12.325641,6.3 12.325641,8.25348837 L12.325641,14.455814 L9.20769231,14.455814 L9.20769231,7.47209302 C9.20769231,5.81162791 9.01282051,4.63953488 8.62307692,4.00465116 C8.23333333,3.36976744 7.5025641,3.02790698 6.52820513,3.02790698 C5.89487179,3.02790698 5.35897436,3.1744186 4.87179487,3.41860465 C4.38461538,3.71162791 3.94615385,4.05348837 3.65384615,4.54186047 C3.45897436,4.83488372 3.31282051,5.2255814 3.26410256,5.71395349 C3.21538462,6.20232558 3.16666667,7.03255814 3.16666667,8.25348837 L3.16666667,14.455814 L3.11794872,14.455814 Z" id="Path"></path>
                    <path d="M27.9153846,20.8046512 L24.7487179,20.8046512 L28.4512821,13.2348837 L23.4820513,0.830232558 L26.8923077,0.830232558 L29.3769231,7.8627907 C29.5230769,8.30232558 29.6692308,8.74186047 29.7666667,9.18139535 C29.8641026,9.62093023 29.9615385,10.0604651 30.0102564,10.5488372 C30.1564103,10.0604651 30.4487179,9.32790698 30.8871795,8.25348837 L30.9358974,8.05813953 L34.2974359,0.830232558 L37.6589744,0.830232558 L27.9153846,20.8046512 Z" id="Path"></path>
                </g>
            </g>
        </g>
    </g>
</svg>