<?xml version="1.0" encoding="UTF-8"?>
<svg width="75px" height="30px" viewBox="0 0 75 30" version="1.1" xmlns="http://www.w3.org/2000/svg" xmlns:xlink="http://www.w3.org/1999/xlink">
    <!-- Generator: Sketch 54.1 (76490) - https://sketchapp.com -->
    <title>emy logo_2</title>
    <desc>Created with Sketch.</desc>
    <g id="Page-2" stroke="none" stroke-width="1" fill="none" fill-rule="evenodd">
        <g id="landing-page_1"  fill="#5B4AE2" fill-rule="nonzero">
            <g id="emy-logo_2" >
                <path d="M17.1240545,17.0784641 C26.1603631,17.0784641 27.0090772,13.9232053 27.0090772,12.0200334 C27.0090772,9.06510851 23.4145234,7.26210351 18.9712557,7.26210351 C13.3298033,7.26210351 9.33585477,10.6677796 9.33585477,15.2754591 C9.33585477,20.033389 13.429652,23.1385643 19.4205749,23.1385643 C20.1195159,23.1385643 20.8184569,23.0884808 21.5173979,22.9883139 C22.366112,22.8881469 23.2647504,22.687813 24.1134644,22.3873122 C25.2118003,22.0367279 26.1603631,21.5859766 26.8093797,21.0851419 C30.3540091,18.8313856 33,14.8247078 33,10.7178631 C33,4.05676127 26.3600605,0 18.7715582,0 C8.8366112,0 0,6.96160267 0,16.8280467 C0,25.3923205 6.59001513,30 14.4281392,30 C19.3706505,30 23.5143722,28.196995 27.2087746,25.1419032 L26.9092284,24.7412354 C23.4644478,27.245409 19.6202723,29.148581 15.0771558,29.148581 C8.03782148,29.148581 3.19515885,24.3906511 3.19515885,17.1786311 C3.19515885,8.86477462 9.68532526,0.801335559 18.871407,0.801335559 C24.7125567,0.801335559 29.8048411,4.0066778 29.8048411,10.5175292 C29.8048411,13.8731219 28.5068079,17.278798 26.709531,19.6327212 C26.709531,19.6327212 26.709531,19.6828047 26.6596067,19.6828047 C26.6096823,19.7328881 26.5098336,19.8330551 26.4599092,19.8831386 C26.1603631,20.1836394 25.8608169,20.4340568 25.5113464,20.6844741 C24.8623298,21.1853088 24.1134644,21.5859766 23.3146747,21.836394 C22.1164902,22.1869783 20.8184569,22.3372287 19.5204236,22.1869783 C16.924357,21.7863105 16.0257186,19.933222 15.8260212,17.0784641 C15.8260212,17.0784641 15.8260212,17.0784641 15.8260212,17.0784641 L17.1240545,17.0784641 Z M15.8260212,16.427379 L15.8260212,15.0751252 C15.8260212,10.7679466 16.5748865,7.86310518 18.9712557,7.86310518 C20.7685325,7.86310518 21.6172466,9.56594324 21.6172466,11.6694491 C21.6172466,14.6744574 19.9198185,16.427379 17.1739788,16.427379 L15.8260212,16.427379 Z" id="Shape"></path>
            </g>
        </g>
    </g>
</svg>