<?xml version="1.0" encoding="UTF-8"?>
<svg width="36px" height="18px" viewBox="0 0 36 18" version="1.1" xmlns="http://www.w3.org/2000/svg" xmlns:xlink="http://www.w3.org/1999/xlink">
    <!-- Generator: Sketch 55 (78076) - https://sketchapp.com -->
    <title>emy logo</title>
    <desc>Created with Sketch.</desc>
    <g id="Page-2" stroke="none" stroke-width="1" fill="none" fill-rule="evenodd">
        <g id="Mobile-/Fiat/Signup2" transform="translate(-21.000000, -35.000000)" fill="#252534" fill-rule="nonzero">
            <g id="emy-logo" transform="translate(21.000000, 35.000000)">
                <path d="M0.672754947,18 L10.0781329,18 C10.4507864,18 10.7508879,17.688948 10.7508879,17.3026965 L10.7508879,16.3763768 C10.7508879,15.9901253 10.4507864,15.6790733 10.0781329,15.6790733 L2.91197362,15.6790733 C2.53932014,15.6790733 2.23921867,15.3680213 2.23921867,14.9817698 L2.23921867,3.19939233 C2.23921867,2.71401443 2.61846778,2.3209267 3.08675799,2.3209267 L9.90994419,2.3209267 C10.3782344,2.3209267 10.7574835,2.71401443 10.7574835,3.19939233 L10.7574835,11.5636156 C10.7574835,11.7550323 10.6057839,11.9122674 10.421106,11.9122674 L9.03932014,11.9122674 L9.03932014,11.9156855 L6.59563673,11.9156855 C6.4109589,11.9156855 6.25925926,11.7584504 6.25925926,11.5670338 L6.25925926,10.4492974 C6.25925926,10.2578807 6.4109589,10.1006457 6.59563673,10.1006457 L8.54794521,10.1006457 C8.92059868,10.1006457 9.22070015,9.78959362 9.22070015,9.4033422 L9.22070015,8.48044056 C9.22070015,8.09418914 8.92059868,7.78313711 8.54794521,7.78313711 L6.59563673,7.78313711 C6.4109589,7.78313711 6.25925926,7.62590201 6.25925926,7.43448538 L6.25925926,6.37485758 C6.25925926,6.18344094 6.4109589,6.02620585 6.59563673,6.02620585 L8.72272958,6.02620585 C9.09538305,6.02620585 9.39548453,5.71515382 9.39548453,5.32890239 L9.39548453,4.40600076 C9.39548453,4.01974934 9.09538305,3.7086973 8.72272958,3.7086973 L4.29705733,3.7086973 C3.92440386,3.7086973 3.62430238,4.01974934 3.62430238,4.40600076 L3.62430238,13.5358906 C3.62430238,13.922142 3.92440386,14.2331941 4.29705733,14.2331941 L9.04261796,14.2331941 L9.39878234,14.2331941 L12.3272451,14.2331941 C12.6998985,14.2331941 13,13.922142 13,13.5358906 L13,12.9103684 L13,11.9122674 L13,0.697303456 C13,0.311052032 12.6998985,0 12.3272451,0 L12.1227803,0 L10.7640791,0 L2.23921867,0 L0.672754947,0 C0.300101471,0 0,0.311052032 0,0.697303456 L0,2.3209267 L0,15.6790733 L0,17.3026965 C0,17.688948 0.300101471,18 0.672754947,18 Z" id="Path"></path>
                <path d="M15.8044483,4 L18.0119256,4 C18.3711083,4 18.6816517,4.20547945 18.7826719,4.50228311 L20.2081784,8.64448793 C20.2942326,8.90215264 20.7095376,8.90215264 20.7955918,8.64448793 L22.2285813,4.50228311 C22.3296014,4.20547945 22.6476278,4 22.9993275,4 L25.1918388,4 C25.6370758,4 26,4.31637312 26,4.70450098 L26,13.2922374 C26,13.6803653 25.6370758,13.9967384 25.1918388,13.9967384 L24.16293,13.9967384 C23.717693,13.9967384 23.3547688,13.6803653 23.3547688,13.2922374 L23.3547688,8.19765166 L21.581304,13.6999348 C21.5251817,13.87606 21.3381074,13.9967384 21.1323256,13.9967384 L19.9500158,13.9967384 C19.744234,13.9967384 19.5609011,13.87606 19.5010373,13.7031963 L17.6452599,8.19765166 L17.6452599,13.295499 C17.6452599,13.6836269 17.2823356,14 16.8370987,14 L15.8081898,14 C15.3629529,14 15.0000287,13.6836269 15.0000287,13.295499 L15.0000287,4.70450098 C14.9962872,4.31637312 15.3592114,4 15.8044483,4 Z" id="Path"></path>
                <path d="M30.7985637,9.28473804 L28.1016188,5.02505695 C27.8184568,4.57273023 28.1603231,4 28.7162874,4 L29.8040437,4 C30.1148312,4 30.3979932,4.15619915 30.5533869,4.40676863 L31.7585518,6.3690205 C31.8690541,6.5479987 32.1453096,6.5479987 32.2558119,6.3690205 L33.4506172,4.41002278 C33.6025577,4.1594533 33.8926261,4.00325415 34.1999604,4.00325415 L35.2808103,4.00325415 C35.8367746,4.00325415 36.1855473,4.57598438 35.895479,5.0283111 L33.1847212,9.28799219 L33.1847212,13.323137 C33.1847212,13.69411 32.8635741,14 32.4664567,14 L31.5168282,14 C31.123164,14 30.7985637,13.6973641 30.7985637,13.323137 L30.7985637,9.28473804 Z" id="Path"></path>
            </g>
        </g>
    </g>
</svg>